<?xml version="1.0" encoding="UTF-8"?>
<svg version="1.1" xmlns="http://www.w3.org/2000/svg" width="532" height="532">
<path d="M0 0 C2.36182053 0.34931127 4.6927185 0.50034164 7.07421875 0.65625 C7.70972656 0.7696875 8.34523438 0.883125 9 1 C9.495 1.99 9.495 1.99 10 3 C13.43814849 4.61795223 16.75026404 5.92137942 20.375 7.0625 C23 8 23 8 24 10 C24.99 10.495 24.99 10.495 26 11 C27.33333333 12.33333333 28.66666667 13.66666667 30 15 C30.66 15.33 31.32 15.66 32 16 C32 16.66 32 17.32 32 18 C33.32 17.67 34.64 17.34 36 17 C36 18.32 36 19.64 36 21 C36.99 21.99 36.99 21.99 38 23 C41.6145605 26.97601655 43.47788724 29.78132767 45 35 C46.64046858 38.63756077 48.12524724 41.26214022 51 44 C51 44.66 51 45.32 51 46 C50.34 46 49.68 46 49 46 C50.39759905 49.54518884 50.39759905 49.54518884 52 53 C52.09825199 55.84352821 52.13900483 58.65702042 52.125 61.5 C52.12886719 62.28503906 52.13273438 63.07007813 52.13671875 63.87890625 C52.12665394 69.74669213 52.12665394 69.74669213 51 72 C51.66 72 52.32 72 53 72 C53 72.66 53 73.32 53 74 C52.34 74 51.68 74 51 74 C50.63762737 75.62318979 50.28534843 77.2486358 49.9375 78.875 C49.74027344 79.77992188 49.54304687 80.68484375 49.33984375 81.6171875 C48.76797843 84.01014125 48.76797843 84.01014125 50 86 C49.01 86.495 49.01 86.495 48 87 C47.24052812 88.68404633 46.4873049 90.37169002 45.7890625 92.08203125 C42.66923077 99.66538462 42.66923077 99.66538462 40 101 C39.31867549 102.66072849 38.65257873 104.327767 38 106 C37.34 106.66 36.68 107.32 36 108 C36.33 108.66 36.66 109.32 37 110 C35.515 110.495 35.515 110.495 34 111 C34.33 111.66 34.66 112.32 35 113 C33 116 33 116 30.9375 116.875 C28.70909738 117.86943709 28.70909738 117.86943709 28.25 120.625 C28.1675 121.40875 28.085 122.1925 28 123 C26.515 123.495 26.515 123.495 25 124 C23.55678634 125.52138974 23.55678634 125.52138974 22.3125 127.375 C21.87550781 127.98085937 21.43851562 128.58671875 20.98828125 129.2109375 C19.758234 131.09701672 19.758234 131.09701672 20 134 C19.01 134 18.02 134 17 134 C17.33 134.99 17.66 135.98 18 137 C17.01 137.33 16.02 137.66 15 138 C11.79080056 142.06250804 11.79080056 142.06250804 11 147 C10.01 147.33 9.02 147.66 8 148 C4.79080056 152.06250804 4.79080056 152.06250804 4 157 C3.01 157 2.02 157 1 157 C1 157.99 1 158.98 1 160 C0.34 160 -0.32 160 -1 160 C-0.67 160.99 -0.34 161.98 0 163 C-0.99 163.33 -1.98 163.66 -3 164 C-2.67 164.66 -2.34 165.32 -2 166 C-2.66 166.33 -3.32 166.66 -4 167 C-4.33 167.66 -4.66 168.32 -5 169 C-5.99 169.66 -6.98 170.32 -8 171 C-6.515 171.99 -6.515 171.99 -5 173 C-7.24973447 173.054138 -9.49984383 173.09285491 -11.75 173.125 C-13.00296875 173.14820313 -14.2559375 173.17140625 -15.546875 173.1953125 C-18.80247155 173.01117242 -20.28822476 172.64905251 -23 171 C-23.99 170.67 -24.98 170.34 -26 170 C-25.67 169.67 -25.34 169.34 -25 169 C-25.66 168.67 -26.32 168.34 -27 168 C-27.12375 167.195625 -27.2475 166.39125 -27.375 165.5625 C-27.72567164 162.84016601 -27.72567164 162.84016601 -30.0625 161.6875 C-31.0215625 161.3471875 -31.0215625 161.3471875 -32 161 C-31.34 161 -30.68 161 -30 161 C-31.5801368 158.84526801 -33.10646634 156.89353366 -35 155 C-35.268125 154.34 -35.53625 153.68 -35.8125 153 C-36.85499691 150.74310182 -36.85499691 150.74310182 -39.5 150.1875 C-42 149 -42 149 -43.3125 145.5 C-44 142 -44 142 -44 140 C-45.32 139.34 -46.64 138.68 -48 138 C-47.34 137.67 -46.68 137.34 -46 137 C-46.93137592 135.70391053 -47.8703566 134.41328368 -48.8125 133.125 C-49.33457031 132.40570313 -49.85664063 131.68640625 -50.39453125 130.9453125 C-52.03272777 128.76971345 -52.03272777 128.76971345 -55 127 C-55 126.01 -55 125.02 -55 124 C-56.32 124 -57.64 124 -59 124 C-59.2165625 122.576875 -59.2165625 122.576875 -59.4375 121.125 C-59.82935399 118.1065506 -59.82935399 118.1065506 -61 116 C-62.64363134 115.27840576 -64.31050386 114.60648579 -66 114 C-65.505 112.515 -65.505 112.515 -65 111 C-66.01848187 108.4923076 -66.01848187 108.4923076 -67.625 105.9375 C-68.13289062 105.05964844 -68.64078125 104.18179688 -69.1640625 103.27734375 C-71.25556748 100.68298757 -72.84897308 99.95176069 -76 99 C-75.79503906 98.44570312 -75.59007812 97.89140625 -75.37890625 97.3203125 C-74.88153077 94.27452862 -75.69617572 92.67529383 -76.9375 89.875 C-79 85.16271186 -79 85.16271186 -79 83 C-79.99 82.67 -80.98 82.34 -82 82 C-82 81.01 -82 80.02 -82 79 C-82.66 78.67 -83.32 78.34 -84 78 C-83.625 75.0625 -83.625 75.0625 -83 72 C-82.01 71.505 -82.01 71.505 -81 71 C-81.99 71 -82.98 71 -84 71 C-83.855625 70.443125 -83.71125 69.88625 -83.5625 69.3125 C-82.97230872 66.88615805 -82.476571 64.45093655 -82 62 C-82.66 62 -83.32 62 -84 62 C-84 61.01 -84 60.02 -84 59 C-83.34 59 -82.68 59 -82 59 C-81.63705686 56.8973294 -81.28493028 54.79278943 -80.9375 52.6875 C-80.64166016 50.92986328 -80.64166016 50.92986328 -80.33984375 49.13671875 C-79.77694302 45.97488124 -79.77694302 45.97488124 -81 43 C-80.01 42.01 -79.02 41.02 -78 40 C-78.33 39.34 -78.66 38.68 -79 38 C-78.01 38 -77.02 38 -76 38 C-75.31292445 35.50935112 -75 33.62113708 -75 31 C-74.34 30.34 -73.68 29.68 -73 29 C-72.30251417 27.68252676 -71.63040043 26.35085807 -71 25 C-70.01 25 -69.02 25 -68 25 C-68 23.68 -68 22.36 -68 21 C-67.34 20.67 -66.68 20.34 -66 20 C-65.67 19.01 -65.34 18.02 -65 17 C-64.01 17 -63.02 17 -62 17 C-61.7525 16.360625 -61.505 15.72125 -61.25 15.0625 C-60 13 -60 13 -58.125 12.5 C-57.42375 12.335 -56.7225 12.17 -56 12 C-53.72855926 10.14567913 -53.72855926 10.14567913 -52 8 C-52 7.34 -52 6.68 -52 6 C-50.906875 5.896875 -49.81375 5.79375 -48.6875 5.6875 C-45.14440371 5.02692273 -44.06756277 4.7972908 -42 2 C-42 2.66 -42 3.32 -42 4 C-41.26136719 3.73445313 -40.52273437 3.46890625 -39.76171875 3.1953125 C-28.37093699 -0.77047429 -11.38660586 -6.24581756 0 0 Z M-22.5625 24.875 C-23.32691406 25.03742188 -24.09132813 25.19984375 -24.87890625 25.3671875 C-27.88128835 26.2629258 -29.80517298 27.80517298 -32 30 C-32.33 29.34 -32.66 28.68 -33 28 C-37.29690839 30.33732425 -37.29690839 30.33732425 -39.875 34.25 C-39.91625 34.8275 -39.9575 35.405 -40 36 C-41.32 36 -42.64 36 -44 36 C-45.57273568 38.8424854 -45.57273568 38.8424854 -46 42 C-46.598125 42.185625 -47.19625 42.37125 -47.8125 42.5625 C-51.09981799 44.72273753 -51.64854687 47.35107655 -53 51 C-52.34 51 -51.68 51 -51 51 C-51 51.99 -51 52.98 -51 54 C-51.99 54.33 -52.98 54.66 -54 55 C-53.34 55.66 -52.68 56.32 -52 57 C-52.7425 57.495 -52.7425 57.495 -53.5 58 C-55.88179561 61.17572747 -55.19168226 64.10246066 -55 68 C-54.34 68.33 -53.68 68.66 -53 69 C-53.33 69.66 -53.66 70.32 -54 71 C-53.34 71 -52.68 71 -52 71 C-52.33 72.32 -52.66 73.64 -53 75 C-52.34 75 -51.68 75 -51 75 C-51 75.66 -51 76.32 -51 77 C-51.99 77.495 -51.99 77.495 -53 78 C-49.46575581 85.74525854 -45.92485225 90.92177502 -39 96 C-38.505 96.556875 -38.01 97.11375 -37.5 97.6875 C-35.83047426 99.43900307 -35.83047426 99.43900307 -32 99 C-32 99.66 -32 100.32 -32 101 C-27.92276266 102.95031692 -24.68307578 103.21581971 -20.1875 103.125 C-18.44533203 103.09792969 -18.44533203 103.09792969 -16.66796875 103.0703125 C-15.78753906 103.04710937 -14.90710938 103.02390625 -14 103 C-14 103.33 -14 103.66 -14 104 C-2.70243544 104.25676283 5.61856835 99.18824173 14 92 C17.84162461 88.17493412 21.17250736 84.15997921 23 79 C22.78384744 75.22623449 22.78384744 75.22623449 22 72 C22.99 72 23.98 72 25 72 C25 70.68 25 69.36 25 68 C24.01 68 23.02 68 22 68 C22.66 66.35 23.32 64.7 24 63 C24.33 63.99 24.66 64.98 25 66 C25 64.68 25 63.36 25 62 C24.34 61.34 23.68 60.68 23 60 C22.67 59.01 22.34 58.02 22 57 C22.66 57 23.32 57 24 57 C23.48982933 53.25874845 22.86277992 50.28725868 21 47 C20.505 45.9171875 20.505 45.9171875 20 44.8125 C19.12855431 42.82798477 19.12855431 42.82798477 17 42 C16.5978125 41.1028125 16.5978125 41.1028125 16.1875 40.1875 C14.59784974 37.2591969 12.78894004 35.79289002 10 34 C7.73575649 34.12563582 7.73575649 34.12563582 6 35 C6 34.34 6 33.68 6 33 C6.66 32.67 7.32 32.34 8 32 C5.08235 30.0549 3.37462715 29.54723683 0 29 C0 28.34 0 27.68 0 27 C-4.94749352 25.04968392 -4.94749352 25.04968392 -10 26 C-9.34 26 -8.68 26 -8 26 C-8 26.66 -8 27.32 -8 28 C-11 27 -11 27 -12.4375 25.4375 C-15.32585452 22.78021384 -19.04505422 24.10128096 -22.5625 24.875 Z M-23 103 C-23 103.33 -23 103.66 -23 104 C-21.35 104 -19.7 104 -18 104 C-18 103.67 -18 103.34 -18 103 C-19.65 103 -21.3 103 -23 103 Z M-42 143 C-41 145 -41 145 -41 145 Z " fill="#E8E9E8" transform="translate(280,122)"/>
<path d="M0 0 C4.95 0 9.9 0 15 0 C15.66 1.32 16.32 2.64 17 4 C17.66 4.66 18.32 5.32 19 6 C18.01 7.485 18.01 7.485 17 9 C17.57707802 12.64484416 17.57707802 12.64484416 19 16 C19.99 16.33 20.98 16.66 22 17 C22 19 22 21 22 23 C22.99 23.33 23.98 23.66 25 24 C27.11626091 26.11626091 27 29.164717 27 32 C30.09237436 30.45381282 30.60159928 27.45437807 31.78515625 24.375 C32.04630722 23.71290527 32.30745819 23.05081055 32.57652283 22.36865234 C33.41172381 20.24826849 34.23754778 18.1243899 35.0625 16 C35.89248894 13.87622592 36.72442187 11.75324826 37.55918884 9.63134766 C38.07872386 8.30932997 38.59520953 6.98610925 39.1084137 5.66162109 C40.8889558 1.1110442 40.8889558 1.1110442 42 0 C44.14307896 -0.12537741 46.29078886 -0.17574364 48.4375 -0.1875 C49.61183594 -0.20167969 50.78617188 -0.21585937 51.99609375 -0.23046875 C55 0 55 0 57 2 C56.34 3.32 55.68 4.64 55 6 C55.66 6.33 56.32 6.66 57 7 C56.7215625 7.928125 56.7215625 7.928125 56.4375 8.875 C55.76313824 11.04160178 55.76313824 11.04160178 57 13 C56.34 13 55.68 13 55 13 C55.66 14.65 56.32 16.3 57 18 C56.34 18 55.68 18 55 18 C55 18.66 55 19.32 55 20 C55.66 20.33 56.32 20.66 57 21 C57.05402274 23.10388569 57.09280256 25.20816714 57.125 27.3125 C57.14820313 28.48425781 57.17140625 29.65601563 57.1953125 30.86328125 C57 34 57 34 55 37 C55.66 37 56.32 37 57 37 C57 38.32 57 39.64 57 41 C56.34 41 55.68 41 55 41 C55 41.99 55 42.98 55 44 C55.66 44 56.32 44 57 44 C57.66 46.64 58.32 49.28 59 52 C57.02 52.495 57.02 52.495 55 53 C53.31008021 53.9601817 51.63790712 54.95355934 50 56 C50 55.34 50 54.68 50 54 C49.030625 53.7525 48.06125 53.505 47.0625 53.25 C44 52 44 52 43.125 50.375 C42.9425266 46.90800537 42.94213093 43.47214392 43 40 C42.01 39.505 42.01 39.505 41 39 C41.33 37.35 41.66 35.7 42 34 C42.66 34 43.32 34 44 34 C44 33.34 44 32.68 44 32 C42.68 32 41.36 32 40 32 C40 33.32 40 34.64 40 36 C38.69791204 38.02048131 37.36011609 40.01811655 36 42 C34.89292286 44.30216459 33.94964603 46.62588492 33 49 C33.99 49.495 33.99 49.495 35 50 C32.69 51.65 30.38 53.3 28 55 C24.11478682 53.52629845 22.8673193 51.6534508 21 48 C20.505 46.783125 20.01 45.56625 19.5 44.3125 C18.25637748 40.78876045 18.25637748 40.78876045 15 39 C15.33 38.01 15.66 37.02 16 36 C15.24652725 33.44934058 15.24652725 33.44934058 14.0625 30.8125 C13.68222656 29.91144531 13.30195313 29.01039063 12.91015625 28.08203125 C12.60980469 27.39496094 12.30945313 26.70789063 12 26 C12.01160156 26.70382812 12.02320313 27.40765625 12.03515625 28.1328125 C12.18184035 44.18424445 12.18184035 44.18424445 11 52 C10.01 52.495 10.01 52.495 9 53 C9.33 53.99 9.66 54.98 10 56 C4.71201818 55.58525633 1.88309282 54.64775386 -2 51 C-1.34 51 -0.68 51 0 51 C-0.66 49.35 -1.32 47.7 -2 46 C-1.34 46 -0.68 46 0 46 C-0.14168137 44.56208484 -0.28851043 43.1246763 -0.4375 41.6875 C-0.51871094 40.88699219 -0.59992188 40.08648437 -0.68359375 39.26171875 C-0.95265693 36.83912821 -0.95265693 36.83912821 -2 34 C-1.34 34 -0.68 34 0 34 C0 33.34 0 32.68 0 32 C-0.66 32 -1.32 32 -2 32 C-2 30.35 -2 28.7 -2 27 C-1.67 27 -1.34 27 -1 27 C-0.73067479 22.34947128 -0.73067479 22.34947128 -2 18 C-1.34 18 -0.68 18 0 18 C0 17.34 0 16.68 0 16 C-0.66 16 -1.32 16 -2 16 C-1.814375 15.0925 -1.62875 14.185 -1.4375 13.25 C-1.03628804 10.26956829 -1.10628234 8.78045493 -2 6 C-2 5.34 -2 4.68 -2 4 C-1.34 4 -0.68 4 0 4 C0 2.68 0 1.36 0 0 Z M43 24 C42.67 24.66 42.34 25.32 42 26 C42.66 26 43.32 26 44 26 C43.67 25.34 43.34 24.68 43 24 Z M50 52 C54 53 54 53 54 53 Z " fill="#E1E1E1" transform="translate(162,336)"/>
<path d="M0 0 C4.3362417 0.72260833 4.3362417 0.72260833 8.375 -0.375 C14.53905267 -0.85845511 19.42935838 0.24948256 24.3125 4.1875 C25.375 5.625 25.375 5.625 25.375 7.625 C26.035 7.955 26.695 8.285 27.375 8.625 C27.045 9.285 26.715 9.945 26.375 10.625 C27.035 10.955 27.695 11.285 28.375 11.625 C28.045 11.955 27.715 12.285 27.375 12.625 C28.035 12.955 28.695 13.285 29.375 13.625 C29.375 14.285 29.375 14.945 29.375 15.625 C28.715 15.625 28.055 15.625 27.375 15.625 C27.45878906 16.21667969 27.54257812 16.80835938 27.62890625 17.41796875 C28.18389424 21.72439457 28.60726652 25.38052644 27.375 29.625 C28.035 29.955 28.695 30.285 29.375 30.625 C28.715 30.625 28.055 30.625 27.375 30.625 C28.035 32.605 28.695 34.585 29.375 36.625 C29.684375 35.67625 29.99375 34.7275 30.3125 33.75 C31.375 30.625 31.375 30.625 32.375 28.625 C33.365 28.625 34.355 28.625 35.375 28.625 C36.80444945 26.27061267 37.46161261 25.14467567 37 22.375 C36.79375 21.7975 36.5875 21.22 36.375 20.625 C37.1175 20.604375 37.86 20.58375 38.625 20.5625 C41.80291249 19.47912074 42.10251232 18.88025588 43.6875 16.0625 C44.244375 14.928125 44.80125 13.79375 45.375 12.625 C44.61574219 12.58761719 43.85648437 12.55023438 43.07421875 12.51171875 C42.08035156 12.44597656 41.08648437 12.38023437 40.0625 12.3125 C39.07636719 12.25449219 38.09023438 12.19648438 37.07421875 12.13671875 C34.08887922 11.57075713 33.0789721 11.1118782 31.375 8.625 C31.1875 4.9375 31.1875 4.9375 31.375 1.625 C34.22409606 0.67530131 36.01748748 0.49630538 38.97265625 0.4921875 C39.85630859 0.49089844 40.73996094 0.48960937 41.65039062 0.48828125 C42.57013672 0.49214844 43.48988281 0.49601562 44.4375 0.5 C45.36111328 0.49613281 46.28472656 0.49226563 47.23632812 0.48828125 C48.55987305 0.49021484 48.55987305 0.49021484 49.91015625 0.4921875 C50.718479 0.49331543 51.52680176 0.49444336 52.35961914 0.49560547 C54.375 0.625 54.375 0.625 56.375 1.625 C56.375 0.965 56.375 0.305 56.375 -0.375 C60.19597239 0.15569061 62.43671403 1.12201566 65.375 3.625 C64.11716149 7.39851553 61.9164548 9.58765158 59.375 12.625 C58.88 13.6459375 58.88 13.6459375 58.375 14.6875 C56.91652823 17.51328906 54.6144243 19.3855757 52.375 21.625 C51.818125 22.553125 51.26125 23.48125 50.6875 24.4375 C50.254375 25.159375 49.82125 25.88125 49.375 26.625 C48.715 26.625 48.055 26.625 47.375 26.625 C47.375 27.285 47.375 27.945 47.375 28.625 C50.69936886 29.73312295 52.83823528 29.5315204 56.3125 29.3125 C59.54296875 29.2734375 59.54296875 29.2734375 62.375 29.625 C65.43075189 32.7502008 66.375 34.26493526 66.375 38.625 C64.89 38.13 64.89 38.13 63.375 37.625 C63.375 38.285 63.375 38.945 63.375 39.625 C62.26640625 39.67398438 61.1578125 39.72296875 60.015625 39.7734375 C58.55205935 39.84849215 57.08851888 39.92403881 55.625 40 C54.89539063 40.0309375 54.16578125 40.061875 53.4140625 40.09375 C49.53847241 40.30514582 46.77329578 40.79881301 43.375 42.625 C42.385 42.295 41.395 41.965 40.375 41.625 C40.375 40.965 40.375 40.305 40.375 39.625 C39.48748047 39.73328125 39.48748047 39.73328125 38.58203125 39.84375 C31.77029412 40.64382353 31.77029412 40.64382353 28.75 40.5 C25.21101144 40.68626256 22.57116046 42.12092449 19.375 43.625 C19.045 42.635 18.715 41.645 18.375 40.625 C17.385 41.12 17.385 41.12 16.375 41.625 C15.24982439 34.87394632 14.69153732 28.35885072 16.375 21.625 C15.715 21.295 15.055 20.965 14.375 20.625 C14.560625 19.8825 14.74625 19.14 14.9375 18.375 C15.59552711 15.39659084 15.59552711 15.39659084 14.375 11.625 C11.075 11.625 7.775 11.625 4.375 11.625 C4.705 14.265 5.035 16.905 5.375 19.625 C4.715 19.625 4.055 19.625 3.375 19.625 C3.705 20.945 4.035 22.265 4.375 23.625 C3.715 23.625 3.055 23.625 2.375 23.625 C3.035 24.945 3.695 26.265 4.375 27.625 C3.715 27.625 3.055 27.625 2.375 27.625 C2.705 31.255 3.035 34.885 3.375 38.625 C2.385 39.285 1.395 39.945 0.375 40.625 C0.705 41.285 1.035 41.945 1.375 42.625 C-1.595 42.625 -4.565 42.625 -7.625 42.625 C-7.75777344 41.51640625 -7.89054687 40.4078125 -8.02734375 39.265625 C-8.20559757 37.8020673 -8.38399028 36.33852651 -8.5625 34.875 C-8.69301758 33.78058594 -8.69301758 33.78058594 -8.82617188 32.6640625 C-9.30876135 28.53626019 -9.30876135 28.53626019 -10.28344727 24.50683594 C-10.39615967 23.88583008 -10.50887207 23.26482422 -10.625 22.625 C-9.965 21.965 -9.305 21.305 -8.625 20.625 C-8.86364442 15.58994948 -8.86364442 15.58994948 -11.625 11.625 C-10.635 11.625 -9.645 11.625 -8.625 11.625 C-8.810625 11.0475 -8.99625 10.47 -9.1875 9.875 C-9.66523546 7.41807475 -9.38229364 5.98102466 -8.625 3.625 C-9.285 3.295 -9.945 2.965 -10.625 2.625 C-7.09557649 -0.76533293 -4.73635983 -0.56665253 0 0 Z M27.375 36.625 C28.375 38.625 28.375 38.625 28.375 38.625 Z " fill="#DFDFDF" transform="translate(271.625,348.375)"/>
<path d="M0 0 C2 2 2 2 2.25 4 C2.4975 4.66 2.745 5.32 3 6 C4.99117408 6.69258229 6.9921136 7.35747635 9 8 C12 11.2 12 11.2 12 14 C12.66 14 13.32 14 14 14 C14 14.99 14 15.98 14 17 C14.99 17.33 15.98 17.66 17 18 C16.67 19.32 16.34 20.64 16 22 C16.99 22 17.98 22 19 22 C18.85904936 23.6254308 18.71207913 25.25034051 18.5625 26.875 C18.48128906 27.77992188 18.40007812 28.68484375 18.31640625 29.6171875 C18 32 18 32 17 34 C16.34 34 15.68 34 15 34 C15.495 36.475 15.495 36.475 16 39 C15.1028125 39.2784375 15.1028125 39.2784375 14.1875 39.5625 C10.90018201 41.72273753 10.35145313 44.35107655 9 48 C7.68 48 6.36 48 5 48 C2.20159186 48.93419288 -0.50781917 50.02816679 -3.24609375 51.125 C-8.16600742 52.68820661 -11.30358535 52.10832136 -15.9375 50 C-19.80609821 48.35772512 -22.73597422 47.55115518 -27 48 C-27.33 47.34 -27.66 46.68 -28 46 C-27.01 45.505 -27.01 45.505 -26 45 C-26.99 44.67 -27.98 44.34 -29 44 C-29 43.01 -29 42.02 -29 41 C-29.66 40.34 -30.32 39.68 -31 39 C-30.67 38.34 -30.34 37.68 -30 37 C-31.65 36.67 -33.3 36.34 -35 36 C-34.34 35.34 -33.68 34.68 -33 34 C-33.66 32.35 -34.32 30.7 -35 29 C-34.34 29 -33.68 29 -33 29 C-32.67 26.69 -32.34 24.38 -32 22 C-32.66 22 -33.32 22 -34 22 C-34 21.34 -34 20.68 -34 20 C-33.01 20 -32.02 20 -31 20 C-31.2475 19.4225 -31.495 18.845 -31.75 18.25 C-31.8325 17.5075 -31.915 16.765 -32 16 C-30.0625 13.75 -30.0625 13.75 -28 12 C-28.33 11.01 -28.66 10.02 -29 9 C-28.154375 8.9175 -27.30875 8.835 -26.4375 8.75 C-23.45255762 8.09873984 -21.95616781 7.52445683 -19.4375 6 C-13.3931259 2.48327325 -7.82574941 2.88071506 -1 3 C-0.67 2.01 -0.34 1.02 0 0 Z M-32 34 C-31 36 -31 36 -31 36 Z " fill="#E9E9E9" transform="translate(273,160)"/>
<path d="M0 0 C0.556875 0.5775 1.11375 1.155 1.6875 1.75 C3.52534924 3.82193154 3.52534924 3.82193154 5.75 4.6875 C7.6875 5.75 7.6875 5.75 8.6875 8.75 C9.3475 9.41 10.0075 10.07 10.6875 10.75 C11.99644593 15.33131076 11.3747871 18.42532279 10.1015625 22.84765625 C9.55530006 25.35737144 9.92814352 27.32005926 10.6875 29.75 C9.6975 30.245 9.6975 30.245 8.6875 30.75 C9.95724972 35.16522109 9.95724972 35.16522109 12.6875 38.75 C12.06875 38.8325 11.45 38.915 10.8125 39 C8.50312433 39.56258459 8.50312433 39.56258459 7.4375 41.8125 C7.19 42.451875 6.9425 43.09125 6.6875 43.75 C2.17029689 44.11625971 2.17029689 44.11625971 -0.125 42.375 C-1.3125 40.75 -1.3125 40.75 -1.3125 38.75 C-2.9625 39.41 -4.6125 40.07 -6.3125 40.75 C-6.3125 41.41 -6.3125 42.07 -6.3125 42.75 C-11.90556069 44.80459372 -14.71943931 44.80459372 -20.3125 42.75 C-19.9825 42.09 -19.6525 41.43 -19.3125 40.75 C-20.09625 40.234375 -20.88 39.71875 -21.6875 39.1875 C-24.9638785 36.14514853 -25.63126241 34.1401978 -26.3125 29.75 C-25.38995488 25.13727438 -23.39981954 22.24896215 -20.3125 18.75 C-21.3025 18.42 -22.2925 18.09 -23.3125 17.75 C-23.85622951 14.69152152 -24.3125 11.86227195 -24.3125 8.75 C-23.02524093 7.04749607 -21.69118281 5.37935241 -20.3125 3.75 C-19.9825 3.09 -19.6525 2.43 -19.3125 1.75 C-17.2734375 1.40625 -17.2734375 1.40625 -14.6875 1.25 C-11.3864338 1.00477794 -8.55395954 0.61108558 -5.4375 -0.5 C-2.3125 -1.25 -2.3125 -1.25 0 0 Z M-10.3125 9.75 C-10.3125 10.08 -10.3125 10.41 -10.3125 10.75 C-8.6625 10.75 -7.0125 10.75 -5.3125 10.75 C-5.3125 10.42 -5.3125 10.09 -5.3125 9.75 C-6.9625 9.75 -8.6125 9.75 -10.3125 9.75 Z M-10.3125 11.75 C-9.9825 13.4 -9.6525 15.05 -9.3125 16.75 C-7.3325 16.75 -5.3525 16.75 -3.3125 16.75 C-2.9825 16.09 -2.6525 15.43 -2.3125 14.75 C-3.49773997 13.14585785 -3.49773997 13.14585785 -5.3125 11.75 C-7.93820704 11.49930087 -7.93820704 11.49930087 -10.3125 11.75 Z M-11.3125 13.75 C-10.3125 16.75 -10.3125 16.75 -10.3125 16.75 Z M-11.3125 24.75 C-11.3125 25.08 -11.3125 25.41 -11.3125 25.75 C-9.3325 25.75 -7.3525 25.75 -5.3125 25.75 C-5.3125 25.42 -5.3125 25.09 -5.3125 24.75 C-7.2925 24.75 -9.2725 24.75 -11.3125 24.75 Z M-5.3125 25.75 C-6.3025 26.08 -7.2925 26.41 -8.3125 26.75 C-9.3025 26.75 -10.2925 26.75 -11.3125 26.75 C-11.3125 27.41 -11.3125 28.07 -11.3125 28.75 C-12.3025 29.08 -13.2925 29.41 -14.3125 29.75 C-13.3225 31.235 -13.3225 31.235 -12.3125 32.75 C-8.57762223 32.2520163 -6.50012365 31.87508244 -3.3125 29.75 C-3.9725 28.43 -4.6325 27.11 -5.3125 25.75 Z M-15.3125 41.75 C-15.3125 42.08 -15.3125 42.41 -15.3125 42.75 C-13.6625 42.75 -12.0125 42.75 -10.3125 42.75 C-10.3125 42.42 -10.3125 42.09 -10.3125 41.75 C-11.9625 41.75 -13.6125 41.75 -15.3125 41.75 Z " fill="#E1E1E1" transform="translate(248.3125,347.25)"/>
<path d="M0 0 C2 2 2 2 2.25 4.3125 C1.98092002 7.20510975 1.20264159 9.36922151 0 12 C0.66 12.33 1.32 12.66 2 13 C2 14.32 2 15.64 2 17 C1.34 17 0.68 17 0 17 C0 19.31 0 21.62 0 24 C0.66 24 1.32 24 2 24 C1.9278125 24.58007812 1.855625 25.16015625 1.78125 25.7578125 C1.35475302 29.3474954 1 32.81732828 1 36.4375 C1 39 1 39 0 41 C0.66 41.33 1.32 41.66 2 42 C1.34 42 0.68 42 0 42 C0.34227572 44.97065509 0.34227572 44.97065509 1 48 C1.66 48.33 2.32 48.66 3 49 C2.67 49.99 2.34 50.98 2 52 C0.515 52.495 0.515 52.495 -1 53 C-1.33 53.66 -1.66 54.32 -2 55 C-4.97 54.67 -7.94 54.34 -11 54 C-11.22786458 52.01432292 -11.45572917 50.02864583 -11.68359375 48.04296875 C-11.97170735 45.80603607 -11.97170735 45.80603607 -13 43 C-12.505 42.505 -12.505 42.505 -12 42 C-12.144375 41.443125 -12.28875 40.88625 -12.4375 40.3125 C-13.12281987 37.49507385 -13.0656565 34.88888615 -13 32 C-12.34 32 -11.68 32 -11 32 C-11 31.34 -11 30.68 -11 30 C-11.66 30 -12.32 30 -13 30 C-13 29.34 -13 28.68 -13 28 C-12.34 28 -11.68 28 -11 28 C-11.144375 26.741875 -11.28875 25.48375 -11.4375 24.1875 C-11.51871094 23.47980469 -11.59992188 22.77210938 -11.68359375 22.04296875 C-11.97170735 19.80603607 -11.97170735 19.80603607 -13 17 C-12.67449498 15.33178677 -12.34153937 13.66500443 -12 12 C-12.33 11.34 -12.66 10.68 -13 10 C-13.13357453 6.32670036 -13.1671568 3.50147041 -12 0 C-7.74239209 -1.16116579 -4.30779205 -0.89407005 0 0 Z " fill="#DFDFDF" transform="translate(369,336)"/>
<path d="M0 0 C0.33 0.99 0.66 1.98 1 3 C1.99 3.33 2.98 3.66 4 4 C1.33333333 6.66666667 -1.33333333 9.33333333 -4 12 C-3.01 12 -2.02 12 -1 12 C0.19947064 17.41903698 1.13942439 22.42302436 1 28 C1.33 28.66 1.66 29.32 2 30 C1.34 30 0.68 30 0 30 C0.99 35.445 0.99 35.445 2 41 C1.34 41 0.68 41 0 41 C0 43.31 0 45.62 0 48 C0.99 48.33 1.98 48.66 3 49 C2.525625 49.4125 2.05125 49.825 1.5625 50.25 C-0.16266518 52.182185 -0.56584875 53.48192275 -1 56 C-7.75 55.125 -7.75 55.125 -10 54 C-10 53.34 -10 52.68 -10 52 C-10.66 51.67 -11.32 51.34 -12 51 C-11.67 48.69 -11.34 46.38 -11 44 C-11.66 43.67 -12.32 43.34 -13 43 C-13 41.68 -13 40.36 -13 39 C-12.34 39 -11.68 39 -11 39 C-11 32.73 -11 26.46 -11 20 C-11.66 20 -12.32 20 -13 20 C-13 18.68 -13 17.36 -13 16 C-12.34 16 -11.68 16 -11 16 C-11 15.01 -11 14.02 -11 13 C-10.34 13 -9.68 13 -9 13 C-9 12.34 -9 11.68 -9 11 C-8.34 10.67 -7.68 10.34 -7 10 C-8.65 8.68 -10.3 7.36 -12 6 C-11.25 0.25 -11.25 0.25 -9 -2 C-5.16960909 -3.71707179 -3.21367187 -2.4319679 0 0 Z " fill="#E2E2E2" transform="translate(351,336)"/>
<path d="M0 0 C0 0.33 0 0.66 0 1 C-2.31 1.33 -4.62 1.66 -7 2 C-3.04 2 0.92 2 5 2 C0.60171741 4.1991413 -2.18550592 4.51855059 -7 5 C-4.08235 6.9451 -2.37462715 7.45276317 1 8 C0.67 8.66 0.34 9.32 0 10 C-2.475 9.505 -2.475 9.505 -5 9 C-5.33 10.65 -5.66 12.3 -6 14 C-3.03 14.66 -0.06 15.32 3 16 C3.33 17.32 3.66 18.64 4 20 C0.92562104 23.87144017 -2.40808965 25.46936322 -7 27 C-9.35188447 26.40206327 -11.68925595 25.74118205 -14 25 C-13.67 24.34 -13.34 23.68 -13 23 C-13.78375 22.484375 -14.5675 21.96875 -15.375 21.4375 C-18.6513785 18.39514853 -19.31876241 16.3901978 -20 12 C-19.1505059 8.06143643 -17.91967418 4.81899576 -15 2 C-9.86256521 -0.01468031 -5.42080178 -0.19020357 0 0 Z M-9 24 C-9 24.33 -9 24.66 -9 25 C-7.35 25 -5.7 25 -4 25 C-4 24.67 -4 24.34 -4 24 C-5.65 24 -7.3 24 -9 24 Z " fill="#DEDEDE" transform="translate(242,365)"/>
<path d="M0 0 C0.33 0 0.66 0 1 0 C1.33 3.96 1.66 7.92 2 12 C2.33 9.03 2.66 6.06 3 3 C3.99 3.33 4.98 3.66 6 4 C6 4.66 6 5.32 6 6 C5.34 6 4.68 6 4 6 C4.08378906 6.59167969 4.16757812 7.18335938 4.25390625 7.79296875 C4.80889424 12.09939457 5.23226652 15.75552644 4 20 C4.66 20.33 5.32 20.66 6 21 C5.34 21 4.68 21 4 21 C4.66 22.98 5.32 24.96 6 27 C6.309375 26.05125 6.61875 25.1025 6.9375 24.125 C8 21 8 21 9 19 C9.99 19 10.98 19 12 19 C12.33 18.01 12.66 17.02 13 16 C16.0625 14.3125 16.0625 14.3125 19 13 C17.48660464 16.43953492 15.39216315 19.25355553 13.12109375 22.21875 C11.71903747 24.24127424 11.71903747 24.24127424 11 28 C19.91 28 28.82 28 38 28 C37.505 26.02 37.505 26.02 37 24 C31.06 24 25.12 24 19 24 C21 21 21 21 22.81591797 20.47241211 C25.16837936 20.26155092 27.51729538 20.07955263 29.875 19.9375 C30.69097656 19.85306641 31.50695312 19.76863281 32.34765625 19.68164062 C34.7118597 19.52929799 36.68486684 19.48925862 39 20 C41.84644975 23.11898218 43 24.75732554 43 29 C42.01 28.67 41.02 28.34 40 28 C40 28.66 40 29.32 40 30 C38.89140625 30.04898437 37.7828125 30.09796875 36.640625 30.1484375 C35.17705935 30.22349215 33.71351888 30.29903881 32.25 30.375 C31.52039063 30.4059375 30.79078125 30.436875 30.0390625 30.46875 C26.16347241 30.68014582 23.39829578 31.17381301 20 33 C18.515 32.505 18.515 32.505 17 32 C17 31.34 17 30.68 17 30 C16.40832031 30.0721875 15.81664062 30.144375 15.20703125 30.21875 C8.39529412 31.01882353 8.39529412 31.01882353 5.375 30.875 C1.83601144 31.06126256 -0.80383954 32.49592449 -4 34 C-4.495 32.515 -4.495 32.515 -5 31 C-5.66 31.33 -6.32 31.66 -7 32 C-7.33 29.69 -7.66 27.38 -8 25 C-7.01 25 -6.02 25 -5 25 C-4.67 24.01 -4.34 23.02 -4 22 C-4 23.98 -4 25.96 -4 28 C-2.68 27.67 -1.36 27.34 0 27 C0 18.09 0 9.18 0 0 Z M4 27 C5 29 5 29 5 29 Z " fill="#E9E9E9" transform="translate(295,358)"/>
<path d="M0 0 C0.99 0.33 1.98 0.66 3 1 C2.01 1.495 2.01 1.495 1 2 C1.99 2.66 2.98 3.32 4 4 C3.34 4 2.68 4 2 4 C2 15.22 2 26.44 2 38 C3.32 38 4.64 38 6 38 C6 31.07 6 24.14 6 17 C6.33 17 6.66 17 7 17 C7 22.61 7 28.22 7 34 C7.99 34.33 8.98 34.66 10 35 C9.625 37.4375 9.625 37.4375 9 40 C8.01 40.495 8.01 40.495 7 41 C7.33 41.66 7.66 42.32 8 43 C5.03 43 2.06 43 -1 43 C-1.13277344 41.89140625 -1.26554687 40.7828125 -1.40234375 39.640625 C-1.58059757 38.1770673 -1.75899028 36.71352651 -1.9375 35.25 C-2.06801758 34.15558594 -2.06801758 34.15558594 -2.20117188 33.0390625 C-2.68376135 28.91126019 -2.68376135 28.91126019 -3.65844727 24.88183594 C-3.77115967 24.26083008 -3.88387207 23.63982422 -4 23 C-3.34 22.34 -2.68 21.68 -2 21 C-2.23864442 15.96494948 -2.23864442 15.96494948 -5 12 C-4.01 12 -3.02 12 -2 12 C-2.185625 11.4225 -2.37125 10.845 -2.5625 10.25 C-3.04023546 7.79307475 -2.75729364 6.35602466 -2 4 C-2.66 3.67 -3.32 3.34 -4 3 C-2.1875 1.4375 -2.1875 1.4375 0 0 Z " fill="#E5E5E6" transform="translate(265,348)"/>
<path d="M0 0 C2.6781634 2.6781634 2.72119442 4.23612471 3 8 C2.56326282 10.06641387 1.99827135 12.06850418 1.4140625 14.09765625 C0.86780006 16.60737144 1.24064352 18.57005926 2 21 C1.34 21.33 0.68 21.66 0 22 C1.26974972 26.41522109 1.26974972 26.41522109 4 30 C3.071875 30.12375 3.071875 30.12375 2.125 30.25 C-0.18437567 30.81258459 -0.18437567 30.81258459 -1.25 33.0625 C-1.4975 33.701875 -1.745 34.34125 -2 35 C-3.65 35 -5.3 35 -7 35 C-7.33 32.69 -7.66 30.38 -8 28 C-7.67 28.66 -7.34 29.32 -7 30 C-5.35 30 -3.7 30 -2 30 C-2.33 20.43 -2.66 10.86 -3 1 C-2.01 0.67 -1.02 0.34 0 0 Z " fill="#DBDBDB" transform="translate(257,356)"/>
<path d="M0 0 C2.97 0.495 2.97 0.495 6 1 C5.01 1.495 5.01 1.495 4 2 C3.67 2.99 3.34 3.98 3 5 C2.01 5.495 2.01 5.495 1 6 C1 7.32 1 8.64 1 10 C1.55429688 9.67515625 2.10859375 9.3503125 2.6796875 9.015625 C5.33762294 7.85221891 7.23529847 7.73274805 10.125 7.75 C10.99382812 7.74484375 11.86265625 7.7396875 12.7578125 7.734375 C15 8 15 8 17 10 C16.67 10.99 16.34 11.98 16 13 C16 12.34 16 11.68 16 11 C13.69 10.67 11.38 10.34 9 10 C8.67 11.65 8.34 13.3 8 15 C7.01 15 6.02 15 5 15 C5 15.66 5 16.32 5 17 C2.31026772 17.74714785 0.48221402 18.1205535 -2.25 17.4375 C-4 16 -4 16 -4.75 13.0625 C-5.19415387 7.62161511 -4.51920565 6.15906122 -1 2 C-0.67 1.34 -0.34 0.68 0 0 Z " fill="#E1E1E2" transform="translate(229,349)"/>
<path d="M0 0 C1.98 0 3.96 0 6 0 C4.02 0.99 4.02 0.99 2 2 C2 12.89 2 23.78 2 35 C3.65 35 5.3 35 7 35 C7 35.33 7 35.66 7 36 C4.525 36.495 4.525 36.495 2 37 C3.98 37 5.96 37 8 37 C8 38.32 8 39.64 8 41 C1.25 40.125 1.25 40.125 -1 39 C-1 38.34 -1 37.68 -1 37 C-1.66 36.67 -2.32 36.34 -3 36 C-2.67 33.69 -2.34 31.38 -2 29 C-2.66 28.67 -3.32 28.34 -4 28 C-4 26.68 -4 25.36 -4 24 C-3.34 24 -2.68 24 -2 24 C-2 21.69 -2 19.38 -2 17 C-1.67 17 -1.34 17 -1 17 C-0.67 11.39 -0.34 5.78 0 0 Z " fill="#EAEAEA" transform="translate(342,351)"/>
<path d="M0 0 C0.99 0.33 1.98 0.66 3 1 C2.29875 1.4846875 1.5975 1.969375 0.875 2.46875 C-9.14636175 9.54905993 -16.01818713 16.27464763 -22 27 C-22.66 27.99 -23.32 28.98 -24 30 C-24.66 30 -25.32 30 -26 30 C-25.835 29.401875 -25.67 28.80375 -25.5 28.1875 C-24.8885876 25.88655664 -24.8885876 25.88655664 -25 23 C-24.34 22.34 -23.68 21.68 -23 21 C-22.30251417 19.68252676 -21.63040043 18.35085807 -21 17 C-20.01 17 -19.02 17 -18 17 C-18 15.68 -18 14.36 -18 13 C-17.34 12.67 -16.68 12.34 -16 12 C-15.67 11.01 -15.34 10.02 -15 9 C-14.01 9 -13.02 9 -12 9 C-11.7525 8.360625 -11.505 7.72125 -11.25 7.0625 C-10 5 -10 5 -8.25 4.5 C-7.5075 4.335 -6.765 4.17 -6 4 C-4.4840625 2.948125 -4.4840625 2.948125 -2.9375 1.875 C-1.968125 1.25625 -0.99875 0.6375 0 0 Z " fill="#E1E1E0" transform="translate(230,130)"/>
<path d="M0 0 C0.66 0 1.32 0 2 0 C2.46148437 0.98097656 2.92296875 1.96195313 3.3984375 2.97265625 C8.16791758 12.90824678 13.67630152 21.98095462 20 31 C16.79604584 31 14.90600261 30.25664978 12 29 C12.33 28.01 12.66 27.02 13 26 C11.98151813 23.4923076 11.98151813 23.4923076 10.375 20.9375 C9.86710938 20.05964844 9.35921875 19.18179688 8.8359375 18.27734375 C6.74443252 15.68298757 5.15102692 14.95176069 2 14 C2.226875 13.46375 2.45375 12.9275 2.6875 12.375 C3.13704769 8.95843758 1.56428205 7.00342153 0 4 C0 2.68 0 1.36 0 0 Z " fill="#DFDFDF" transform="translate(202,207)"/>
<path d="M0 0 C0.66 0.33 1.32 0.66 2 1 C1.67 17.83 1.34 34.66 1 52 C0.01 51.67 -0.98 51.34 -2 51 C-1.34 51 -0.68 51 0 51 C-0.66 49.35 -1.32 47.7 -2 46 C-1.34 46 -0.68 46 0 46 C-0.14168137 44.56208484 -0.28851043 43.1246763 -0.4375 41.6875 C-0.51871094 40.88699219 -0.59992188 40.08648437 -0.68359375 39.26171875 C-0.95265693 36.83912821 -0.95265693 36.83912821 -2 34 C-1.34 34 -0.68 34 0 34 C0 33.34 0 32.68 0 32 C-0.66 32 -1.32 32 -2 32 C-2 30.35 -2 28.7 -2 27 C-1.67 27 -1.34 27 -1 27 C-0.73067479 22.34947128 -0.73067479 22.34947128 -2 18 C-1.34 18 -0.68 18 0 18 C0 17.34 0 16.68 0 16 C-0.66 16 -1.32 16 -2 16 C-1.814375 15.0925 -1.62875 14.185 -1.4375 13.25 C-1.03628804 10.26956829 -1.10628234 8.78045493 -2 6 C-2 5.34 -2 4.68 -2 4 C-1.34 4 -0.68 4 0 4 C0 2.68 0 1.36 0 0 Z " fill="#F3F3F3" transform="translate(162,336)"/>
<path d="M0 0 C1.485 0.99 1.485 0.99 3 2 C3.51579638 5.8168932 2.58076658 8.54207311 1 12 C1.66 12.33 2.32 12.66 3 13 C3 14.32 3 15.64 3 17 C2.34 17 1.68 17 1 17 C1 19.31 1 21.62 1 24 C1.66 24 2.32 24 3 24 C2.9278125 24.58007812 2.855625 25.16015625 2.78125 25.7578125 C2.35475302 29.3474954 2 32.81732828 2 36.4375 C2 39 2 39 1 41 C1.66 41.33 2.32 41.66 3 42 C2.34 42 1.68 42 1 42 C1.34227572 44.97065509 1.34227572 44.97065509 2 48 C2.66 48.33 3.32 48.66 4 49 C3.67 49.99 3.34 50.98 3 52 C2.01 52 1.02 52 0 52 C0 34.84 0 17.68 0 0 Z " fill="#F9F9F9" transform="translate(368,336)"/>
<path d="M0 0 C4.29 0 8.58 0 13 0 C13.66 1.32 14.32 2.64 15 4 C15.66 4.66 16.32 5.32 17 6 C16.34 7.32 15.68 8.64 15 10 C14.34 10 13.68 10 13 10 C13.33 11.65 13.66 13.3 14 15 C11.78652044 12.78652044 11.37704116 11.35465721 10.375 8.4375 C9.44251875 5.99412426 9.44251875 5.99412426 8 4 C5.12899246 2.855997 3.15645249 2.94739246 0 3 C0 2.01 0 1.02 0 0 Z " fill="#EBEAEA" transform="translate(164,336)"/>
<path d="M0 0 C0.66 0 1.32 0 2 0 C2 0.66 2 1.32 2 2 C2.66 2 3.32 2 4 2 C4.0269501 4.93756119 4.04681474 7.87487555 4.0625 10.8125 C4.07087891 11.64587891 4.07925781 12.47925781 4.08789062 13.33789062 C4.09111328 14.14033203 4.09433594 14.94277344 4.09765625 15.76953125 C4.10289307 16.50792236 4.10812988 17.24631348 4.11352539 18.00708008 C4 20 4 20 3 23 C2.34 23 1.68 23 1 23 C-0.28571429 14.57142857 -0.28571429 14.57142857 1 10 C0.34 9.67 -0.32 9.34 -1 9 C-0.835 8.2575 -0.67 7.515 -0.5 6.75 C0.11925696 3.80993422 0.11925696 3.80993422 0 0 Z " fill="#D9D9D9" transform="translate(287,360)"/>
<path d="M0 0 C0.33 0 0.66 0 1 0 C1 10.89 1 21.78 1 33 C3.64 33 6.28 33 9 33 C9 33.99 9 34.98 9 36 C6.5 37.6875 6.5 37.6875 4 39 C4 38.34 4 37.68 4 37 C2.02 36.34 0.04 35.68 -2 35 C-1.01 34.505 -1.01 34.505 0 34 C0 23.77 0 13.54 0 3 C-0.66 2.67 -1.32 2.34 -2 2 C-1.34 2 -0.68 2 0 2 C0 1.34 0 0.68 0 0 Z M4 35 C8 36 8 36 8 36 Z " fill="#EDEDED" transform="translate(208,353)"/>
<path d="M0 0 C0.66 0 1.32 0 2 0 C1 3 0 6 -1 9 C-1.66 9 -2.32 9 -3 9 C-3.28875 9.78375 -3.5775 10.5675 -3.875 11.375 C-5 14 -5 14 -7 16 C-6.67 16.66 -6.34 17.32 -6 18 C-6.99 18.33 -7.98 18.66 -9 19 C-8.67 19.66 -8.34 20.32 -8 21 C-8.66 21.99 -9.32 22.98 -10 24 C-11.32 24 -12.64 24 -14 24 C-12.33994727 19.18961992 -9.71778563 15.13804089 -7 10.875 C-6.54882812 10.15957031 -6.09765625 9.44414062 -5.6328125 8.70703125 C-3.78522047 5.78258825 -1.91895637 2.87843455 0 0 Z " fill="#DEDEDE" transform="translate(323,214)"/>
<path d="M0 0 C0.66 0.33 1.32 0.66 2 1 C2 2.65 2 4.3 2 6 C1.34 6 0.68 6 0 6 C1.26974972 10.41522109 1.26974972 10.41522109 4 14 C3.071875 14.12375 3.071875 14.12375 2.125 14.25 C-0.18437567 14.81258459 -0.18437567 14.81258459 -1.25 17.0625 C-1.4975 17.701875 -1.745 18.34125 -2 19 C-3.65 19 -5.3 19 -7 19 C-7.33 16.69 -7.66 14.38 -8 12 C-7.67 12.66 -7.34 13.32 -7 14 C-5.35 14 -3.7 14 -2 14 C-2.02320313 13.40832031 -2.04640625 12.81664062 -2.0703125 12.20703125 C-2.17411464 7.66198041 -2.13708357 4.14059941 0 0 Z " fill="#EDEDED" transform="translate(257,372)"/>
<path d="M0 0 C4.1758527 1.17195275 6.97357669 2.12974832 9.89453125 5.4296875 C7.58203125 6.0546875 7.58203125 6.0546875 4.89453125 6.4296875 C2.89453125 5.09635417 0.89453125 3.76302083 -1.10546875 2.4296875 C-1.76546875 2.4296875 -2.42546875 2.4296875 -3.10546875 2.4296875 C-3.10546875 3.0896875 -3.10546875 3.7496875 -3.10546875 4.4296875 C-4.42546875 4.4296875 -5.74546875 4.4296875 -7.10546875 4.4296875 C-7.10546875 3.4396875 -7.10546875 2.4496875 -7.10546875 1.4296875 C-11.72546875 1.4296875 -16.34546875 1.4296875 -21.10546875 1.4296875 C-15.41002319 -2.36727621 -6.57768631 -1.20797761 0 0 Z " fill="#DEDEDE" transform="translate(275.10546875,145.5703125)"/>
<path d="M0 0 C1.69066658 2.6205332 2 3.82629722 2 7 C-0.475 6.505 -0.475 6.505 -3 6 C-3.33 4.68 -3.66 3.36 -4 2 C-9.94 2 -15.88 2 -22 2 C-21.34 1.01 -20.68 0.02 -20 -1 C-17.30189216 -1.4417781 -14.83805654 -1.69485419 -12.125 -1.8125 C-11.40441406 -1.86341797 -10.68382812 -1.91433594 -9.94140625 -1.96679688 C-6.11874665 -2.17447359 -3.17549899 -2.29078285 0 0 Z " fill="#F3F2F3" transform="translate(336,380)"/>
<path d="M0 0 C2.97 0 5.94 0 9 0 C9 0.33 9 0.66 9 1 C6.69 1 4.38 1 2 1 C2 11.56 2 22.12 2 33 C1.67 33 1.34 33 1 33 C0.30962574 23.97582223 -0.15178302 15.05638678 0 6 C-0.66 6 -1.32 6 -2 6 C-2 4.68 -2 3.36 -2 2 C-1.34 2 -0.68 2 0 2 C0 1.34 0 0.68 0 0 Z " fill="#DADADA" transform="translate(340,350)"/>
<path d="M0 0 C0.66 0.33 1.32 0.66 2 1 C1.83757812 1.55945313 1.67515625 2.11890625 1.5078125 2.6953125 C0.19895103 8.63552994 0.75676211 15.09462004 2 21 C-0.31 20.34 -2.62 19.68 -5 19 C-4.34 18.34 -3.68 17.68 -3 17 C-3.66 15.35 -4.32 13.7 -5 12 C-4.34 12 -3.68 12 -3 12 C-2.67 9.69 -2.34 7.38 -2 5 C-2.66 5 -3.32 5 -4 5 C-4 4.34 -4 3.68 -4 3 C-3.01 3 -2.02 3 -1 3 C-0.67 2.01 -0.34 1.02 0 0 Z M-2 17 C-1 19 -1 19 -1 19 Z " fill="#DFE0E0" transform="translate(243,177)"/>
<path d="M0 0 C0.33 0 0.66 0 1 0 C1.06058594 1.02480469 1.12117188 2.04960937 1.18359375 3.10546875 C1.26805026 4.46615695 1.35269567 5.82683343 1.4375 7.1875 C1.47681641 7.86103516 1.51613281 8.53457031 1.55664062 9.22851562 C1.78927565 12.89699102 2.17207011 16.41694206 3 20 C5.31 20 7.62 20 10 20 C10 21.32 10 22.64 10 24 C3.25 23.125 3.25 23.125 1 22 C1 21.34 1 20.68 1 20 C0.34 19.67 -0.32 19.34 -1 19 C-0.67 16.69 -0.34 14.38 0 12 C-0.66 11.67 -1.32 11.34 -2 11 C-2 9.68 -2 8.36 -2 7 C-1.34 7 -0.68 7 0 7 C0 4.69 0 2.38 0 0 Z " fill="#EAEAEA" transform="translate(340,368)"/>
<path d="M0 0 C0.66 0 1.32 0 2 0 C2.268125 1.134375 2.53625 2.26875 2.8125 3.4375 C3.204375 4.613125 3.59625 5.78875 4 7 C4.99 7.33 5.98 7.66 7 8 C7.94921875 10.1796875 7.94921875 10.1796875 8.6875 12.875 C9.06455078 14.20144531 9.06455078 14.20144531 9.44921875 15.5546875 C10 18 10 18 10 21 C9.01 20.67 8.02 20.34 7 20 C5.95590957 17.67359006 5.10309582 15.47250358 4.3125 13.0625 C4.08755859 12.41603516 3.86261719 11.76957031 3.63085938 11.10351562 C2 6.32990597 2 6.32990597 2 4 C1.34 4 0.68 4 0 4 C0 2.68 0 1.36 0 0 Z " fill="#D9D9D9" transform="translate(171,352)"/>
<path d="M0 0 C-1 3 -1 3 -3.328125 4.16796875 C-4.29234375 4.50441406 -5.2565625 4.84085938 -6.25 5.1875 C-7.20390625 5.53167969 -8.1578125 5.87585938 -9.140625 6.23046875 C-14.22698116 7.59933783 -17.50215502 7.05241386 -22.3125 5 C-23.19550781 4.62875 -24.07851562 4.2575 -24.98828125 3.875 C-25.65214844 3.58625 -26.31601563 3.2975 -27 3 C-27 2.34 -27 1.68 -27 1 C-26.071875 1.33 -25.14375 1.66 -24.1875 2 C-14.59011117 4.7059575 -8.5752118 0 0 0 Z " fill="#DBDADB" transform="translate(279,205)"/>
<path d="M0 0 C0.66 0 1.32 0 2 0 C3.07427471 3.22282413 3.1332963 5.61511153 3.125 9 C3.12886719 10.5778125 3.12886719 10.5778125 3.1328125 12.1875 C3 15 3 15 2 18 C1.34 18 0.68 18 0 18 C0 12.06 0 6.12 0 0 Z " fill="#DEDEDF" transform="translate(329,177)"/>
<path d="M0 0 C0.33 0 0.66 0 1 0 C1 1.98 1 3.96 1 6 C0.67 6 0.34 6 0 6 C0 4.02 0 2.04 0 0 Z M-10 2 C-9.34 2.66 -8.68 3.32 -8 4 C-4.41656024 4.16677282 -4.41656024 4.16677282 -1 4 C-0.67 4.99 -0.34 5.98 0 7 C-2.35777583 9.35777583 -7.05797223 8.97374139 -10.2421875 9.0625 C-12.1615714 9.0625 -14.08091141 9.03366822 -16 9 C-15.01 8.34 -14.02 7.68 -13 7 C-10.7763932 5.0745356 -10.7763932 5.0745356 -10 2 Z " fill="#EDEEEE" transform="translate(248,359)"/>
<path d="M0 0 C5.94 0 11.88 0 18 0 C14 4 14 4 11.0546875 4.27734375 C10.00539063 4.16519531 8.95609375 4.05304688 7.875 3.9375 C6.82054687 3.84339844 5.76609375 3.74929688 4.6796875 3.65234375 C2 3 2 3 0 0 Z " fill="#FBFAFB" transform="translate(304,357)"/>
<path d="M0 0 C0.99 0.33 1.98 0.66 3 1 C3 1.99 3 2.98 3 4 C2.01 4 1.02 4 0 4 C0 4.66 0 5.32 0 6 C-2.91482778 6.80967438 -4.46113217 7.21845993 -7.3125 6.0625 C-7.869375 5.711875 -8.42625 5.36125 -9 5 C-8.67 4.01 -8.34 3.02 -8 2 C-5.05610218 0.82244087 -4.10046087 0.96651304 -1 2 C-0.67 1.34 -0.34 0.68 0 0 Z " fill="#FCFCFC" transform="translate(234,360)"/>
<path d="M0 0 C0.66 0 1.32 0 2 0 C5.42857143 8.42857143 5.42857143 8.42857143 5 13 C3.68 13.33 2.36 13.66 1 14 C0.67 12.35 0.34 10.7 0 9 C0.66 9 1.32 9 2 9 C1.34 6.03 0.68 3.06 0 0 Z " fill="#E0E0E0" transform="translate(302,170)"/>
<path d="M0 0 C4.75 1.875 4.75 1.875 7 3 C7 3.66 7 4.32 7 5 C8.32 4.67 9.64 4.34 11 4 C11 5.32 11 6.64 11 8 C11.66 8.66 12.32 9.32 13 10 C12.67 10.99 12.34 11.98 12 13 C9.99698146 11.0238076 7.99750133 9.04425526 6 7.0625 C5.42765625 6.49853516 4.8553125 5.93457031 4.265625 5.35351562 C2.82474495 3.92121224 1.41012857 2.46258871 0 1 C0 0.67 0 0.34 0 0 Z " fill="#E1E1E1" transform="translate(305,135)"/>
<path d="M0 0 C0.69738281 0.00451172 1.39476562 0.00902344 2.11328125 0.01367188 C3.82555803 0.0253998 5.53779033 0.04333347 7.25 0.0625 C6.92 1.0525 6.59 2.0425 6.25 3.0625 C-0.68 3.0625 -7.61 3.0625 -14.75 3.0625 C-9.88805073 -0.17879951 -5.73341492 -0.07044839 0 0 Z " fill="#E0E0E0" transform="translate(268.75,119.9375)"/>
<path d="M0 0 C0.66 0.33 1.32 0.66 2 1 C1.45859375 1.81404297 1.45859375 1.81404297 0.90625 2.64453125 C0.4421875 3.35996094 -0.021875 4.07539063 -0.5 4.8125 C-0.9640625 5.52019531 -1.428125 6.22789062 -1.90625 6.95703125 C-3.23599375 9.05458124 -3.23599375 9.05458124 -3 12 C-3.99 12.33 -4.98 12.66 -6 13 C-7.37195574 14.29355827 -8.71182656 15.62298702 -10 17 C-9.42000976 12.73970809 -6.87612107 9.64838465 -4.4375 6.25 C-4.01275391 5.64800781 -3.58800781 5.04601562 -3.15039062 4.42578125 C-2.10564478 2.94670286 -1.05353984 1.47282741 0 0 Z " fill="#D4D5D5" transform="translate(294,257)"/>
<path d="M0 0 C2.42130331 3.63195496 2.21022785 5.38349348 2.125 9.6875 C2.10695313 10.86699219 2.08890625 12.04648437 2.0703125 13.26171875 C2.03550781 14.61716797 2.03550781 14.61716797 2 16 C1.34 16.33 0.68 16.66 0 17 C0 16.01 0 15.02 0 14 C-0.66 14 -1.32 14 -2 14 C-2 13.34 -2 12.68 -2 12 C-1.34 12 -0.68 12 0 12 C-0.144375 10.741875 -0.28875 9.48375 -0.4375 8.1875 C-0.51871094 7.47980469 -0.59992188 6.77210938 -0.68359375 6.04296875 C-0.97170735 3.80603607 -0.97170735 3.80603607 -2 1 C-1.34 0.67 -0.68 0.34 0 0 Z " fill="#D7D7D7" transform="translate(358,352)"/>
<path d="M0 0 C0.66 0.33 1.32 0.66 2 1 C1.67 2.65 1.34 4.3 1 6 C0.01 6.33 -0.98 6.66 -2 7 C-3.66589237 8.85811713 -3.66589237 8.85811713 -5.1875 11.0625 C-5.71730469 11.79597656 -6.24710937 12.52945313 -6.79296875 13.28515625 C-7.19128906 13.85105469 -7.58960938 14.41695312 -8 15 C-8.33 14.01 -8.66 13.02 -9 12 C-7.59166619 9.8037049 -6.18346343 7.83930111 -4.5625 5.8125 C-4.12873047 5.25369141 -3.69496094 4.69488281 -3.24804688 4.11914062 C-2.17453547 2.73891168 -1.0884306 1.36849461 0 0 Z " fill="#DCDCDC" transform="translate(307,239)"/>
<path d="M0 0 C0.89589844 -0.01417969 1.79179687 -0.02835937 2.71484375 -0.04296875 C5.0625 0.1875 5.0625 0.1875 7.0625 2.1875 C6.7325 3.1775 6.4025 4.1675 6.0625 5.1875 C6.0625 4.5275 6.0625 3.8675 6.0625 3.1875 C3.7525 2.8575 1.4425 2.5275 -0.9375 2.1875 C-1.2675 2.8475 -1.5975 3.5075 -1.9375 4.1875 C-2.5975 3.8575 -3.2575 3.5275 -3.9375 3.1875 C-4.2675 3.8475 -4.5975 4.5075 -4.9375 5.1875 C-7.2475 4.8575 -9.5575 4.5275 -11.9375 4.1875 C-11.9375 3.8575 -11.9375 3.5275 -11.9375 3.1875 C-10.4834375 2.7234375 -10.4834375 2.7234375 -9 2.25 C-2.5677999 0.01842037 -2.5677999 0.01842037 0 0 Z " fill="#D6D6D6" transform="translate(238.9375,356.8125)"/>
<path d="M0 0 C1.65 1.32 3.3 2.64 5 4 C3.71349294 4.69710731 2.42059335 5.38242876 1.125 6.0625 C0.40570313 6.44535156 -0.31359375 6.82820312 -1.0546875 7.22265625 C-1.69664062 7.47917969 -2.33859375 7.73570312 -3 8 C-3.66 7.67 -4.32 7.34 -5 7 C-6.32860925 6.64830932 -7.66158328 6.31229724 -9 6 C-9 5.34 -9 4.68 -9 4 C-7.88625 3.896875 -6.7725 3.79375 -5.625 3.6875 C-4.42875 3.460625 -3.2325 3.23375 -2 3 C-1.34 2.01 -0.68 1.02 0 0 Z " fill="#EEEEEE" transform="translate(237,124)"/>
<path d="M0 0 C2.66248083 2.66248083 2.71832705 4.26783345 3 8 C2.0625 11.875 2.0625 11.875 1 15 C0.67 15 0.34 15 0 15 C-1.125 9.25 -1.125 9.25 0 7 C-0.89363605 4.39068734 -0.89363605 4.39068734 -2 2 C-1.34 1.34 -0.68 0.68 0 0 Z " fill="#FDFDFD" transform="translate(257,356)"/>
<path d="M0 0 C0 0.66 0 1.32 0 2 C0.99 2.33 1.98 2.66 3 3 C0.23735711 3.59732819 -2.16032769 4 -5 4 C-7.0360882 5.27754554 -9.04109119 6.60699818 -11 8 C-11.66 7.67 -12.32 7.34 -13 7 C-11.70982586 6.01886757 -10.41780894 5.04015801 -9.125 4.0625 C-8.04605469 3.24458984 -8.04605469 3.24458984 -6.9453125 2.41015625 C-4.29417837 0.48835018 -3.35056938 0 0 0 Z " fill="#DFDFDF" transform="translate(250,148)"/>
<path d="M0 0 C3.82097239 0.53069061 6.06171403 1.49701566 9 4 C8.67 4.99 8.34 5.98 8 7 C7.01 7 6.02 7 5 7 C4.67 6.01 4.34 5.02 4 4 C1.03 3.505 1.03 3.505 -2 3 C-1.34 2.67 -0.68 2.34 0 2 C0 1.34 0 0.68 0 0 Z " fill="#E6E6E6" transform="translate(328,348)"/>
<path d="M0 0 C0.66 0 1.32 0 2 0 C3.5078125 1.96875 3.5078125 1.96875 5.125 4.5 C5.66382813 5.3353125 6.20265625 6.170625 6.7578125 7.03125 C7.16773438 7.6809375 7.57765625 8.330625 8 9 C4.41954683 9 3.70316905 8.19632485 1 6 C0.01 5.34 -0.98 4.68 -2 4 C-1.01 4 -0.02 4 1 4 C0.67 2.68 0.34 1.36 0 0 Z " fill="#DDDDDD" transform="translate(240,266)"/>
<path d="M0 0 C0.33 0 0.66 0 1 0 C1 1.98 1 3.96 1 6 C2.65 6 4.3 6 6 6 C6 6.33 6 6.66 6 7 C5.05125 7.12375 4.1025 7.2475 3.125 7.375 C-0.08667191 7.71687177 -0.08667191 7.71687177 -2 10 C-2.33 7.69 -2.66 5.38 -3 3 C-2.01 3 -1.02 3 0 3 C0 2.01 0 1.02 0 0 Z " fill="#EEEEEE" transform="translate(290,380)"/>
<path d="M0 0 C3.71368887 1.23789629 4.77354181 2.85224877 7 6 C7 6.66 7 7.32 7 8 C6.34 8 5.68 8 5 8 C5 8.66 5 9.32 5 10 C4.34 10 3.68 10 3 10 C2.01 6.7 1.02 3.4 0 0 Z " fill="#DEDEDE" transform="translate(324,160)"/>
<path d="M0 0 C1.32 0.33 2.64 0.66 4 1 C3.67 1.66 3.34 2.32 3 3 C3.99 3 4.98 3 6 3 C6 3.66 6 4.32 6 5 C2.7 5 -0.6 5 -4 5 C-3.34 4.67 -2.68 4.34 -2 4 C-2 3.34 -2 2.68 -2 2 C-1.34 1.67 -0.68 1.34 0 1 C0 0.67 0 0.34 0 0 Z " fill="#FDFDFD" transform="translate(344,345)"/>
<path d="M0 0 C-0.33 5.61 -0.66 11.22 -1 17 C-1.33 17 -1.66 17 -2 17 C-2.06058594 16.18015625 -2.12117188 15.3603125 -2.18359375 14.515625 C-2.26738281 13.43796875 -2.35117187 12.3603125 -2.4375 11.25 C-2.51871094 10.18265625 -2.59992188 9.1153125 -2.68359375 8.015625 C-2.94090773 5.56320038 -3.31812218 3.36078709 -4 1 C-2 0 -2 0 0 0 Z " fill="#FCFCFC" transform="translate(265,370)"/>
<path d="M0 0 C1.98 0.99 1.98 0.99 4 2 C3.34 2 2.68 2 2 2 C2 5.3 2 8.6 2 12 C1.01 12.495 1.01 12.495 0 13 C0 8.71 0 4.42 0 0 Z " fill="#DADADB" transform="translate(296,358)"/>
<path d="M0 0 C2.97 0 5.94 0 9 0 C9 1.32 9 2.64 9 4 C2.25 3.125 2.25 3.125 0 2 C0 1.34 0 0.68 0 0 Z " fill="#FEFEFE" transform="translate(341,388)"/>
<path d="M0 0 C0.495 0.309375 0.99 0.61875 1.5 0.9375 C4.97986781 2.41644382 8.24028509 2.62402851 12 3 C12 3.66 12 4.32 12 5 C4.63366337 5.49108911 4.63366337 5.49108911 1.5 3.0625 C0 1 0 1 0 0 Z " fill="#DEDEDE" transform="translate(257,290)"/>
<path d="M0 0 C0.66 0 1.32 0 2 0 C1 3 0 6 -1 9 C-3.0625 9.6875 -3.0625 9.6875 -5 10 C-3.66749209 6.4124787 -2.169283 3.1635377 0 0 Z " fill="#D5D5D5" transform="translate(323,214)"/>
<path d="M0 0 C0.66 1.98 1.32 3.96 2 6 C1.01 6.33 0.02 6.66 -1 7 C-1 5.35 -1 3.7 -1 2 C-3.31 2 -5.62 2 -8 2 C-4.77208445 -0.1519437 -3.71599191 -0.20086443 0 0 Z " fill="#D3D4D4" transform="translate(273,349)"/>
<path d="M0 0 C0.66 0 1.32 0 2 0 C2.33 1.98 2.66 3.96 3 6 C2.01 6 1.02 6 0 6 C0 6.66 0 7.32 0 8 C-0.66 8 -1.32 8 -2 8 C-1.125 2.25 -1.125 2.25 0 0 Z " fill="#E2E2E2" transform="translate(226,170)"/>
<path d="M0 0 C1.32 1.65 2.64 3.3 4 5 C3.34 5 2.68 5 2 5 C2 6.98 2 8.96 2 11 C1.34 11 0.68 11 0 11 C0 7.37 0 3.74 0 0 Z " fill="#D5D5D6" transform="translate(272,371)"/>
<path d="M0 0 C0.66 0.33 1.32 0.66 2 1 C-1.42388092 4.82669043 -4.00724943 6.72278474 -9 8 C-6.14723863 5.06799526 -3.34920216 2.35684596 0 0 Z " fill="#D9D9D9" transform="translate(292,215)"/>
<path d="M0 0 C3.98175544 2.10148204 6.35039045 4.36905358 9 8 C6 8 6 8 4.39453125 6.7578125 C3.87246094 6.21898437 3.35039062 5.68015625 2.8125 5.125 C2.28269531 4.59132812 1.75289063 4.05765625 1.20703125 3.5078125 C0 2 0 2 0 0 Z " fill="#D5D4D4" transform="translate(290,154)"/>
<path d="M0 0 C0.99 0.33 1.98 0.66 3 1 C3.33 2.65 3.66 4.3 4 6 C4.99 6.33 5.98 6.66 7 7 C6.34 7 5.68 7 5 7 C5 7.66 5 8.32 5 9 C4.34 9 3.68 9 3 9 C2.01 6.03 1.02 3.06 0 0 Z " fill="#D7D7D7" transform="translate(180,353)"/>
<path d="M0 0 C3.29148243 1.13499394 3.9959869 1.99283376 5.75 5.125 C6.1625 6.07375 6.575 7.0225 7 8 C4.69 7.34 2.38 6.68 0 6 C0.66 5.67 1.32 5.34 2 5 C1.34 3.35 0.68 1.7 0 0 Z " fill="#D8D8D8" transform="translate(248,278)"/>
<path d="M0 0 C3.33557632 2.9905167 5.15083921 5.93184627 7 10 C3.64501065 8.61172854 1.84949545 7.14414226 0 4 C0 2.68 0 1.36 0 0 Z " fill="#D2D2D3" transform="translate(230,250)"/>
<path d="M0 0 C0.66 0 1.32 0 2 0 C0.6062718 4.43458973 -1.60582235 6.87378374 -5 10 C-4.38479725 6.00118212 -2.39731331 3.19641774 0 0 Z " fill="#D3D4D4" transform="translate(301,204)"/>
<path d="M0 0 C0.66 0 1.32 0 2 0 C2.99 2.97 3.98 5.94 5 9 C2 8 2 8 0.8125 6.1875 C0 4 0 4 0 0 Z " fill="#D8D8D8" transform="translate(202,207)"/>
<path d="M0 0 C2.64 0.33 5.28 0.66 8 1 C7.67 1.66 7.34 2.32 7 3 C5.35 2.67 3.7 2.34 2 2 C2 2.66 2 3.32 2 4 C0.68 4.33 -0.64 4.66 -2 5 C-1.34 3.35 -0.68 1.7 0 0 Z " fill="#FBFBFB" transform="translate(235,372)"/>
<path d="M0 0 C0.99 0.33 1.98 0.66 3 1 C2.67 2.32 2.34 3.64 2 5 C1.01 5 0.02 5 -1 5 C-1.66 6.32 -2.32 7.64 -3 9 C-2.44271087 5.65626525 -1.64826111 2.96687001 0 0 Z " fill="#E7E7E7" transform="translate(203,356)"/>
<path d="M0 0 C1.98 0 3.96 0 6 0 C6.33 0.99 6.66 1.98 7 3 C7.66 3.33 8.32 3.66 9 4 C9 4.66 9 5.32 9 6 C5.06326356 4.68775452 2.77280706 3.08089673 0 0 Z " fill="#E0E1E1" transform="translate(237,217)"/>
<path d="M0 0 C0.66 0 1.32 0 2 0 C1.67 2.64 1.34 5.28 1 8 C-0.32 7.67 -1.64 7.34 -3 7 C-3 6.01 -3 5.02 -3 4 C-2.01 4 -1.02 4 0 4 C0 2.68 0 1.36 0 0 Z " fill="#DAD9DA" transform="translate(305,190)"/>
<path d="M0 0 C2.4375 0.8125 2.4375 0.8125 5 2 C5.33 2.99 5.66 3.98 6 5 C6.66 5 7.32 5 8 5 C8 5.99 8 6.98 8 8 C4.65001479 6.88333826 4.20659778 6.25305075 2.3125 3.4375 C1.87550781 2.79683594 1.43851562 2.15617188 0.98828125 1.49609375 C0.49908203 0.75552734 0.49908203 0.75552734 0 0 Z " fill="#DEDEDF" transform="translate(279,169)"/>
<path d="M0 0 C-0.66 2.31 -1.32 4.62 -2 7 C-3.32 6.67 -4.64 6.34 -6 6 C-6 4 -6 4 -4.125 1.875 C-2 0 -2 0 0 0 Z " fill="#E0E0DF" transform="translate(205,161)"/>
<path d="M0 0 C2.475 0.495 2.475 0.495 5 1 C5.33 1.99 5.66 2.98 6 4 C5.34 4 4.68 4 4 4 C3.67 5.32 3.34 6.64 3 8 C0 2.25 0 2.25 0 0 Z " fill="#DCDCDC" transform="translate(173,337)"/>
<path d="M0 0 C6.15234375 0.5859375 6.15234375 0.5859375 8 1 C8.33 1.66 8.66 2.32 9 3 C6.03 3 3.06 3 0 3 C0 2.01 0 1.02 0 0 Z " fill="#FEFEFE" transform="translate(264,388)"/>
<path d="M0 0 C2.64 0.33 5.28 0.66 8 1 C8.33 1.99 8.66 2.98 9 4 C5.625 3.6875 5.625 3.6875 2 3 C1.34 2.01 0.68 1.02 0 0 Z " fill="#FDFDFE" transform="translate(163,388)"/>
<path d="M0 0 C1.32 0.33 2.64 0.66 4 1 C1.69 3.64 -0.62 6.28 -3 9 C-3 5.30581799 -1.71820705 3.22163822 0 0 Z " fill="#E7E7E7" transform="translate(321,358)"/>
<path d="M0 0 C0.66 0 1.32 0 2 0 C2 1.98 2 3.96 2 6 C0.68 6 -0.64 6 -2 6 C-1.49396008 3.83125748 -1.00016187 2.00032373 0 0 Z " fill="#FDFDFD" transform="translate(204,362)"/>
<path d="M0 0 C6.0546875 -0.1953125 6.0546875 -0.1953125 8 0 C8.66 0.66 9.32 1.32 10 2 C9.67 2.99 9.34 3.98 9 5 C9 4.34 9 3.68 9 3 C6.69 2.67 4.38 2.34 2 2 C1.67 2.66 1.34 3.32 1 4 C0.67 2.68 0.34 1.36 0 0 Z " fill="#FBFBFB" transform="translate(236,357)"/>
<path d="M0 0 C-1 3 -1 3 -3.375 4.1875 C-6 5 -6 5 -9 5 C-9 4.34 -9 3.68 -9 3 C-2.25 0 -2.25 0 0 0 Z " fill="#E1E1E0" transform="translate(279,205)"/>
<path d="M0 0 C0.66 0 1.32 0 2 0 C1.67 2.97 1.34 5.94 1 9 C0.34 8.67 -0.32 8.34 -1 8 C-1.125 2.25 -1.125 2.25 0 0 Z " fill="#D3D4D3" transform="translate(200,170)"/>
<path d="M0 0 C0.99 0.33 1.98 0.66 3 1 C-1.455 3.97 -1.455 3.97 -6 7 C-6 6.01 -6 5.02 -6 4 C-3.1875 1.75 -3.1875 1.75 0 0 Z " fill="#D0D0D0" transform="translate(230,130)"/>
<path d="M0 0 C0.66 0 1.32 0 2 0 C2.226875 0.639375 2.45375 1.27875 2.6875 1.9375 C3.85250896 4.27193661 3.85250896 4.27193661 6.625 4.75 C7.40875 4.8325 8.1925 4.915 9 5 C9 5.33 9 5.66 9 6 C6.69 6 4.38 6 2 6 C1.34 4.02 0.68 2.04 0 0 Z " fill="#D4D3D3" transform="translate(183,382)"/>
<path d="M0 0 C0 3.99904969 -1.72586967 5.80200422 -4 9 C-4.66 8.34 -5.32 7.68 -6 7 C-4.02 4.69 -2.04 2.38 0 0 Z " fill="#D7D7D7" transform="translate(320,359)"/>
<path d="M0 0 C1 2 1 2 1 5 C0.67 5.99 0.34 6.98 0 8 C-0.99 8 -1.98 8 -3 8 C-2.45276317 4.62537285 -1.9451 2.91765 0 0 Z " fill="#E4E4E4" transform="translate(329,357)"/>
<path d="M0 0 C0.66 0.99 1.32 1.98 2 3 C0.79618552 5.49361571 -0.45428722 7.68143083 -2 10 C-2.66 9.67 -3.32 9.34 -4 9 C-3.2884375 7.88625 -3.2884375 7.88625 -2.5625 6.75 C-1.22130673 4.38949985 -0.487688 2.63351523 0 0 Z " fill="#CBCBCC" transform="translate(332,352)"/>
<path d="M0 0 C0.66 0 1.32 0 2 0 C2.33 2.64 2.66 5.28 3 8 C2.01 8.495 2.01 8.495 1 9 C-0.4783226 6.04335481 -0.06032783 3.25770263 0 0 Z " fill="#FCFCFC" transform="translate(356,339)"/>
<path d="M0 0 C1 2 2 4 3 6 C0.03 5.505 0.03 5.505 -3 5 C-3 3.68 -3 2.36 -3 1 C-2.01 0.67 -1.02 0.34 0 0 Z " fill="#EBEBEB" transform="translate(342,337)"/>
<path d="M0 0 C1.65 1.65 3.3 3.3 5 5 C4.01 5 3.02 5 2 5 C1.67 5.66 1.34 6.32 1 7 C0.01 6.01 -0.98 5.02 -2 4 C-1.34 3.34 -0.68 2.68 0 2 C0 1.34 0 0.68 0 0 Z " fill="#F1F1F1" transform="translate(246,219)"/>
<path d="M0 0 C0.99 0 1.98 0 3 0 C2.67 3.3 2.34 6.6 2 10 C1.34 10 0.68 10 0 10 C0 6.7 0 3.4 0 0 Z " fill="#FBFBFB" transform="translate(289,182)"/>
<path d="M0 0 C2.64 0 5.28 0 8 0 C7.01 1.485 7.01 1.485 6 3 C3.375 3.1875 3.375 3.1875 1 3 C0.67 2.01 0.34 1.02 0 0 Z " fill="#FEFEFE" transform="translate(249,388)"/>
<path d="M0 0 C0.99 0.33 1.98 0.66 3 1 C2.34 1.66 1.68 2.32 1 3 C0.67 3.99 0.34 4.98 0 6 C-0.66 6 -1.32 6 -2 6 C-2 5.34 -2 4.68 -2 4 C-2.66 3.67 -3.32 3.34 -4 3 C-2.1875 1.4375 -2.1875 1.4375 0 0 Z " fill="#F1F1F1" transform="translate(265,348)"/>
<path d="M0 0 C2.97 0 5.94 0 9 0 C5.77208445 2.1519437 4.71599191 2.20086443 1 2 C0.67 1.34 0.34 0.68 0 0 Z " fill="#FEFEFE" transform="translate(318,347)"/>
<path d="M0 0 C0 0.66 0 1.32 0 2 C-1.65 2 -3.3 2 -5 2 C-2 0 -2 0 0 0 Z " fill="#FEFEFE" transform="translate(333,389)"/>
<path d="M0 0 C0.66 0 1.32 0 2 0 C2.33 0.99 2.66 1.98 3 3 C1.68 2.34 0.36 1.68 -1 1 C-0.67 0.67 -0.34 0.34 0 0 Z " fill="#FEFEFE" transform="translate(276,345)"/>
<path d="M0 0 C1.32 0.33 2.64 0.66 4 1 C2.68 1.33 1.36 1.66 0 2 C0 1.34 0 0.68 0 0 Z " fill="#FEFEFE" transform="translate(270,211)"/>
<path d="M0 0 C1.32 0 2.64 0 4 0 C4 0.66 4 1.32 4 2 C2.68 1.34 1.36 0.68 0 0 Z " fill="#FEFEFE" transform="translate(252,211)"/>
<path d="M0 0 C0.99 0 1.98 0 3 0 C3 0.66 3 1.32 3 2 C2.01 1.67 1.02 1.34 0 1 C0 0.67 0 0.34 0 0 Z " fill="#FEFEFE" transform="translate(302,390)"/>
<path d="M0 0 C1.65 0 3.3 0 5 0 C5 0.33 5 0.66 5 1 C3.35 1 1.7 1 0 1 C0 0.67 0 0.34 0 0 Z " fill="#FEFEFE" transform="translate(326,377)"/>
<path d="M0 0 C0.99 0.33 1.98 0.66 3 1 C2.01 1.33 1.02 1.66 0 2 C0 1.34 0 0.68 0 0 Z " fill="#FEFEFE" transform="translate(269,346)"/>
<path d="M0 0 C0.99 0.495 0.99 0.495 2 1 C2 1.66 2 2.32 2 3 C1.34 3 0.68 3 0 3 C0 2.01 0 1.02 0 0 Z " fill="#FEFEFE" transform="translate(275,211)"/>
<path d="M0 0 C0.99 0.33 1.98 0.66 3 1 C2.01 1.33 1.02 1.66 0 2 C0 1.34 0 0.68 0 0 Z " fill="#FEFEFE" transform="translate(198,206)"/>
<path d="M0 0 C1.65 0 3.3 0 5 0 C5 0.33 5 0.66 5 1 C3.35 1 1.7 1 0 1 C0 0.67 0 0.34 0 0 Z " fill="#FEFEFE" transform="translate(252,120)"/>
<path d="M0 0 C4 1 4 1 4 1 Z " fill="#FEFEFE" transform="translate(324,389)"/>
<path d="M0 0 C0.66 0.33 1.32 0.66 2 1 C1.01 1 0.02 1 -1 1 C-0.67 0.67 -0.34 0.34 0 0 Z " fill="#FEFEFE" transform="translate(323,373)"/>
<path d="M0 0 C0.66 0 1.32 0 2 0 C1.67 0.99 1.34 1.98 1 3 C0.67 2.01 0.34 1.02 0 0 Z " fill="#FEFEFE" transform="translate(355,357)"/>
<path d="M0 0 C4 1 4 1 4 1 Z " fill="#FEFEFE" transform="translate(311,348)"/>
<path d="M0 0 C0.99 0.33 1.98 0.66 3 1 C2.01 1 1.02 1 0 1 C0 0.67 0 0.34 0 0 Z " fill="#FEFEFE" transform="translate(289,344)"/>
<path d="M0 0 C0.99 0.495 0.99 0.495 2 1 C1.67 1.66 1.34 2.32 1 3 C0.67 2.01 0.34 1.02 0 0 Z " fill="#FEFEFE" transform="translate(212,230)"/>
<path d="M0 0 C0.66 0 1.32 0 2 0 C2 0.66 2 1.32 2 2 C1.34 2 0.68 2 0 2 C0 1.34 0 0.68 0 0 Z " fill="#FEFEFE" transform="translate(282,219)"/>
<path d="M0 0 C0.99 0.33 1.98 0.66 3 1 C2.01 1 1.02 1 0 1 C0 0.67 0 0.34 0 0 Z " fill="#FEFEFE" transform="translate(258,150)"/>
<path d="M0 0 C4 1 4 1 4 1 Z " fill="#FEFEFE" transform="translate(255,148)"/>
<path d="M0 0 C0.66 0 1.32 0 2 0 C2 0.66 2 1.32 2 2 C1.34 2 0.68 2 0 2 C0 1.34 0 0.68 0 0 Z " fill="#FEFEFE" transform="translate(212,137)"/>
<path d="M0 0 C0.66 0.66 1.32 1.32 2 2 C1.34 2 0.68 2 0 2 C0 1.34 0 0.68 0 0 Z " fill="#FEFEFE" transform="translate(242,390)"/>
<path d="M0 0 C3 1 3 1 3 1 Z " fill="#FEFEFE" transform="translate(308,389)"/>
<path d="M0 0 C0.66 0 1.32 0 2 0 C1.67 0.66 1.34 1.32 1 2 C0.67 1.34 0.34 0.68 0 0 Z " fill="#FEFEFE" transform="translate(207,389)"/>
<path d="M0 0 C0.33 0.66 0.66 1.32 1 2 C0.34 1.67 -0.32 1.34 -1 1 C-0.67 0.67 -0.34 0.34 0 0 Z " fill="#FEFEFE" transform="translate(261,386)"/>
<path d="M0 0 C3 1 3 1 3 1 Z " fill="#FEFEFE" transform="translate(241,376)"/>
<path d="M0 0 C0.66 0 1.32 0 2 0 C1.67 0.66 1.34 1.32 1 2 C0.67 1.34 0.34 0.68 0 0 Z " fill="#FEFEFE" transform="translate(220,375)"/>
<path d="M0 0 C3 1 3 1 3 1 Z " fill="#FEFEFE" transform="translate(174,369)"/>
<path d="M0 0 C0.66 0.66 1.32 1.32 2 2 C1.34 2 0.68 2 0 2 C0 1.34 0 0.68 0 0 Z " fill="#FEFEFE" transform="translate(288,346)"/>
<path d="M0 0 C0.33 0.66 0.66 1.32 1 2 C0.34 1.67 -0.32 1.34 -1 1 C-0.67 0.67 -0.34 0.34 0 0 Z " fill="#FEFEFE" transform="translate(237,346)"/>
<path d="M0 0 C0.66 0.66 1.32 1.32 2 2 C1.34 2 0.68 2 0 2 C0 1.34 0 0.68 0 0 Z " fill="#FEFEFE" transform="translate(342,331)"/>
<path d="M0 0 C0.33 0.66 0.66 1.32 1 2 C0.34 1.67 -0.32 1.34 -1 1 C-0.67 0.67 -0.34 0.34 0 0 Z " fill="#FEFEFE" transform="translate(229,254)"/>
<path d="M0 0 C3 1 3 1 3 1 Z " fill="#FEFEFE" transform="translate(271,214)"/>
<path d="M0 0 C3 1 3 1 3 1 Z " fill="#FEFEFE" transform="translate(234,209)"/>
<path d="M0 0 C0.66 0 1.32 0 2 0 C1.67 0.66 1.34 1.32 1 2 C0.67 1.34 0.34 0.68 0 0 Z " fill="#FEFEFE" transform="translate(238,176)"/>
<path d="M0 0 C3 1 3 1 3 1 Z " fill="#FEFEFE" transform="translate(294,166)"/>
<path d="M0 0 C3 1 3 1 3 1 Z " fill="#FEFEFE" transform="translate(262,161)"/>
<path d="M0 0 C0.66 0 1.32 0 2 0 C1.67 0.66 1.34 1.32 1 2 C0.67 1.34 0.34 0.68 0 0 Z " fill="#FEFEFE" transform="translate(275,160)"/>
<path d="M0 0 C0.66 0 1.32 0 2 0 C1.67 0.66 1.34 1.32 1 2 C0.67 1.34 0.34 0.68 0 0 Z " fill="#FEFEFE" transform="translate(284,121)"/>
<path d="M0 0 C3 1 3 1 3 1 Z " fill="#FEFEFE" transform="translate(247,121)"/>
<path d="M0 0 C2 1 2 1 2 1 Z " fill="#FEFEFE" transform="translate(288,391)"/>
<path d="M0 0 C2 1 2 1 2 1 Z " fill="#FEFEFE" transform="translate(184,391)"/>
<path d="M0 0 C2 1 2 1 2 1 Z " fill="#FEFEFE" transform="translate(299,390)"/>
<path d="M0 0 C2 1 2 1 2 1 Z " fill="#FEFEFE" transform="translate(245,389)"/>
<path d="M0 0 C2 1 2 1 2 1 Z " fill="#FFFFFF" transform="translate(284,386)"/>
<path d="M0 0 C2 1 2 1 2 1 Z " fill="#FEFEFE" transform="translate(180,385)"/>
<path d="M0 0 C2 1 2 1 2 1 Z " fill="#FFFFFF" transform="translate(180,383)"/>
<path d="M0 0 C2 1 2 1 2 1 Z " fill="#FEFEFE" transform="translate(202,379)"/>
<path d="M0 0 C2 1 2 1 2 1 Z " fill="#FEFEFE" transform="translate(200,375)"/>
<path d="" fill="#FFFFFF" transform="translate(0,0)"/>
<path d="M0 0 C2 1 2 1 2 1 Z " fill="#FEFEFE" transform="translate(220,371)"/>
<path d="M0 0 C2 1 2 1 2 1 Z " fill="#FEFEFE" transform="translate(331,367)"/>
<path d="M0 0 C2 1 2 1 2 1 Z " fill="#FDFDFD" transform="translate(243,362)"/>
<path d="M0 0 C2 1 2 1 2 1 Z " fill="#FEFEFE" transform="translate(221,359)"/>
<path d="M0 0 C2 1 2 1 2 1 Z " fill="#FEFEFE" transform="translate(300,356)"/>
<path d="M0 0 C2 1 2 1 2 1 Z " fill="#FEFEFE" transform="translate(220,355)"/>
<path d="M0 0 C2 1 2 1 2 1 Z " fill="#FEFEFE" transform="translate(353,354)"/>
<path d="M0 0 C2 1 2 1 2 1 Z " fill="#FEFEFE" transform="translate(220,353)"/>
<path d="M0 0 C2 1 2 1 2 1 Z " fill="#FEFEFE" transform="translate(350,347)"/>
<path d="M0 0 C2 1 2 1 2 1 Z " fill="#FEFEFE" transform="translate(291,347)"/>
<path d="M0 0 C2 1 2 1 2 1 Z " fill="#FEFEFE" transform="translate(302,346)"/>
<path d="M0 0 C2 1 2 1 2 1 Z " fill="#FEFEFE" transform="translate(282,346)"/>
<path d="M0 0 C2 1 2 1 2 1 Z " fill="#FEFEFE" transform="translate(262,346)"/>
<path d="M0 0 C2 1 2 1 2 1 Z " fill="#FEFEFE" transform="translate(304,345)"/>
<path d="M0 0 C2 1 2 1 2 1 Z " fill="#FEFEFE" transform="translate(285,344)"/>
<path d="M0 0 C2 1 2 1 2 1 Z " fill="#FEFEFE" transform="translate(353,343)"/>
<path d="M0 0 C2 1 2 1 2 1 Z " fill="#FEFEFE" transform="translate(255,295)"/>
<path d="M0 0 C2 1 2 1 2 1 Z " fill="#FEFEFE" transform="translate(280,287)"/>
<path d="M0 0 C2 1 2 1 2 1 Z " fill="#FEFEFE" transform="translate(288,270)"/>
<path d="M0 0 C2 1 2 1 2 1 Z " fill="#FEFEFE" transform="translate(296,263)"/>
<path d="M0 0 C2 1 2 1 2 1 Z " fill="#FEFEFE" transform="translate(295,260)"/>
<path d="M0 0 C2 1 2 1 2 1 Z " fill="#FEFEFE" transform="translate(215,238)"/>
<path d="" fill="#FFFFFF" transform="translate(0,0)"/>
<path d="M0 0 C2 1 2 1 2 1 Z " fill="#FEFEFE" transform="translate(261,213)"/>
<path d="M0 0 C2 1 2 1 2 1 Z " fill="#FDFDFD" transform="translate(265,212)"/>
<path d="M0 0 C2 1 2 1 2 1 Z " fill="#FEFEFE" transform="translate(257,211)"/>
<path d="M0 0 C2 1 2 1 2 1 Z " fill="#FEFEFE" transform="translate(196,205)"/>
<path d="M0 0 C2 1 2 1 2 1 Z " fill="#FFFFFF" transform="translate(237,185)"/>
<path d="M0 0 C2 1 2 1 2 1 Z " fill="#FEFEFE" transform="translate(237,178)"/>
<path d="M0 0 C2 1 2 1 2 1 Z " fill="#FEFEFE" transform="translate(254,163)"/>
<path d="M0 0 C2 1 2 1 2 1 Z " fill="#FEFEFE" transform="translate(329,161)"/>
<path d="M0 0 C2 1 2 1 2 1 Z " fill="#FEFEFE" transform="translate(243,155)"/>
<path d="M0 0 C2 1 2 1 2 1 Z " fill="#FEFEFE" transform="translate(275,151)"/>
<path d="M0 0 C2 1 2 1 2 1 Z " fill="#FEFEFE" transform="translate(275,149)"/>
<path d="M0 0 C2 1 2 1 2 1 Z " fill="#FEFEFE" transform="translate(253,149)"/>
<path d="M0 0 C2 1 2 1 2 1 Z " fill="#FEFEFE" transform="translate(260,148)"/>
<path d="M0 0 C2 1 2 1 2 1 Z " fill="#FEFEFE" transform="translate(278,120)"/>
<path d="" fill="#FEFEFE" transform="translate(0,0)"/>
<path d="" fill="#FEFEFE" transform="translate(0,0)"/>
<path d="" fill="#FEFEFE" transform="translate(0,0)"/>
<path d="" fill="#FFFFFF" transform="translate(0,0)"/>
<path d="" fill="#FFFFFF" transform="translate(0,0)"/>
<path d="" fill="#FEFEFE" transform="translate(0,0)"/>
<path d="" fill="#FEFEFE" transform="translate(0,0)"/>
<path d="" fill="#FEFEFE" transform="translate(0,0)"/>
<path d="" fill="#FEFEFE" transform="translate(0,0)"/>
<path d="" fill="#FFFFFF" transform="translate(0,0)"/>
<path d="" fill="#FEFEFE" transform="translate(0,0)"/>
<path d="" fill="#FEFEFE" transform="translate(0,0)"/>
<path d="" fill="#FFFFFF" transform="translate(0,0)"/>
<path d="" fill="#FFFFFF" transform="translate(0,0)"/>
<path d="" fill="#FFFFFF" transform="translate(0,0)"/>
<path d="" fill="#FFFFFF" transform="translate(0,0)"/>
<path d="" fill="#FFFFFF" transform="translate(0,0)"/>
<path d="" fill="#FFFFFF" transform="translate(0,0)"/>
<path d="" fill="#FFFFFF" transform="translate(0,0)"/>
<path d="" fill="#FFFFFF" transform="translate(0,0)"/>
<path d="" fill="#FFFFFF" transform="translate(0,0)"/>
<path d="" fill="#FFFFFF" transform="translate(0,0)"/>
<path d="" fill="#FFFFFF" transform="translate(0,0)"/>
<path d="" fill="#FFFFFF" transform="translate(0,0)"/>
<path d="" fill="#FFFFFF" transform="translate(0,0)"/>
<path d="" fill="#FFFFFF" transform="translate(0,0)"/>
<path d="" fill="#FFFFFF" transform="translate(0,0)"/>
<path d="" fill="#FFFFFF" transform="translate(0,0)"/>
<path d="" fill="#FFFFFF" transform="translate(0,0)"/>
<path d="" fill="#FFFFFF" transform="translate(0,0)"/>
<path d="" fill="#FFFFFF" transform="translate(0,0)"/>
<path d="" fill="#FFFFFF" transform="translate(0,0)"/>
<path d="" fill="#FFFFFF" transform="translate(0,0)"/>
<path d="" fill="#FFFFFF" transform="translate(0,0)"/>
<path d="" fill="#FFFFFF" transform="translate(0,0)"/>
<path d="" fill="#FFFFFF" transform="translate(0,0)"/>
<path d="" fill="#FFFFFF" transform="translate(0,0)"/>
<path d="" fill="#FFFFFF" transform="translate(0,0)"/>
<path d="" fill="#FFFFFF" transform="translate(0,0)"/>
<path d="" fill="#FFFFFF" transform="translate(0,0)"/>
<path d="" fill="#FFFFFF" transform="translate(0,0)"/>
<path d="" fill="#FFFFFF" transform="translate(0,0)"/>
<path d="" fill="#FFFFFF" transform="translate(0,0)"/>
<path d="" fill="#FFFFFF" transform="translate(0,0)"/>
<path d="" fill="#FFFFFF" transform="translate(0,0)"/>
<path d="" fill="#FFFFFF" transform="translate(0,0)"/>
<path d="" fill="#FFFFFF" transform="translate(0,0)"/>
<path d="" fill="#FFFFFF" transform="translate(0,0)"/>
<path d="" fill="#FFFFFF" transform="translate(0,0)"/>
<path d="" fill="#FFFFFF" transform="translate(0,0)"/>
<path d="" fill="#FFFFFF" transform="translate(0,0)"/>
<path d="" fill="#FFFFFF" transform="translate(0,0)"/>
<path d="" fill="#FFFFFF" transform="translate(0,0)"/>
<path d="" fill="#FFFFFF" transform="translate(0,0)"/>
<path d="" fill="#FFFFFF" transform="translate(0,0)"/>
<path d="" fill="#FFFFFF" transform="translate(0,0)"/>
<path d="" fill="#FFFFFF" transform="translate(0,0)"/>
<path d="" fill="#FFFFFF" transform="translate(0,0)"/>
<path d="" fill="#FFFFFF" transform="translate(0,0)"/>
<path d="" fill="#FFFFFF" transform="translate(0,0)"/>
<path d="" fill="#FFFFFF" transform="translate(0,0)"/>
<path d="" fill="#FFFFFF" transform="translate(0,0)"/>
<path d="" fill="#FFFFFF" transform="translate(0,0)"/>
<path d="" fill="#FFFFFF" transform="translate(0,0)"/>
<path d="" fill="#FFFFFF" transform="translate(0,0)"/>
<path d="" fill="#FFFFFF" transform="translate(0,0)"/>
<path d="" fill="#FFFFFF" transform="translate(0,0)"/>
<path d="" fill="#FFFFFF" transform="translate(0,0)"/>
<path d="" fill="#FFFFFF" transform="translate(0,0)"/>
<path d="" fill="#FFFFFF" transform="translate(0,0)"/>
<path d="" fill="#FFFFFF" transform="translate(0,0)"/>
<path d="" fill="#FFFFFF" transform="translate(0,0)"/>
<path d="" fill="#FFFFFF" transform="translate(0,0)"/>
<path d="" fill="#FFFFFF" transform="translate(0,0)"/>
<path d="" fill="#FFFFFF" transform="translate(0,0)"/>
<path d="" fill="#FFFFFF" transform="translate(0,0)"/>
<path d="" fill="#FFFFFF" transform="translate(0,0)"/>
<path d="" fill="#FEFEFE" transform="translate(0,0)"/>
<path d="" fill="#FFFFFF" transform="translate(0,0)"/>
<path d="" fill="#FFFFFF" transform="translate(0,0)"/>
<path d="" fill="#FFFFFF" transform="translate(0,0)"/>
<path d="" fill="#FFFFFF" transform="translate(0,0)"/>
<path d="" fill="#FFFFFF" transform="translate(0,0)"/>
<path d="" fill="#FFFFFF" transform="translate(0,0)"/>
<path d="" fill="#FFFFFF" transform="translate(0,0)"/>
<path d="" fill="#FFFFFF" transform="translate(0,0)"/>
<path d="" fill="#FFFFFF" transform="translate(0,0)"/>
<path d="" fill="#FFFFFF" transform="translate(0,0)"/>
<path d="" fill="#FFFFFF" transform="translate(0,0)"/>
<path d="" fill="#FFFFFF" transform="translate(0,0)"/>
<path d="" fill="#FFFFFF" transform="translate(0,0)"/>
<path d="" fill="#FFFFFF" transform="translate(0,0)"/>
<path d="" fill="#FFFFFF" transform="translate(0,0)"/>
<path d="" fill="#FFFFFF" transform="translate(0,0)"/>
<path d="" fill="#FFFFFF" transform="translate(0,0)"/>
<path d="" fill="#FFFFFF" transform="translate(0,0)"/>
<path d="" fill="#FFFFFF" transform="translate(0,0)"/>
<path d="" fill="#FFFFFF" transform="translate(0,0)"/>
<path d="" fill="#FFFFFF" transform="translate(0,0)"/>
<path d="" fill="#FFFFFF" transform="translate(0,0)"/>
<path d="" fill="#FFFFFF" transform="translate(0,0)"/>
<path d="" fill="#FFFFFF" transform="translate(0,0)"/>
<path d="" fill="#FFFFFF" transform="translate(0,0)"/>
<path d="" fill="#FFFFFF" transform="translate(0,0)"/>
<path d="" fill="#FFFFFF" transform="translate(0,0)"/>
<path d="" fill="#FFFFFF" transform="translate(0,0)"/>
<path d="" fill="#FFFFFF" transform="translate(0,0)"/>
<path d="" fill="#FFFFFF" transform="translate(0,0)"/>
<path d="" fill="#FFFFFF" transform="translate(0,0)"/>
<path d="" fill="#FFFFFF" transform="translate(0,0)"/>
<path d="" fill="#FFFFFF" transform="translate(0,0)"/>
<path d="" fill="#FFFFFF" transform="translate(0,0)"/>
<path d="" fill="#FFFFFF" transform="translate(0,0)"/>
<path d="" fill="#FFFFFF" transform="translate(0,0)"/>
<path d="" fill="#FFFFFF" transform="translate(0,0)"/>
<path d="" fill="#FFFFFF" transform="translate(0,0)"/>
<path d="" fill="#FFFFFF" transform="translate(0,0)"/>
<path d="" fill="#FFFFFF" transform="translate(0,0)"/>
<path d="" fill="#FFFFFF" transform="translate(0,0)"/>
<path d="" fill="#FFFFFF" transform="translate(0,0)"/>
<path d="" fill="#FFFFFF" transform="translate(0,0)"/>
<path d="" fill="#FFFFFF" transform="translate(0,0)"/>
<path d="" fill="#FFFFFF" transform="translate(0,0)"/>
<path d="" fill="#FFFFFF" transform="translate(0,0)"/>
<path d="" fill="#FFFFFF" transform="translate(0,0)"/>
<path d="" fill="#FFFFFF" transform="translate(0,0)"/>
<path d="" fill="#FFFFFF" transform="translate(0,0)"/>
<path d="" fill="#FFFFFF" transform="translate(0,0)"/>
<path d="" fill="#FFFFFF" transform="translate(0,0)"/>
<path d="" fill="#FFFFFF" transform="translate(0,0)"/>
<path d="" fill="#FFFFFF" transform="translate(0,0)"/>
<path d="" fill="#FFFFFF" transform="translate(0,0)"/>
<path d="" fill="#FFFFFF" transform="translate(0,0)"/>
<path d="" fill="#FFFFFF" transform="translate(0,0)"/>
<path d="" fill="#FEFEFE" transform="translate(0,0)"/>
<path d="" fill="#FEFEFE" transform="translate(0,0)"/>
</svg>
