<?xml version="1.0" encoding="UTF-8"?>
<svg version="1.1" xmlns="http://www.w3.org/2000/svg" width="532" height="532">
<path d="M0 0 C0.495 0.99 0.495 0.99 1 2 C1.99 1.67 2.98 1.34 4 1 C5.37201752 0.90393222 6.74815162 0.86090059 8.12350464 0.85282898 C9.38097504 0.84209602 9.38097504 0.84209602 10.66384888 0.83114624 C11.58028168 0.82845734 12.49671448 0.82576843 13.44091797 0.82299805 C14.40868164 0.81642685 15.37644531 0.80985565 16.37353516 0.80308533 C19.57975337 0.78335553 22.7859248 0.77169173 25.9921875 0.76171875 C27.08645176 0.75764322 28.18071602 0.7535677 29.3081398 0.74936867 C35.09751446 0.72851144 40.88686543 0.71420698 46.67626953 0.70483398 C52.66089253 0.69375737 58.64514496 0.65934179 64.62963676 0.61966228 C69.2278412 0.59354506 73.82595658 0.5851466 78.42422867 0.58155251 C80.63066237 0.57667558 82.83709181 0.56503031 85.04345322 0.54651451 C88.12936758 0.52222284 91.2143127 0.52306981 94.30029297 0.5300293 C95.66886948 0.51081421 95.66886948 0.51081421 97.06509399 0.49121094 C102.38708474 0.53499883 105.09064136 1.06367098 109 5 C109.99 5.66 110.98 6.32 112 7 C112 7.66 112 8.32 112 9 C112.99 9.33 113.98 9.66 115 10 C116.33203125 11.35546875 116.33203125 11.35546875 117.8125 13.1875 C124.28219055 20.83475735 131.64437499 27.69366071 138.76171875 34.73046875 C148.11780286 44.21717882 148.14450397 53.81796183 148.125 66.6875 C148.09993426 70.12536274 148.0591329 73.56255927 148 77 C148.66 77.33 149.32 77.66 150 78 C149.34 78 148.68 78 148 78 C148.0721875 78.8559375 148.144375 79.711875 148.21875 80.59375 C149.76693665 102.09634233 149.15104291 123.75337266 148.68060303 145.29168701 C148.6439174 146.99609862 148.60988391 148.70056966 148.57867432 150.40509033 C148.09326694 175.9738765 148.09326694 175.9738765 140.58203125 183.40234375 C134.95648717 188.3915795 130.14438383 189.29803547 122.81225586 189.31884766 C121.58906096 189.33390335 121.58906096 189.33390335 120.34115505 189.34926319 C117.63239163 189.38018962 114.92372831 189.39718606 112.21484375 189.4140625 C110.29895234 189.43296424 108.38306879 189.45267948 106.4671936 189.47315979 C101.3470123 189.52524013 96.22680774 189.56492005 91.1064949 189.60149765 C86.89230656 189.63275151 82.67818288 189.67023036 78.46404552 189.70765209 C67.14534895 189.80781688 55.82658839 189.89005768 44.50769043 189.96356201 C39.55229832 189.99582043 34.59695182 190.03273314 29.64160156 190.07080078 C23.36487417 190.11831401 17.08818254 190.15355996 10.81130981 190.17523193 C8.65787448 190.18336368 6.5044481 190.19443752 4.3510437 190.20855713 C1.44357894 190.22597174 -1.46358428 190.23045244 -4.37109375 190.23046875 C-5.6004213 190.24117149 -5.6004213 190.24117149 -6.85458374 190.25209045 C-12.68336375 190.22848373 -16.19771632 189.20152245 -21 186 C-21.66 186 -22.32 186 -23 186 C-23.33773437 185.36191406 -23.67546875 184.72382813 -24.0234375 184.06640625 C-24.69246094 182.82697266 -24.69246094 182.82697266 -25.375 181.5625 C-25.81585938 180.73878906 -26.25671875 179.91507813 -26.7109375 179.06640625 C-27.83418559 176.86533422 -27.83418559 176.86533422 -30 176 C-30 175.01 -30 174.02 -30 173 C-30.66 172.34 -31.32 171.68 -32 171 C-31.71281674 169.3247643 -31.36871088 167.65919896 -31 166 C-30.69407876 161.34058991 -30.69407876 161.34058991 -32 157 C-31.91226677 155.35004921 -31.7576513 153.70321652 -31.5625 152.0625 C-30.93566589 146.67490051 -31.22310625 141.84050072 -31.87890625 136.47265625 C-31.99717064 134.05777364 -31.71818003 132.29285623 -31 130 C-31.66 129.67 -32.32 129.34 -33 129 C-32.34 129 -31.68 129 -31 129 C-30.97287847 127.083412 -30.95354903 125.1667127 -30.9375 123.25 C-30.92589844 122.18265625 -30.91429687 121.1153125 -30.90234375 120.015625 C-30.98563322 117.44364609 -31.32286157 115.4526274 -32 113 C-32 110 -32 110 -31.49462891 108.09228516 C-30.94921925 105.78519691 -30.95951777 103.88743645 -31.0859375 101.5234375 C-31.12976563 100.688125 -31.17359375 99.8528125 -31.21875 98.9921875 C-31.2703125 98.12851563 -31.321875 97.26484375 -31.375 96.375 C-31.41882813 95.50359375 -31.46265625 94.6321875 -31.5078125 93.734375 C-31.62823892 89.21494046 -31.62823892 89.21494046 -33 85 C-32.69449219 84.46246094 -32.38898438 83.92492187 -32.07421875 83.37109375 C-30.54060709 79.98599456 -30.7494186 76.70462066 -30.8125 73.0625 C-30.8134668 72.00772461 -30.8134668 72.00772461 -30.81445312 70.93164062 C-30.83920351 67.99734449 -30.94690756 65.24306946 -31.57421875 62.37109375 C-32 60 -32 60 -31.53491211 57.2121582 C-31.02494551 54.1497983 -30.87082422 51.33390085 -30.8671875 48.234375 C-30.86525391 46.65269531 -30.86525391 46.65269531 -30.86328125 45.0390625 C-30.86714844 43.95367187 -30.87101563 42.86828125 -30.875 41.75 C-30.87113281 40.64914063 -30.86726562 39.54828125 -30.86328125 38.4140625 C-30.86457031 37.36476562 -30.86585938 36.31546875 -30.8671875 35.234375 C-30.86831543 34.27756836 -30.86944336 33.32076172 -30.87060547 32.33496094 C-30.846316 29.9765024 -30.846316 29.9765024 -32 28 C-31.34 28 -30.68 28 -30 28 C-30.48484276 23.35413108 -30.48484276 23.35413108 -32 19 C-31.34 19 -30.68 19 -30 19 C-29.731875 18.26394531 -29.46375 17.52789062 -29.1875 16.76953125 C-26.38277253 9.78539079 -23.93354462 6.05241705 -17 3 C-16.071875 2.54625 -15.14375 2.0925 -14.1875 1.625 C-9.38679541 0.68368537 -4.81930003 1.36543024 0 2 C0 1.34 0 0.68 0 0 Z M-12 21 C-14.28542357 24.42813536 -14.25102187 25.65632762 -14.25396729 29.68675232 C-14.25960693 30.87149139 -14.26524658 32.05623047 -14.27105713 33.27687073 C-14.26700867 34.57825485 -14.26296021 35.87963898 -14.25878906 37.22045898 C-14.26149886 38.60355819 -14.26505973 39.98665595 -14.26940918 41.36975098 C-14.27853768 45.12802241 -14.27498683 48.8861842 -14.26865101 52.64445758 C-14.26359238 56.57572398 -14.26828217 60.50698091 -14.27142334 64.43824768 C-14.27506381 71.04161262 -14.27026221 77.64493286 -14.26074219 84.24829102 C-14.24986197 91.88329894 -14.25337972 99.51820001 -14.264395 107.15320534 C-14.27347093 113.70614964 -14.27475152 120.25906178 -14.26951766 126.81201035 C-14.26639907 130.72674152 -14.26598549 134.64142248 -14.27259064 138.55615044 C-14.27836777 142.23743311 -14.27436052 145.91857808 -14.26280212 149.59984589 C-14.25889551 151.59576223 -14.2648384 153.59169023 -14.27105713 155.58760071 C-14.26541748 156.77515961 -14.25977783 157.96271851 -14.25396729 159.18626404 C-14.25321323 160.2184629 -14.25245918 161.25066175 -14.25168228 162.31413937 C-13.91650048 165.89107614 -12.85102642 167.92179924 -10.6521883 170.70759869 C-5.16446125 175.00029683 6.39290207 173.14806543 13.03979492 173.14526367 C14.20043961 173.14862228 15.36108429 173.1519809 16.55690002 173.15544128 C20.36476736 173.16488282 24.17259046 173.16689052 27.98046875 173.16796875 C29.96702834 173.17037092 31.95358795 173.17277506 33.94014722 173.17542917 C40.17323616 173.1835374 46.40631068 173.18601649 52.6394043 173.18530273 C59.05378509 173.18470078 65.46808211 173.19528439 71.8824417 173.2110464 C77.40967488 173.22414076 82.9368807 173.22948593 88.46412927 173.22884732 C91.75679779 173.22859318 95.04937492 173.23232828 98.34203148 173.24202538 C102.01088827 173.25182467 105.67952838 173.248948 109.34838867 173.24291992 C110.42959991 173.24853943 111.51081116 173.25415894 112.62478638 173.25994873 C121.83819181 173.33995704 121.83819181 173.33995704 129.92578125 169.4375 C131.58767027 165.66652274 131.31421567 162.0678978 131.1875 158 C131.17396484 157.19304687 131.16042969 156.38609375 131.14648438 155.5546875 C131.12042425 154.05064589 131.08817911 152.54668888 131.04760742 151.04296875 C130.93823621 146.34954164 131.01844155 141.65279929 131.04760742 136.95849609 C131.09667474 128.74220764 131.1303554 120.52592576 131.15543652 112.30953026 C131.17114224 107.33713285 131.19248759 102.36488786 131.22631836 97.39257812 C131.25882614 92.58340575 131.27683299 87.77438068 131.28463173 82.96510696 C131.29018609 81.13020117 131.30103206 79.29530371 131.31719017 77.46046066 C131.33885371 74.90103176 131.3419718 72.34222013 131.34057617 69.78271484 C131.351362 69.02007828 131.36214783 68.25744171 131.3732605 67.47169495 C131.3948599 65.14981172 131.3948599 65.14981172 131 62 C127.69732029 59.79821353 126.69993533 59.77463727 122.875 59.875 C121.98554688 59.89304688 121.09609375 59.91109375 120.1796875 59.9296875 C119.10074219 59.96449219 119.10074219 59.96449219 118 60 C110.36444013 60 102.70208011 58.19934451 97 53 C90.30586483 45.31287291 89.70723387 36.04814586 90.02734375 26.25 C90.16318874 23.96278449 90.16318874 23.96278449 89 22 C88.34 22 87.68 22 87 22 C86.505 21.01 86.505 21.01 86 20 C85.01 19.505 85.01 19.505 84 19 C84 19.66 84 20.32 84 21 C82.35 20.67 80.7 20.34 79 20 C79 19.34 79 18.68 79 18 C78.21753906 18 77.43507813 18 76.62890625 18 C73.41927083 18 70.20963542 18 67 18 C66.34 18.185625 65.68 18.37125 65 18.5625 C64.34 18.706875 63.68 18.85125 63 19 C62.505 18.505 62.505 18.505 62 18 C60.02206391 17.92717467 58.04166299 17.9163199 56.0625 17.9375 C54.98097656 17.94652344 53.89945312 17.95554688 52.78515625 17.96484375 C51.40650391 17.98224609 51.40650391 17.98224609 50 18 C47.60090402 18 45.20246461 17.9750626 42.8034668 17.95239258 C36.74410689 17.89830848 30.68477425 17.86371068 24.62524414 17.83520508 C22.00541576 17.82009912 19.38561273 17.79961324 16.76586914 17.77368164 C12.99358912 17.73730226 9.22164213 17.72027675 5.44921875 17.70703125 C4.27824142 17.69154739 3.1072641 17.67606354 1.90080261 17.66011047 C0.80649429 17.65988388 -0.28781403 17.65965729 -1.4152832 17.65942383 C-2.37521683 17.65276199 -3.33515045 17.64610016 -4.32417297 17.63923645 C-7.5473363 18.07379363 -9.38741784 19.08734331 -12 21 Z M107 30 C107 32.31 107 34.62 107 37 C107.33 37 107.66 37 108 37 C108 34.69 108 32.38 108 30 C107.67 30 107.34 30 107 30 Z M109 30 C107.73472924 35.90277157 107.73472924 35.90277157 109.3125 41.5 C113.35190812 43.75455337 117.43645667 43.82581896 122 44 C120.09867626 40.03564763 120.09867626 40.03564763 117 37 C114.37429296 36.74930087 114.37429296 36.74930087 112 37 C112.99 36.34 113.98 35.68 115 35 C113.02 33.35 111.04 31.7 109 30 Z " fill="#E2E2E2" transform="translate(205,133)"/>
<path d="M0 0 C1.32 0.66 2.64 1.32 4 2 C4.09920868 7.99563827 4.17162945 13.990794 4.21972656 19.98706055 C4.23978632 22.02490568 4.26704099 24.06269366 4.30175781 26.1003418 C4.35052434 29.03709047 4.37302541 31.97307518 4.390625 34.91015625 C4.41127014 35.81459976 4.43191528 36.71904327 4.45318604 37.65089417 C4.45528864 43.63851662 3.48466268 47.0933682 0 52 C-4.78474294 56.04111727 -9.66449791 58.03006092 -15.9453125 57.94921875 C-20.68535967 57.33426562 -25.24573717 56.41963466 -29.02734375 53.359375 C-31.1914731 50.47386919 -32.2223057 47.46912652 -33 44 C-30.58301501 42.05081856 -28.81253599 40.99184746 -25.6640625 41.0234375 C-23.42635527 41.28462099 -21.21672195 41.59915486 -19 42 C-19.99 42.495 -19.99 42.495 -21 43 C-21 43.66 -21 44.32 -21 45 C-17.69432511 45.85387105 -17.69432511 45.85387105 -14 46 C-11.53827847 44.207809 -11.53827847 44.207809 -10 42 C-11.32 42 -12.64 42 -14 42 C-26.46922184 40.42044135 -26.46922184 40.42044135 -30 37 C-30.91648994 34.67514249 -31.62231648 32.38576893 -32.2265625 29.9609375 C-32.48179687 29.31382812 -32.73703125 28.66671875 -33 28 C-33.99 27.67 -34.98 27.34 -36 27 C-35.979375 26.278125 -35.95875 25.55625 -35.9375 24.8125 C-35.99820559 22.08074862 -36.39258535 19.65743909 -37 17 C-36.34 17.33 -35.68 17.66 -35 18 C-33.77726918 16.99066398 -33.77726918 16.99066398 -33.8125 14.9375 C-32.29349486 9.44571218 -28.78902433 5.27219508 -24.1875 2 C-18.54323227 0.22924934 -13.90910434 0.19616659 -8.4375 2.5 C-7.633125 2.995 -6.82875 3.49 -6 4 C-5.67 3.01 -5.34 2.02 -5 1 C-2.525 1.495 -2.525 1.495 0 2 C0 1.34 0 0.68 0 0 Z M-18 11 C-21.26889976 13.42531272 -22.3550262 15.44992085 -22.9375 19.375 C-23.221908 23.69089147 -22.67323209 26.46443498 -20 30 C-17.14443806 31.64662182 -17.14443806 31.64662182 -14 32 C-11.66274199 31.25124046 -11.66274199 31.25124046 -10 30 C-10.33 29.34 -10.66 28.68 -11 28 C-9.68 27.67 -8.36 27.34 -7 27 C-7 23.7 -7 20.4 -7 17 C-7.66 17 -8.32 17 -9 17 C-9.33 15.35 -9.66 13.7 -10 12 C-10.99 12.495 -10.99 12.495 -12 13 C-14.01927511 12.39421747 -16.02253397 11.73080266 -18 11 Z M-8 40 C-8.33 40.66 -8.66 41.32 -9 42 C-8.34 42 -7.68 42 -7 42 C-7.33 41.34 -7.66 40.68 -8 40 Z " fill="#DFDFDF" transform="translate(298,367)"/>
<path d="M0 0 C0.495 1.485 0.495 1.485 1 3 C2.32467746 3.6837045 3.65863633 4.34964186 5 5 C7.48836965 8.73255448 7.54226552 10.58440935 7 15 C3.53745937 18.98716799 0.03062114 19.59841056 -5 20 C-8.94066391 20.13719535 -12.87755842 20.14018597 -16.8203125 20.1328125 C-18.52379349 20.13424759 -18.52379349 20.13424759 -20.26168823 20.13571167 C-22.66046199 20.13639052 -25.05923761 20.13455687 -27.45800781 20.13037109 C-31.09183996 20.12504857 -34.72554682 20.13031075 -38.359375 20.13671875 C-40.7005211 20.13605734 -43.04166713 20.13477487 -45.3828125 20.1328125 C-46.98819382 20.13584885 -46.98819382 20.13584885 -48.62600708 20.13894653 C-54.08355048 20.12236566 -59.52668745 19.98460683 -64.97607422 19.67919922 C-66.52813065 19.59398514 -66.52813065 19.59398514 -68.11154175 19.50704956 C-71.35822653 18.93711573 -73.36206769 17.95810871 -76 16 C-76.48828125 13.73828125 -76.48828125 13.73828125 -76.3125 11.3125 C-76.26738281 10.50425781 -76.22226563 9.69601563 -76.17578125 8.86328125 C-76.11777344 8.24839844 -76.05976563 7.63351563 -76 7 C-75.34 7 -74.68 7 -74 7 C-73.67 6.01 -73.34 5.02 -73 4 C-68.70022733 1.29383101 -65.41609089 0.63239668 -60.38378906 0.67529297 C-59.08934875 0.67874725 -57.79490845 0.68220154 -56.46124268 0.6857605 C-55.06270115 0.70439752 -53.66416196 0.72321067 -52.265625 0.7421875 C-50.82168312 0.75033121 -49.37773218 0.75699173 -47.93377686 0.76223755 C-44.14669438 0.77929771 -40.35997428 0.81352548 -36.57305908 0.85229492 C-30.49815012 0.91166977 -24.42305419 0.94532516 -18.3479538 0.97806168 C-16.22620692 0.99203548 -14.10464028 1.01361824 -11.98297119 1.03634644 C-10.70113953 1.04610504 -9.41930786 1.05586365 -8.09863281 1.06591797 C-6.40036346 1.08282181 -6.40036346 1.08282181 -4.66778564 1.10006714 C-2.02555357 1.18501572 -2.02555357 1.18501572 0 0 Z " fill="#E2E2E2" transform="translate(288,195)"/>
<path d="M0 0 C1.2582811 -0.00637985 2.51656219 -0.0127597 3.81297302 -0.01933289 C5.17357342 -0.0208617 6.53417433 -0.02197558 7.89477539 -0.02270508 C9.30432671 -0.02592257 10.71387771 -0.029287 12.12342834 -0.03279114 C15.07122573 -0.0387623 18.01899388 -0.04063306 20.96679688 -0.04003906 C24.73034019 -0.03993742 28.49369492 -0.05360028 32.25719357 -0.07081127 C35.16639556 -0.08196773 38.07555244 -0.08395717 40.98477364 -0.08342934 C42.37174696 -0.08460355 43.75872168 -0.0889937 45.14567375 -0.0967617 C59.19019978 -0.16807534 59.19019978 -0.16807534 64.55493164 2.14526367 C67.00014279 5.81308039 67.27730923 8.879796 66.55493164 13.14526367 C64.6847807 15.5764599 63.27354819 16.7859554 60.55493164 18.14526367 C58.37103536 18.252595 56.18381245 18.29416932 53.99731445 18.30639648 C53.32391022 18.31136139 52.65050598 18.31632629 51.95669556 18.32144165 C49.72380558 18.33607263 47.49098673 18.34286793 45.25805664 18.34838867 C43.70587156 18.35414079 42.1536865 18.35989851 40.60150146 18.36566162 C37.34313628 18.37617525 34.08479578 18.38201507 30.82641602 18.38549805 C26.65903222 18.39097371 22.49197665 18.41498006 18.32469559 18.44347 C15.11614036 18.46213386 11.90766345 18.46730404 8.69905853 18.46883392 C7.16331952 18.47185417 5.62758168 18.4798615 4.09189606 18.4930191 C1.93772283 18.51015334 -0.21565855 18.50818154 -2.36987305 18.50170898 C-3.59405945 18.50535461 -4.81824585 18.50900024 -6.07952881 18.51275635 C-9.8223363 18.10406873 -12.24559908 17.10061533 -15.44506836 15.14526367 C-16.64427749 12.53805453 -16.62271145 9.99328351 -16.44506836 7.14526367 C-15.50756836 4.64526367 -15.50756836 4.64526367 -14.44506836 3.14526367 C-13.78506836 3.14526367 -13.12506836 3.14526367 -12.44506836 3.14526367 C-12.44506836 2.48526367 -12.44506836 1.82526367 -12.44506836 1.14526367 C-8.24535958 0.35143238 -4.27169362 0.0147688 0 0 Z " fill="#E3E3E3" transform="translate(228.445068359375,239.854736328125)"/>
<path d="M0 0 C2.39591038 -0.02712351 4.79150957 -0.0468982 7.1875 -0.0625 C7.86103516 -0.07087891 8.53457031 -0.07925781 9.22851562 -0.08789062 C12.96579374 -0.10612125 16.36395239 0.15307472 20 1 C21.7325 1.185625 21.7325 1.185625 23.5 1.375 C28.66228791 2.29683713 30.97384167 3.71730209 34.25 7.8125 C37.59600102 14.08625192 37 22.06154426 37 29 C36.01 28.67 35.02 28.34 34 28 C33.7525 28.598125 33.505 29.19625 33.25 29.8125 C31.1227366 33.53521095 28.74009764 34.72957971 24.75 36.1875 C19.63253935 37.29628314 15.05354741 37.6845158 10 36 C10 41.94 10 47.88 10 54 C9.01 54 8.02 54 7 54 C7 54.66 7 55.32 7 56 C4.33333333 55.33333333 1.66666667 54.66666667 -1 54 C-1.0252908 46.63102956 -1.04284179 39.26207026 -1.05493164 31.89306641 C-1.05997003 29.38459861 -1.06680084 26.87613376 -1.07543945 24.36767578 C-1.08752661 20.7685473 -1.09323315 17.16945753 -1.09765625 13.5703125 C-1.10281754 12.44319855 -1.10797882 11.31608459 -1.11329651 10.15481567 C-1.11337204 9.11388763 -1.11344757 8.07295959 -1.11352539 7.00048828 C-1.115746 6.08115509 -1.11796661 5.1618219 -1.12025452 4.21463013 C-1 2 -1 2 0 0 Z M10 12 C10 16.95 10 21.9 10 27 C17.52637505 27.46852221 17.52637505 27.46852221 24 24 C25.42041821 21.15916359 25.31452272 19.14522722 25 16 C23.8213337 13.40087749 23.8213337 13.40087749 21 12 C17.26603606 11.66689818 13.76345914 11.82078766 10 12 Z " fill="#DDDDDD" transform="translate(188,355)"/>
<path d="M0 0 C0 0.66 0 1.32 0 2 C1.11375 2.185625 1.11375 2.185625 2.25 2.375 C5.54789729 3.12452211 8.06480897 3.86853431 10.265625 6.53125 C13.0032923 12.0065846 13.41960742 17.1653646 13.5 23.1875 C13.51836914 23.95964844 13.53673828 24.73179687 13.55566406 25.52734375 C13.49894262 30.79109345 12.50630979 33.85898035 9 38 C6.96484375 39.64453125 6.96484375 39.64453125 4.9375 40.8125 C4.26589844 41.21082031 3.59429687 41.60914063 2.90234375 42.01953125 C-2.7553048 44.93548564 -8.06277331 43.64255259 -14 42 C-17.30263825 39.97133541 -18.76730732 37.69807804 -20 34 C-20.66 34 -21.32 34 -22 34 C-22.53154742 32.39935157 -23.04988353 30.79431126 -23.5625 29.1875 C-23.85253906 28.29417969 -24.14257812 27.40085937 -24.44140625 26.48046875 C-25 24 -25 24 -24 21 C-24.66 20.67 -25.32 20.34 -26 20 C-25.34 20 -24.68 20 -24 20 C-23.88785156 19.14728516 -23.88785156 19.14728516 -23.7734375 18.27734375 C-22.7284332 12.14050477 -20.8262799 8.03652501 -16 4 C-10.8640189 1.04028208 -5.87950143 -0.13065559 0 0 Z M-10.4375 13 C-10.953125 13.66 -11.46875 14.32 -12 15 C-11.67 15.66 -11.34 16.32 -11 17 C-10.67 16.01 -10.34 15.02 -10 14 C-8.6696875 14.495 -8.6696875 14.495 -7.3125 15 C-4.29076653 15.91222143 -2.11626294 16.18330958 1 16 C0.34 14.35 -0.32 12.7 -1 11 C-6.13725982 10.51510163 -6.13725982 10.51510163 -10.4375 13 Z M-11 25 C-11 25.33 -11 25.66 -11 26 C-9.02 26 -7.04 26 -5 26 C-5 25.67 -5 25.34 -5 25 C-6.98 25 -8.96 25 -11 25 Z M-11 28 C-11 28.33 -11 28.66 -11 29 C-9.35 29 -7.7 29 -6 29 C-5.67 30.32 -5.34 31.64 -5 33 C-0.96825194 32.72510809 0.56894631 32.46508424 3.375 29.4375 C4.179375 28.2309375 4.179375 28.2309375 5 27 C3.2709226 26.97274659 1.54171824 26.95349013 -0.1875 26.9375 C-1.15042969 26.92589844 -2.11335938 26.91429687 -3.10546875 26.90234375 C-5.85576513 26.99513378 -8.32479591 27.37888315 -11 28 Z M-9 30 C-8.34 30.66 -7.68 31.32 -7 32 C-7 31.34 -7 30.68 -7 30 C-7.66 30 -8.32 30 -9 30 Z " fill="#DDDDDD" transform="translate(330,367)"/>
<path d="M0 0 C1.62463842 -0.05395478 3.24978541 -0.09277195 4.875 -0.125 C6.23238281 -0.15980469 6.23238281 -0.15980469 7.6171875 -0.1953125 C10 0 10 0 12 2 C13.79158141 2.98474914 15.60915433 3.89808468 17.44140625 4.8046875 C19.50410589 6.38660753 19.51239957 7.47703931 20 10 C22.50447632 33.77317476 22.50447632 33.77317476 20 42 C17.10715446 44.09590111 15.70795596 44 12 44 C11.566875 43.484375 11.13375 42.96875 10.6875 42.4375 C8.90843557 40.58860989 8.90843557 40.58860989 5.375 41.1875 C4.26125 41.455625 3.1475 41.72375 2 42 C1.67 42.66 1.34 43.32 1 44 C-2.04386724 44.08226668 -4.07175348 43.97608217 -7 43 C-7 42.34 -7 41.68 -7 41 C-7.61875 40.7525 -8.2375 40.505 -8.875 40.25 C-11.37818306 38.77753937 -11.83045281 37.58971163 -13 35 C-13.66 34.67 -14.32 34.34 -15 34 C-13.96363636 23.63636364 -13.96363636 23.63636364 -9.375 19.8125 C-8.59125 19.214375 -7.8075 18.61625 -7 18 C-7 17.67 -7 17.34 -7 17 C-5.9275 17.04125 -4.855 17.0825 -3.75 17.125 C-0.17678042 17.00589268 0.99141147 16.55616648 4 15 C6.25 15.375 6.25 15.375 8 16 C8 14.35 8 12.7 8 11 C2.37993278 11.11214648 2.37993278 11.11214648 -2 14.0625 C-2.33 14.701875 -2.66 15.34125 -3 16 C-5.64 15.67 -8.28 15.34 -11 15 C-12.22056581 10.60596307 -12.22056581 10.60596307 -11.2734375 8.00390625 C-9.78041075 5.65445004 -8.36833329 4.62852632 -6 3.1875 C-5.29875 2.74792969 -4.5975 2.30835938 -3.875 1.85546875 C-3.25625 1.57316406 -2.6375 1.29085938 -2 1 C-1.34 1.33 -0.68 1.66 0 2 C0 1.34 0 0.68 0 0 Z M5 25 C9 26 9 26 9 26 Z M-3 28 C-2.6814823 30.10820797 -2.6814823 30.10820797 -2 32 C-1.236875 32 -0.47375 32 0.3125 32 C2.20833333 32 4.10416667 32 6 32 C6.33 30.68 6.66 29.36 7 28 C3.19906828 25.46604552 0.41328319 24.58671681 -3 28 Z " fill="#DFDFDF" transform="translate(240,367)"/>
<path d="M0 0 C1.32 0.66 2.64 1.32 4 2 C4.09920868 7.99563827 4.17162945 13.990794 4.21972656 19.98706055 C4.23978632 22.02490568 4.26704099 24.06269366 4.30175781 26.1003418 C4.35052434 29.03709047 4.37302541 31.97307518 4.390625 34.91015625 C4.41127014 35.81459976 4.43191528 36.71904327 4.45318604 37.65089417 C4.45528864 43.63851662 3.48466268 47.0933682 0 52 C-3.97470367 55.35697108 -8.64870591 57.96022203 -13.97460938 58.0234375 C-19.22619708 57.56109676 -25.08899155 56.95049209 -28.890625 53.0703125 C-30.30869563 50.42391308 -30.66310137 47.96470796 -31 45 C-25.25 44.875 -25.25 44.875 -23 46 C-23 46.66 -23 47.32 -23 48 C-22.01 47.7525 -22.01 47.7525 -21 47.5 C-18.44474441 47.07412407 -16.43201485 47.02120973 -13.875 47.125 C-10.19847592 47.29882528 -10.19847592 47.29882528 -8.0625 45.9375 C-6.48831335 43.06692435 -6.30426913 40.2252528 -6 37 C-7.32 37.66 -8.64 38.32 -10 39 C-9.484375 38.278125 -8.96875 37.55625 -8.4375 36.8125 C-6.73483488 33.48119868 -7.26018458 32.51412323 -8 29 C-6.5625 27.3125 -6.5625 27.3125 -5 26 C-5 23.45597354 -5.66494806 21.38050049 -6.375 18.9375 C-6.63023437 18.03902344 -6.88546875 17.14054687 -7.1484375 16.21484375 C-7.78001028 13.82901293 -7.78001028 13.82901293 -10 13 C-10 12.34 -10 11.68 -10 11 C-9.34 10.67 -8.68 10.34 -8 10 C-8.34786708 8.02463255 -8.34786708 8.02463255 -9 6 C-12.18795227 4.40602386 -15.53022663 4.61224113 -19 5 C-21.74832154 6.28184562 -21.74832154 6.28184562 -24 8 C-25.32608822 8.68096422 -26.65686601 9.35330586 -28 10 C-28 10.66 -28 11.32 -28 12 C-28.99 12.33 -29.98 12.66 -31 13 C-29.87110905 9.04888168 -28.10597081 6.53687408 -24.83203125 4.01171875 C-19.96837287 1.32581785 -14.68558815 1.65566608 -9.4375 2.9375 C-7.7359375 3.4634375 -7.7359375 3.4634375 -6 4 C-5.67 3.01 -5.34 2.02 -5 1 C-2.525 1.495 -2.525 1.495 0 2 C0 1.34 0 0.68 0 0 Z " fill="#DDDDDD" transform="translate(298,367)"/>
<path d="M0 0 C0.069511 13.58664255 0.12281703 27.17324278 0.15543652 40.76002693 C0.17109224 47.06892299 0.19232915 53.37769739 0.22631836 59.68652344 C0.25891462 65.77490307 0.27685372 71.86316567 0.28463173 77.95162582 C0.29017471 80.27445188 0.30099874 82.59727153 0.31719017 84.92004776 C0.33896753 88.17356457 0.34196673 91.42659781 0.34057617 94.68017578 C0.351362 95.64043167 0.36214783 96.60068756 0.3732605 97.59004211 C0.34929059 102.77307361 0.08714771 106.61799594 -3 111 C-6.62686393 113.62138322 -9.13766893 114.37499608 -13.58558655 114.3742218 C-15.25322807 114.38474327 -15.25322807 114.38474327 -16.95455933 114.39547729 C-18.76961472 114.38401169 -18.76961472 114.38401169 -20.62133789 114.37231445 C-22.5440023 114.37779045 -22.5440023 114.37779045 -24.50550842 114.38337708 C-28.01373409 114.392767 -31.52167985 114.38337732 -35.02988362 114.37004495 C-38.70355209 114.35871337 -42.37720713 114.36283921 -46.05088806 114.36479187 C-52.21862349 114.3656742 -58.38624888 114.35460643 -64.55395508 114.33618164 C-71.68346044 114.31500554 -78.81280474 114.31150649 -85.94233519 114.3177436 C-92.80396466 114.32343885 -99.66553744 114.31779031 -106.52715874 114.30657005 C-109.44613125 114.30192715 -112.36506906 114.30104887 -115.28404427 114.3031559 C-119.35880086 114.30538982 -123.43333196 114.29092793 -127.50805664 114.2746582 C-129.32614838 114.27837433 -129.32614838 114.27837433 -131.18096924 114.28216553 C-132.28991043 114.27508072 -133.39885162 114.26799591 -134.54139709 114.26069641 C-135.50462922 114.25864354 -136.46786135 114.25659067 -137.46028233 114.25447559 C-140.0945935 113.99052188 -141.73923062 113.34065797 -144 112 C-141.51204988 110.75602494 -140.36735862 111.07365988 -137.62748718 111.42842102 C-131.72577081 112.08604013 -125.89378241 112.14776476 -119.96020508 112.14526367 C-118.79956039 112.14862228 -117.63891571 112.1519809 -116.44309998 112.15544128 C-112.63523264 112.16488282 -108.82740954 112.16689052 -105.01953125 112.16796875 C-103.03297166 112.17037092 -101.04641205 112.17277506 -99.05985278 112.17542917 C-92.82676384 112.1835374 -86.59368932 112.18601649 -80.3605957 112.18530273 C-73.94621491 112.18470078 -67.53191789 112.19528439 -61.1175583 112.2110464 C-55.59032512 112.22414076 -50.0631193 112.22948593 -44.53587073 112.22884732 C-41.24320221 112.22859318 -37.95062508 112.23232828 -34.65796852 112.24202538 C-30.98911173 112.25182467 -27.32047162 112.248948 -23.65161133 112.24291992 C-22.02979446 112.25134918 -22.02979446 112.25134918 -20.37521362 112.25994873 C-14.90711187 112.23712399 -10.09278112 112.10648506 -5 110 C-4.67 109.01 -4.34 108.02 -4 107 C-3.34 107 -2.68 107 -2 107 C-2.165 106.31035156 -2.33 105.62070312 -2.5 104.91015625 C-3.05387733 101.6864171 -3.06060033 98.70613004 -3 95.4375 C-2.93191978 91.75691295 -2.89562385 88.52882691 -4 85 C-3.34 85 -2.68 85 -2 85 C-2.24398781 83.75191055 -2.24398781 83.75191055 -2.49290466 82.47860718 C-3.03779107 78.74075824 -3.13317391 75.1081955 -3.11352539 71.34228516 C-3.11367142 70.60013763 -3.11381744 69.85799011 -3.1139679 69.09335327 C-3.11327539 66.65855917 -3.10551419 64.22384311 -3.09765625 61.7890625 C-3.09578972 60.09369956 -3.09436692 58.39833608 -3.09336853 56.70297241 C-3.08956189 52.25439956 -3.07974751 47.80585968 -3.06866455 43.3572998 C-3.05841051 38.81242316 -3.05386237 34.26754115 -3.04882812 29.72265625 C-3.0381235 20.81508973 -3.02106944 11.90754761 -3 3 C-5.64 2.67 -8.28 2.34 -11 2 C-11 1.67 -11 1.34 -11 1 C-7.26616906 0.30533378 -3.79269127 -0.05168915 0 0 Z " fill="#FAFAFA" transform="translate(338,193)"/>
<path d="M0 0 C0 0.33 0 0.66 0 1 C-1.65 1 -3.3 1 -5 1 C-5.33 2.32 -5.66 3.64 -6 5 C-3.36 5 -0.72 5 2 5 C2.5550944 10.55094396 1.06229363 14.46660452 -2 19 C-5.86731877 22.34470813 -9.00380519 22.34456516 -14 22 C-16.33824592 21.70307988 -18.67377689 21.37979153 -21 21 C-23.00890341 16.85663672 -23.56311349 13.5853527 -23 9 C-20.88989037 5.31781665 -18.0766972 2.35889907 -14 1 C-9.28192771 -0.07228916 -4.80960926 -0.0829243 0 0 Z M-5 7 C-1 8 -1 8 -1 8 Z M-13 10 C-12.6814823 12.10820797 -12.6814823 12.10820797 -12 14 C-11.236875 14 -10.47375 14 -9.6875 14 C-7.79166667 14 -5.89583333 14 -4 14 C-3.67 12.68 -3.34 11.36 -3 10 C-6.80093172 7.46604552 -9.58671681 6.58671681 -13 10 Z " fill="#DCDCDC" transform="translate(250,385)"/>
<path d="M0 0 C0.66 0.33 1.32 0.66 2 1 C0.14453125 3.44140625 0.14453125 3.44140625 -1.7109375 5.8828125 C-4.55182512 10.5487552 -5.24990507 15.02802431 -5.24723816 20.42042542 C-5.25143265 21.69198486 -5.25562714 22.96354431 -5.25994873 24.27363586 C-5.25446617 25.67013627 -5.24878322 27.0666359 -5.24291992 28.46313477 C-5.24399364 29.94357385 -5.24593365 31.42401252 -5.24867249 32.90444946 C-5.25350924 36.9146743 -5.24587997 40.92478742 -5.23571944 44.93499875 C-5.22692005 49.13537034 -5.22869675 53.33573863 -5.2290802 57.53611755 C-5.22814443 64.58814355 -5.21947191 71.64012645 -5.20581055 78.69213867 C-5.1900799 86.84237361 -5.18481272 94.99256138 -5.1855461 103.1428104 C-5.18622184 111.82543903 -5.17927965 120.50804949 -5.1700995 129.19067264 C-5.16796952 131.69050144 -5.1672585 134.19032731 -5.16686058 136.69015694 C-5.16585513 140.61932344 -5.15974194 144.54845045 -5.14969444 148.47760391 C-5.14677696 149.91874512 -5.14554255 151.35989088 -5.14612198 152.80103493 C-5.14661389 154.76954698 -5.14033006 156.73805724 -5.13371277 158.70655823 C-5.13203692 159.80768228 -5.13036108 160.90880632 -5.12863445 162.04329777 C-5.00842243 164.80640787 -4.62746232 167.31136244 -4 170 C-4.99 169.67 -5.98 169.34 -7 169 C-7 168.01 -7 167.02 -7 166 C-7.66 165.34 -8.32 164.68 -9 164 C-8.71281674 162.3247643 -8.36871088 160.65919896 -8 159 C-7.69407876 154.34058991 -7.69407876 154.34058991 -9 150 C-8.91226677 148.35004921 -8.7576513 146.70321652 -8.5625 145.0625 C-7.93566589 139.67490051 -8.22310625 134.84050072 -8.87890625 129.47265625 C-8.99717064 127.05777364 -8.71818003 125.29285623 -8 123 C-8.66 122.67 -9.32 122.34 -10 122 C-9.34 122 -8.68 122 -8 122 C-7.97287847 120.083412 -7.95354903 118.1667127 -7.9375 116.25 C-7.92589844 115.18265625 -7.91429687 114.1153125 -7.90234375 113.015625 C-7.98563322 110.44364609 -8.32286157 108.4526274 -9 106 C-9 103 -9 103 -8.49462891 101.09228516 C-7.94921925 98.78519691 -7.95951777 96.88743645 -8.0859375 94.5234375 C-8.12976563 93.688125 -8.17359375 92.8528125 -8.21875 91.9921875 C-8.2703125 91.12851563 -8.321875 90.26484375 -8.375 89.375 C-8.41882813 88.50359375 -8.46265625 87.6321875 -8.5078125 86.734375 C-8.62823892 82.21494046 -8.62823892 82.21494046 -10 78 C-9.69449219 77.46246094 -9.38898438 76.92492187 -9.07421875 76.37109375 C-7.54060709 72.98599456 -7.7494186 69.70462066 -7.8125 66.0625 C-7.8134668 65.00772461 -7.8134668 65.00772461 -7.81445312 63.93164062 C-7.83920351 60.99734449 -7.94690756 58.24306946 -8.57421875 55.37109375 C-9 53 -9 53 -8.53491211 50.2121582 C-8.02494551 47.1497983 -7.87082422 44.33390085 -7.8671875 41.234375 C-7.86525391 39.65269531 -7.86525391 39.65269531 -7.86328125 38.0390625 C-7.86714844 36.95367187 -7.87101563 35.86828125 -7.875 34.75 C-7.87113281 33.64914063 -7.86726562 32.54828125 -7.86328125 31.4140625 C-7.86457031 30.36476562 -7.86585938 29.31546875 -7.8671875 28.234375 C-7.86831543 27.27756836 -7.86944336 26.32076172 -7.87060547 25.33496094 C-7.846316 22.9765024 -7.846316 22.9765024 -9 21 C-8.34 21 -7.68 21 -7 21 C-7.48484276 16.35413108 -7.48484276 16.35413108 -9 12 C-8.34 12 -7.68 12 -7 12 C-6.66226563 11.21753906 -6.32453125 10.43507812 -5.9765625 9.62890625 C-5.30753906 8.11103516 -5.30753906 8.11103516 -4.625 6.5625 C-4.18414062 5.55316406 -3.74328125 4.54382813 -3.2890625 3.50390625 C-2 1 -2 1 0 0 Z " fill="#FAFAFA" transform="translate(182,140)"/>
<path d="M0 0 C0.495 1.485 0.495 1.485 1 3 C1.99 3.33 2.98 3.66 4 4 C1.0638775 5.46806125 -1.51135707 5.09510173 -4.78881836 5.06591797 C-5.83541374 5.05890869 -5.83541374 5.05890869 -6.90315247 5.05175781 C-8.42007427 5.04124633 -9.9369823 5.02858072 -11.45387077 5.01403427 C-13.85340994 4.99206328 -16.25287073 4.97795121 -18.65248108 4.96633911 C-25.47570552 4.93269211 -32.29879988 4.89105483 -39.12182617 4.82861328 C-43.29326104 4.79100104 -47.46456173 4.76795334 -51.63614082 4.75430679 C-53.22740991 4.74624179 -54.81866074 4.73261779 -56.40983391 4.71337509 C-58.63398741 4.68694734 -60.85749631 4.67900778 -63.08178711 4.67529297 C-64.34816513 4.66561493 -65.61454315 4.65593689 -66.91929626 4.64596558 C-69.97126364 4.74278668 -69.97126364 4.74278668 -71.91407776 6.37893677 C-73.38503876 8.57478533 -73.30127435 10.07068992 -73.1875 12.6875 C-73.16042969 13.49574219 -73.13335937 14.30398437 -73.10546875 15.13671875 C-73.07066406 15.75160156 -73.03585938 16.36648437 -73 17 C-73.99 16.67 -74.98 16.34 -76 16 C-76 13.03 -76 10.06 -76 7 C-75.34 7 -74.68 7 -74 7 C-73.67 6.01 -73.34 5.02 -73 4 C-68.70022733 1.29383101 -65.41609089 0.63239668 -60.38378906 0.67529297 C-59.08934875 0.67874725 -57.79490845 0.68220154 -56.46124268 0.6857605 C-55.06270115 0.70439752 -53.66416196 0.72321067 -52.265625 0.7421875 C-50.82168312 0.75033121 -49.37773218 0.75699173 -47.93377686 0.76223755 C-44.14669438 0.77929771 -40.35997428 0.81352548 -36.57305908 0.85229492 C-30.49815012 0.91166977 -24.42305419 0.94532516 -18.3479538 0.97806168 C-16.22620692 0.99203548 -14.10464028 1.01361824 -11.98297119 1.03634644 C-10.70113953 1.04610504 -9.41930786 1.05586365 -8.09863281 1.06591797 C-6.40036346 1.08282181 -6.40036346 1.08282181 -4.66778564 1.10006714 C-2.02555357 1.18501572 -2.02555357 1.18501572 0 0 Z " fill="#F8F8F8" transform="translate(288,195)"/>
<path d="M0 0 C1.35158203 0.15275391 1.35158203 0.15275391 2.73046875 0.30859375 C3.41753906 0.39238281 4.10460937 0.47617187 4.8125 0.5625 C3.75 3.4375 3.75 3.4375 1.8125 6.5625 C-0.50597874 7.2791207 -2.84069703 7.94492027 -5.1875 8.5625 C-5.826875 9.449375 -6.46625 10.33625 -7.125 11.25 C-7.805625 12.013125 -8.48625 12.77625 -9.1875 13.5625 C-12.05900596 13.70690842 -14.3408865 13.17926626 -17.1875 12.5625 C-17.91870988 9.93014441 -18.30117678 8.05983593 -17.6875 5.375 C-15.3849776 2.59278544 -12.61541423 2.32425872 -9.1875 1.5625 C-8.8575 1.8925 -8.5275 2.2225 -8.1875 2.5625 C-6.13353274 2.15320014 -6.13353274 2.15320014 -4.1875 1.5625 C-5.5075 1.2325 -6.8275 0.9025 -8.1875 0.5625 C-4.98734144 -0.50421952 -3.30205706 -0.38595472 0 0 Z " fill="#DEDDDE" transform="translate(246.1875,369.4375)"/>
<path d="M0 0 C33 0 66 0 100 0 C100 8.25 100 16.5 100 25 C99.67 25 99.34 25 99 25 C99 17.08 99 9.16 99 1 C96.69 1.33 94.38 1.66 92 2 C91.67 2.66 91.34 3.32 91 4 C89.35 3.67 87.7 3.34 86 3 C86 2.34 86 1.68 86 1 C82.37 1 78.74 1 75 1 C74.67 1.99 74.34 2.98 74 4 C73.01 3.01 73.01 3.01 72 2 C71.01 2 70.02 2 69 2 C68.06027344 1.98839844 67.12054688 1.97679687 66.15234375 1.96484375 C65.09144531 1.95582031 64.03054688 1.94679687 62.9375 1.9375 C61.87402344 1.92589844 60.81054688 1.91429687 59.71484375 1.90234375 C57.03252964 1.81091364 57.03252964 1.81091364 55 3 C55 2.34 55 1.68 55 1 C36.85 1 18.7 1 0 1 C0 0.67 0 0.34 0 0 Z " fill="#C2C2C2" transform="translate(198,150)"/>
<path d="M0 0 C1.97230911 1.18323231 1.97230911 1.18323231 4 3 C4.47657394 5.30569744 4.47657394 5.30569744 4.4430542 8.06828308 C4.4401387 9.11576218 4.43722321 10.16324127 4.43421936 11.24246216 C4.41048752 12.39116791 4.38675568 13.53987366 4.36230469 14.72338867 C4.35313522 15.9332695 4.34396576 17.14315033 4.33451843 18.38969421 C4.30543192 21.70810391 4.25848452 25.0253651 4.20364666 28.34338927 C4.15054732 31.81059279 4.1202035 35.27799286 4.08746338 38.74543762 C4.02199644 45.31171737 3.93601524 51.87756242 3.84269357 58.44349891 C3.7374484 65.91847191 3.65502605 73.39364174 3.5745368 80.86891592 C3.40845008 96.24630498 3.21364988 111.62319379 3 127 C2.67 127 2.34 127 2 127 C1.99576806 126.38192915 1.99153612 125.7638583 1.98717594 125.12705803 C1.88380959 110.07851233 1.77516296 95.03001477 1.66066074 79.98155022 C1.60541499 72.70418752 1.55194739 65.42681993 1.50268555 58.14941406 C1.45973757 51.80541929 1.41343318 45.46145935 1.36312145 39.11751854 C1.3366058 35.75938602 1.31175527 32.40126002 1.29092598 29.04308701 C1.26681254 25.29153393 1.23676722 21.54007201 1.20532227 17.78857422 C1.1995668 16.67870651 1.19381134 15.56883881 1.18788147 14.42533875 C1.14103155 9.51311003 1.03887836 4.82627607 0 0 Z " fill="#EFEFEF" transform="translate(348,177)"/>
<path d="M0 0 C2.39591038 -0.02712351 4.79150957 -0.0468982 7.1875 -0.0625 C7.86103516 -0.07087891 8.53457031 -0.07925781 9.22851562 -0.08789062 C12.96579374 -0.10612125 16.36395239 0.15307472 20 1 C21.7325 1.185625 21.7325 1.185625 23.5 1.375 C27.03801015 2.00678753 29.15063469 2.84138991 32 5 C32 5.66 32 6.32 32 7 C27.25 5.125 27.25 5.125 25 4 C16.75 3.67 8.5 3.34 0 3 C0 19.83 0 36.66 0 54 C-0.33 54 -0.66 54 -1 54 C-1.0252908 46.63102956 -1.04284179 39.26207026 -1.05493164 31.89306641 C-1.05997003 29.38459861 -1.06680084 26.87613376 -1.07543945 24.36767578 C-1.08752661 20.7685473 -1.09323315 17.16945753 -1.09765625 13.5703125 C-1.10281754 12.44319855 -1.10797882 11.31608459 -1.11329651 10.15481567 C-1.11337204 9.11388763 -1.11344757 8.07295959 -1.11352539 7.00048828 C-1.115746 6.08115509 -1.11796661 5.1618219 -1.12025452 4.21463013 C-1 2 -1 2 0 0 Z " fill="#F8F8F8" transform="translate(188,355)"/>
<path d="M0 0 C1.16402344 0.31839844 2.32804688 0.63679688 3.52734375 0.96484375 C9.77731826 2.3506068 16.07274813 2.39725965 22.44555664 2.52127075 C26.00710483 2.59063489 29.56792728 2.68763994 33.12890625 2.78125 C34.16369614 2.80730064 34.16369614 2.80730064 35.21939087 2.83387756 C42.49541155 3.02353583 49.74374714 3.43907256 57 4 C57 4.33 57 4.66 57 5 C48.33541575 5.40290424 39.66948436 5.72313473 31 6 C29.77812988 6.0422168 28.55625977 6.08443359 27.29736328 6.12792969 C23.76073706 6.23902789 20.22528381 6.31253593 16.6875 6.375 C15.59195801 6.41302734 14.49641602 6.45105469 13.36767578 6.49023438 C4.9020794 6.58073281 4.9020794 6.58073281 1.76953125 3.5390625 C0 1 0 1 0 0 Z " fill="#D5D6D6" transform="translate(187,317)"/>
<path d="M0 0 C0.33 0 0.66 0 1 0 C0.525 7.125 0.525 7.125 -1.5 10.5 C-4.77827164 12.46696298 -7.22593874 12.27348881 -10.9765625 12.04296875 C-13.07088974 11.84123564 -13.07088974 11.84123564 -15 13 C-15.66 12.67 -16.32 12.34 -17 12 C-17 11.34 -17 10.68 -17 10 C-19.31 10 -21.62 10 -24 10 C-24.33 10.99 -24.66 11.98 -25 13 C-25.66 11.35 -26.32 9.7 -27 8 C-24.58301501 6.05081856 -22.81253599 4.99184746 -19.6640625 5.0234375 C-17.42635527 5.28462099 -15.21672195 5.59915486 -13 6 C-13.99 6.495 -13.99 6.495 -15 7 C-15 7.66 -15 8.32 -15 9 C-11.69432511 9.85387105 -11.69432511 9.85387105 -8 10 C-5.47688989 8.39450853 -5.47688989 8.39450853 -4 6 C-4 5.01 -4 4.02 -4 3 C-3.01 3 -2.02 3 -1 3 C-0.67 2.01 -0.34 1.02 0 0 Z M-2 4 C-2.33 4.66 -2.66 5.32 -3 6 C-2.34 6 -1.68 6 -1 6 C-1.33 5.34 -1.66 4.68 -2 4 Z " fill="#E9E9E9" transform="translate(292,403)"/>
<path d="M0 0 C8.58 0 17.16 0 26 0 C25.67 1.98 25.34 3.96 25 6 C23.54207116 6.05399736 22.08357288 6.09279177 20.625 6.125 C19.81289063 6.14820313 19.00078125 6.17140625 18.1640625 6.1953125 C16 6 16 6 14 4 C11.16790836 3.79454782 11.16790836 3.79454782 8 3.9375 C2.19589977 4.09794989 2.19589977 4.09794989 0 3 C0 2.01 0 1.02 0 0 Z M2 1 C2 1.33 2 1.66 2 2 C3.98 2 5.96 2 8 2 C8 1.67 8 1.34 8 1 C6.02 1 4.04 1 2 1 Z " fill="#FBFBFB" transform="translate(317,391)"/>
<path d="M0 0 C0.33 0 0.66 0 1 0 C2.60666308 34.90205657 2.60666308 34.90205657 0 48 C-0.33 48 -0.66 48 -1 48 C-1.02474909 41.96769509 -1.04288334 35.93541985 -1.05493164 29.90307617 C-1.0599553 27.85163864 -1.06677537 25.80020468 -1.07543945 23.7487793 C-1.08759112 20.7973543 -1.09324804 17.84597673 -1.09765625 14.89453125 C-1.10281754 13.97976517 -1.10797882 13.06499908 -1.11329651 12.12251282 C-1.11366265 7.95115808 -1.06733315 4.06620692 0 0 Z " fill="#E8E8E8" transform="translate(189,155)"/>
<path d="M0 0 C0.66 0.66 1.32 1.32 2 2 C1.43152344 1.96519531 0.86304688 1.93039062 0.27734375 1.89453125 C-5.18821472 1.70291735 -9.16116719 2.15362776 -14 5 C-15.65457147 6.92380647 -16.75690159 8.76242286 -18 11 C-17.67 11.66 -17.34 12.32 -17 13 C-17.27942455 14.67654729 -17.60828247 16.34608154 -18 18 C-18.66 17.67 -19.32 17.34 -20 17 C-20.33 20.3 -20.66 23.6 -21 27 C-21.99 26.67 -22.98 26.34 -24 26 C-23.979375 25.278125 -23.95875 24.55625 -23.9375 23.8125 C-23.99820559 21.08074862 -24.39258535 18.65743909 -25 16 C-24.34 16.33 -23.68 16.66 -23 17 C-21.77726918 15.99066398 -21.77726918 15.99066398 -21.8125 13.9375 C-20.29349486 8.44571218 -16.78902433 4.27219508 -12.1875 1 C-8.11949653 -0.27623638 -4.23266831 -0.65183092 0 0 Z " fill="#F5F5F5" transform="translate(286,368)"/>
<path d="M0 0 C1.98 0 3.96 0 6 0 C6.02505615 0.72590332 6.0501123 1.45180664 6.07592773 2.19970703 C6.19241241 5.50829446 6.31490014 8.81663376 6.4375 12.125 C6.47681641 13.26710937 6.51613281 14.40921875 6.55664062 15.5859375 C6.59853516 16.69453125 6.64042969 17.803125 6.68359375 18.9453125 C6.72025146 19.96125488 6.75690918 20.97719727 6.79467773 22.02392578 C7.00464568 25.06733757 7.45061296 28.00085508 8 31 C1.76339887 23.4648189 2.73796394 13.28772257 3 4 C1.68 3.67 0.36 3.34 -1 3 C-0.67 2.01 -0.34 1.02 0 0 Z " fill="#F6F6F6" transform="translate(291,151)"/>
<path d="M0 0 C0.99 0 1.98 0 3 0 C5 2 5 2 6 8 C-0.27 8 -6.54 8 -13 8 C-13 7.67 -13 7.34 -13 7 C-7.39 7 -1.78 7 4 7 C2.81147145 5.58225162 2.81147145 5.58225162 -0.59765625 5.90234375 C-2.08596867 5.9090178 -3.57426432 5.92097817 -5.0625 5.9375 C-6.20041992 5.94426758 -6.20041992 5.94426758 -7.36132812 5.95117188 C-9.24091871 5.9629932 -11.12046899 5.98092922 -13 6 C-11.70582725 3.4116545 -10.69187914 2.98827731 -8 2 C-5.640625 2.2421875 -5.640625 2.2421875 -3.25 2.875 C-2.45078125 3.07867187 -1.6515625 3.28234375 -0.828125 3.4921875 C-0.22484375 3.65976562 0.3784375 3.82734375 1 4 C1 3.34 1 2.68 1 2 C0.34 1.67 -0.32 1.34 -1 1 C-0.67 0.67 -0.34 0.34 0 0 Z " fill="#F5F6F6" transform="translate(330,379)"/>
<path d="M0 0 C0.66 0.33 1.32 0.66 2 1 C2 2.98 2 4.96 2 7 C1.05898437 7.09796875 0.11796875 7.1959375 -0.8515625 7.296875 C-10.2280194 8.23805188 -10.2280194 8.23805188 -18 13 C-20.46270288 16.69405432 -20.22985417 18.63277072 -20 23 C-19.57145005 25.31036915 -19.57145005 25.31036915 -19 27 C-19.66 26.67 -20.32 26.34 -21 26 C-21 25.34 -21 24.68 -21 24 C-21.66 23.67 -22.32 23.34 -23 23 C-21.96363636 12.63636364 -21.96363636 12.63636364 -17.375 8.8125 C-16.59125 8.214375 -15.8075 7.61625 -15 7 C-15 6.67 -15 6.34 -15 6 C-13.39125 6.061875 -13.39125 6.061875 -11.75 6.125 C-8.17678042 6.00589268 -7.00858853 5.55616648 -4 4 C-1.75 4.375 -1.75 4.375 0 5 C0 3.35 0 1.7 0 0 Z " fill="#F9F9F9" transform="translate(248,378)"/>
<path d="M0 0 C0.66 0.33 1.32 0.66 2 1 C1.67 3.64 1.34 6.28 1 9 C1.99 9.66 2.98 10.32 4 11 C4 11.66 4 12.32 4 13 C12.58 13 21.16 13 30 13 C30 13.33 30 13.66 30 14 C5.14741474 16.07370737 5.14741474 16.07370737 -1 13 C-2.17664871 9.47005387 -2.19850603 6.70544587 -2 3 C-1.34 2.01 -0.68 1.02 0 0 Z " fill="#D7D7D7" transform="translate(216,200)"/>
<path d="M0 0 C1 2 1 2 0.5 3.875 C-0.07613809 6.32358686 0.30796987 7.61634066 1 10 C1 10.99 1 11.98 1 13 C1.26546015 15.02566511 1.56912257 17.04316937 1.87890625 19.0625 C2 21 2 21 1 24 C0.34 24 -0.32 24 -1 24 C-1.53154742 22.39935157 -2.04988353 20.79431126 -2.5625 19.1875 C-2.85253906 18.29417969 -3.14257812 17.40085937 -3.44140625 16.48046875 C-4 14 -4 14 -3 11 C-3.66 10.67 -4.32 10.34 -5 10 C-4.34 10 -3.68 10 -3 10 C-2.86722656 9.36191406 -2.73445313 8.72382813 -2.59765625 8.06640625 C-2.42105469 7.24011719 -2.24445313 6.41382813 -2.0625 5.5625 C-1.88847656 4.73878906 -1.71445312 3.91507812 -1.53515625 3.06640625 C-1 1 -1 1 0 0 Z " fill="#F6F6F5" transform="translate(309,377)"/>
<path d="M0 0 C0.66 0 1.32 0 2 0 C1.51834131 6.38197767 1.51834131 6.38197767 -0.625 8.9375 C-3.86723298 10.38797265 -6.48944334 10.26004123 -10 10 C-10.66 9.67 -11.32 9.34 -12 9 C-11.67 8.34 -11.34 7.68 -11 7 C-8.33333333 7 -5.66666667 7 -3 7 C-4.36983503 3.83884224 -4.9890638 3.0072908 -8 1 C-5.36 1.33 -2.72 1.66 0 2 C0 1.34 0 0.68 0 0 Z " fill="#FAF9FA" transform="translate(249,391)"/>
<path d="M0 0 C1.62463842 -0.05395478 3.24978541 -0.09277195 4.875 -0.125 C6.23238281 -0.15980469 6.23238281 -0.15980469 7.6171875 -0.1953125 C10 0 10 0 12 2 C13.31747324 2.69748583 14.64914193 3.36959957 16 4 C12.80618175 5.59690912 10.28320241 4.01480802 7 3 C6.67 3 6.34 3 6 3 C5.34 3.66 4.68 4.32 4 5 C2.125 5.4140625 2.125 5.4140625 0 5.625 C-1.051875 5.73714844 -1.051875 5.73714844 -2.125 5.8515625 C-4 6 -4 6 -6 6 C-6.99 6.33 -7.98 6.66 -9 7 C-9 6.34 -9 5.68 -9 5 C-3.7265625 1.77734375 -3.7265625 1.77734375 -2 1 C-1.34 1.33 -0.68 1.66 0 2 C0 1.34 0 0.68 0 0 Z " fill="#F4F3F3" transform="translate(240,367)"/>
<path d="M0 0 C0.33 0 0.66 0 1 0 C0.52238806 7.1641791 0.52238806 7.1641791 -1.5625 10.5 C-5.26850029 12.78061557 -7.6788461 12.48012821 -12 12 C-14 10.5 -14 10.5 -15 9 C-13.39125 9.37125 -13.39125 9.37125 -11.75 9.75 C-8.00982848 10.39858007 -8.00982848 10.39858007 -5.5625 8.25 C-3.7148021 6.04586933 -3.7148021 6.04586933 -4 3 C-3.01 3 -2.02 3 -1 3 C-0.67 2.01 -0.34 1.02 0 0 Z M-2 4 C-2.33 4.66 -2.66 5.32 -3 6 C-2.34 6 -1.68 6 -1 6 C-1.33 5.34 -1.66 4.68 -2 4 Z " fill="#F9F9F9" transform="translate(292,403)"/>
<path d="M0 0 C0.78761719 0.07863281 1.57523437 0.15726562 2.38671875 0.23828125 C3.02222656 0.38652344 3.65773438 0.53476562 4.3125 0.6875 C4.6425 1.3475 4.9725 2.0075 5.3125 2.6875 C4.64863281 2.65269531 3.98476563 2.61789062 3.30078125 2.58203125 C-1.95706262 2.42084188 -5.35892426 2.37741267 -9.6875 5.6875 C-11.01358822 6.36846422 -12.34436601 7.04080586 -13.6875 7.6875 C-13.6875 8.3475 -13.6875 9.0075 -13.6875 9.6875 C-14.6775 10.0175 -15.6675 10.3475 -16.6875 10.6875 C-15.29428155 5.81123543 -12.74891704 3.61172027 -8.6875 0.6875 C-5.65828938 -0.36370451 -3.17011682 -0.35107079 0 0 Z " fill="#D7D7D7" transform="translate(283.6875,369.3125)"/>
<path d="M0 0 C0.61875 0.165 1.2375 0.33 1.875 0.5 C7.84110999 1.4545776 14.12929877 1.56552033 20 0 C18.39636704 2.67272161 17.15968839 3.9163537 14.375 5.375 C10.02585895 6.18039649 6.05714238 5.86628549 2 4 C0.734375 1.9140625 0.734375 1.9140625 0 0 Z " fill="#EDECEC" transform="translate(274,419)"/>
<path d="M0 0 C2.50037734 2.17424117 3.43628586 3.73045798 4 7 C4.66 6.67 5.32 6.34 6 6 C6.125 9.375 6.125 9.375 6 13 C3.5 15.5 3.5 15.5 1 18 C0.01 17.67 -0.98 17.34 -2 17 C-2 16.34 -2 15.68 -2 15 C-1.01 14.67 -0.02 14.34 1 14 C0.979375 12.72125 0.95875 11.4425 0.9375 10.125 C0.875 6.25 0.875 6.25 2 4 C1.34 4 0.68 4 0 4 C0 2.68 0 1.36 0 0 Z " fill="#F9F9F9" transform="translate(289,380)"/>
<path d="M0 0 C3.90285767 1.58667578 6.33520982 4.13350481 9.25 7.125 C10.14203125 8.03507813 11.0340625 8.94515625 11.953125 9.8828125 C12.62859375 10.58148438 13.3040625 11.28015625 14 12 C13.67 12.66 13.34 13.32 13 14 C12.34 13.34 11.68 12.68 11 12 C7.91652174 11.83318891 7.91652174 11.83318891 5 12 C5.99 11.01 6.98 10.02 8 9 C6.68 7.68 5.36 6.36 4 5 C3.67 6.98 3.34 8.96 3 11 C2.67 11 2.34 11 2 11 C2 8.69 2 6.38 2 4 C1.34 4 0.68 4 0 4 C0 2.68 0 1.36 0 0 Z " fill="#FAFAFA" transform="translate(311,159)"/>
<path d="M0 0 C0.33 0 0.66 0 1 0 C1.33 4.62 1.66 9.24 2 14 C1.01 14 0.02 14 -1 14 C-1 14.66 -1 15.32 -1 16 C-3.96175123 15.38722388 -5.38058783 14.74627478 -8 13 C-6 11 -6 11 -2.875 10.875 C-1.92625 10.91625 -0.9775 10.9575 0 11 C0 7.37 0 3.74 0 0 Z " fill="#E8E7E8" transform="translate(196,395)"/>
<path d="M0 0 C0 3.24244455 -0.08730376 4.42201811 -2 7 C-8.46021479 10.0147669 -15.090419 8.76888571 -22 8 C-22 7.67 -22 7.34 -22 7 C-20.91460937 6.91363281 -19.82921875 6.82726562 -18.7109375 6.73828125 C-17.2655136 6.59749321 -15.82020654 6.45550205 -14.375 6.3125 C-13.66214844 6.25900391 -12.94929687 6.20550781 -12.21484375 6.15039062 C-6.6612024 5.56445599 -3.99118456 3.8967559 0 0 Z " fill="#E7E6E6" transform="translate(220,382)"/>
<path d="M0 0 C2.3125 -0.3125 2.3125 -0.3125 5 0 C6.875 1.8125 6.875 1.8125 8 5 C7.94267449 8.71052412 7.53345617 12.33007862 7 16 C6.67 16 6.34 16 6 16 C5.85304687 15.02160156 5.85304687 15.02160156 5.703125 14.0234375 C4.73513262 8.36568892 3.56508917 4.51577961 0 0 Z " fill="#DFDFDF" transform="translate(216,362)"/>
<path d="M0 0 C1.7290774 -0.02725341 3.45828176 -0.04650987 5.1875 -0.0625 C6.15042969 -0.07410156 7.11335937 -0.08570313 8.10546875 -0.09765625 C10.85576513 -0.00486622 13.32479591 0.37888315 16 1 C16 1.66 16 2.32 16 3 C14.02 3.99 14.02 3.99 12 5 C12 4.34 12 3.68 12 3 C11.443125 3.185625 10.88625 3.37125 10.3125 3.5625 C7.600867 4.07551165 5.65628961 3.6640724 3 3 C2.67 3.66 2.34 4.32 2 5 C1.34 3.35 0.68 1.7 0 0 Z " fill="#EFEEEE" transform="translate(197,364)"/>
<path d="M0 0 C0.33 0 0.66 0 1 0 C0.96519531 0.93972656 0.96519531 0.93972656 0.9296875 1.8984375 C0.91164062 2.71570313 0.89359375 3.53296875 0.875 4.375 C0.85179687 5.18710937 0.82859375 5.99921875 0.8046875 6.8359375 C0.78629949 9.21342243 0.78629949 9.21342243 3 11 C2.67 11.66 2.34 12.32 2 13 C0.125 12.8125 0.125 12.8125 -2 12 C-4.09242143 8.3382625 -4.19324053 5.15467129 -4 1 C-2 3 -2 3 -1 6 C-0.67 4.02 -0.34 2.04 0 0 Z " fill="#ECECEC" transform="translate(192,292)"/>
<path d="M0 0 C1.32 0 2.64 0 4 0 C2.68874798 5.6383837 0.671254 7.85405343 -4 11 C-4.99 10.67 -5.98 10.34 -7 10 C-5.1875 8 -5.1875 8 -3 6 C-2.01 6 -1.02 6 0 6 C0 5.34 0 4.68 0 4 C-0.99 3.67 -1.98 3.34 -3 3 C-1.35 2.34 0.3 1.68 2 1 C1.34 0.67 0.68 0.34 0 0 Z " fill="#D5D5D5" transform="translate(339,397)"/>
<path d="M0 0 C0.33 0 0.66 0 1 0 C2.06584597 7.4451315 1.93902231 14.56234873 1.5625 22.0625 C1.51029297 23.21427734 1.45808594 24.36605469 1.40429688 25.55273438 C1.27576087 28.36884135 1.1408555 31.18448692 1 34 C0.67 34 0.34 34 0 34 C0 22.78 0 11.56 0 0 Z " fill="#FEFEFE" transform="translate(192,188)"/>
<path d="M0 0 C2.31 1.98 4.62 3.96 7 6 C7 5.34 7 4.68 7 4 C7.66 4 8.32 4 9 4 C10.38938077 5.96147874 11.7260411 7.96166576 13 10 C12.34 10 11.68 10 11 10 C10.67 10.66 10.34 11.32 10 12 C9.67 11.01 9.34 10.02 9 9 C8.4225 8.71125 7.845 8.4225 7.25 8.125 C4.20774755 6.60387378 2.26157493 4.51286104 0 2 C0 1.34 0 0.68 0 0 Z " fill="#E9E9EA" transform="translate(334,162)"/>
<path d="M0 0 C2.97 0.495 2.97 0.495 6 1 C6 1.66 6 2.32 6 3 C8.78823655 4.0326802 9.8677274 4.04509293 12.75 3.0625 C13.4925 2.711875 14.235 2.36125 15 2 C14 5 14 5 12 6 C7.79633033 6.39657261 5.66776745 6.42623455 2.0625 4.125 C0 2 0 2 0 0 Z M3 2 C3.66 2.66 4.32 3.32 5 4 C5 3.34 5 2.68 5 2 C4.34 2 3.68 2 3 2 Z " fill="#F8F8F8" transform="translate(318,395)"/>
<path d="M0 0 C1.051875 0.16048828 1.051875 0.16048828 2.125 0.32421875 C3.176875 0.47310547 3.176875 0.47310547 4.25 0.625 C6.125 1.01171875 6.125 1.01171875 8.125 2.01171875 C7.795 2.67171875 7.465 3.33171875 7.125 4.01171875 C6.465 4.01171875 5.805 4.01171875 5.125 4.01171875 C4.465 4.67171875 3.805 5.33171875 3.125 6.01171875 C-0.34 4.03171875 -0.34 4.03171875 -3.875 2.01171875 C-1.875 0.01171875 -1.875 0.01171875 0 0 Z " fill="#E9E8E9" transform="translate(282.875,374.98828125)"/>
<path d="M0 0 C3 1 3 1 4.6875 3.4375 C6.39236329 8.06498606 6.26008597 12.12579634 6 17 C5.67 17 5.34 17 5 17 C4.67 15.35 4.34 13.7 4 12 C3.67 12 3.34 12 3 12 C2.67 8.7 2.34 5.4 2 2 C1.34 2 0.68 2 0 2 C0 1.34 0 0.68 0 0 Z " fill="#D3D3D4" transform="translate(337,374)"/>
<path d="M0 0 C2.1047116 3.42015636 2.16877959 6.03367953 2 10 C2 10.99 2 11.98 2 13 C1.01 12.67 0.02 12.34 -1 12 C-1.66 13.32 -2.32 14.64 -3 16 C-3.66 15.67 -4.32 15.34 -5 15 C-4.505 14.4225 -4.01 13.845 -3.5 13.25 C-1.63019987 10.89599371 -1.63019987 10.89599371 -2 7 C-1.34 7 -0.68 7 0 7 C0 4.69 0 2.38 0 0 Z " fill="#D4D4D5" transform="translate(223,371)"/>
<path d="M0 0 C0.33 0 0.66 0 1 0 C1 9.57 1 19.14 1 29 C0.67 29 0.34 29 0 29 C0 19.43 0 9.86 0 0 Z " fill="#FEFEFE" transform="translate(192,230)"/>
<path d="M0 0 C1.32 0.33 2.64 0.66 4 1 C4 1.33 4 1.66 4 2 C6.97 2.495 6.97 2.495 10 3 C9.01 4.485 9.01 4.485 8 6 C6 6 4 6 2 6 C0 3 0 3 0 0 Z " fill="#F4F4F4" transform="translate(250,405)"/>
<path d="M0 0 C0.66 0.33 1.32 0.66 2 1 C1.67 2.32 1.34 3.64 1 5 C-3.61073111 6.29676812 -7.33840089 5.71109139 -12 5 C-12 4.67 -12 4.34 -12 4 C-10.95199219 3.81824219 -10.95199219 3.81824219 -9.8828125 3.6328125 C-8.51769531 3.38144531 -8.51769531 3.38144531 -7.125 3.125 C-5.76761719 2.88136719 -5.76761719 2.88136719 -4.3828125 2.6328125 C-1.83494012 2.16955297 -1.83494012 2.16955297 0 0 Z " fill="#E8E8E8" transform="translate(248,403)"/>
<path d="M0 0 C0 0.33 0 0.66 0 1 C-1.65 1 -3.3 1 -5 1 C-5.33 2.32 -5.66 3.64 -6 5 C-6.99 4.67 -7.98 4.34 -9 4 C-8.67 3.67 -8.34 3.34 -8 3 C-10.64 3 -13.28 3 -16 3 C-11.918638 -1.081362 -5.43630843 -0.09372946 0 0 Z " fill="#D0D0CF" transform="translate(250,385)"/>
<path d="M0 0 C4.95 0 9.9 0 15 0 C14.01 0.495 14.01 0.495 13 1 C13 1.66 13 2.32 13 3 C8.62065881 2.48041715 4.31196609 1.94324258 0 1 C0 0.67 0 0.34 0 0 Z " fill="#E8E7E8" transform="translate(324,190)"/>
<path d="M0 0 C3.48331435 3.01887244 4.79157144 5.56909529 6 10 C3.15425032 8.72431911 0.81910019 7.58503711 -1 5 C-0.6875 2.3125 -0.6875 2.3125 0 0 Z " fill="#EAE9E9" transform="translate(300,179)"/>
<path d="M0 0 C2 1 2 1 3.125 3.25 C4.00513321 6.01613295 4.1645438 8.12048351 4 11 C3.01 10.67 2.02 10.34 1 10 C1.020625 9.278125 1.04125 8.55625 1.0625 7.8125 C1.00179441 5.08074862 0.60741465 2.65743909 0 0 Z " fill="#FEFEFE" transform="translate(261,384)"/>
<path d="M0 0 C1.65 0 3.3 0 5 0 C5 2.31 5 4.62 5 7 C4.34 6.67 3.68 6.34 3 6 C3 5.34 3 4.68 3 4 C1.68 3.67 0.36 3.34 -1 3 C-0.67 2.01 -0.34 1.02 0 0 Z " fill="#FDFDFD" transform="translate(291,151)"/>
<path d="M0 0 C0.66 0.33 1.32 0.66 2 1 C2 1.66 2 2.32 2 3 C2.78375 3.28875 3.5675 3.5775 4.375 3.875 C7 5 7 5 9 7 C7.33157466 6.67558396 5.66519519 6.34060811 4 6 C2.9171875 5.8453125 2.9171875 5.8453125 1.8125 5.6875 C0 5 0 5 -1.25 2.9375 C-1.62125 1.9784375 -1.62125 1.9784375 -2 1 C-1.34 0.67 -0.68 0.34 0 0 Z " fill="#EBEBEB" transform="translate(312,400)"/>
<path d="M0 0 C3.5 0.25 3.5 0.25 5.5 2.25 C2.97946405 3.51026798 1.6457902 3.16874445 -1.125 2.8125 C-2.35089844 2.65974609 -2.35089844 2.65974609 -3.6015625 2.50390625 C-4.22804688 2.42011719 -4.85453125 2.33632813 -5.5 2.25 C-3.5 0.25 -3.5 0.25 0 0 Z " fill="#E5E4E5" transform="translate(325.5,374.75)"/>
<path d="M0 0 C-0.33 0.99 -0.66 1.98 -1 3 C-4.69418201 3 -6.77836178 1.71820705 -10 0 C-6.22996568 -2.61002376 -4.07631429 -1.66758312 0 0 Z " fill="#EAEAEA" transform="translate(339,372)"/>
<path d="M0 0 C3.81684226 1.55500981 6.19195732 4.03595495 9 7 C8.67 7.99 8.34 8.98 8 10 C7.67 9.01 7.34 8.02 7 7 C6.34 6.67 5.68 6.34 5 6 C3 5 3 5 2 2 C1.34 2 0.68 2 0 2 C0 1.34 0 0.68 0 0 Z " fill="#D9D9DA" transform="translate(323,149)"/>
<path d="M0 0 C0.33 0.66 0.66 1.32 1 2 C0.0625 4.125 0.0625 4.125 -1 6 C-1.33 5.34 -1.66 4.68 -2 4 C-4.97 4 -7.94 4 -11 4 C-11.33 3.34 -11.66 2.68 -12 2 C-11.07767578 2.03480469 -11.07767578 2.03480469 -10.13671875 2.0703125 C-8.92435547 2.09738281 -8.92435547 2.09738281 -7.6875 2.125 C-6.48673828 2.15980469 -6.48673828 2.15980469 -5.26171875 2.1953125 C-2.71611424 2.15817322 -2.71611424 2.15817322 0 0 Z " fill="#CFCFCF" transform="translate(249,398)"/>
<path d="M0 0 C1.32 0.33 2.64 0.66 4 1 C4.66 3.31 5.32 5.62 6 8 C4.125 7.75 4.125 7.75 2 7 C0.27898465 4.41847698 0 3.15081975 0 0 Z " fill="#EAEAEB" transform="translate(266,397)"/>
<path d="M0 0 C4.62 0.66 9.24 1.32 14 2 C14 2.33 14 2.66 14 3 C12.42120045 3.27719381 10.83646933 3.52074143 9.25 3.75 C7.92742187 3.95882813 7.92742187 3.95882813 6.578125 4.171875 C4 4 4 4 0 0 Z " fill="#CECFCF" transform="translate(188,319)"/>
<path d="M0 0 C-3.53411321 2.12046792 -6.94393835 2.53199289 -11 3 C-10.34 2.67 -9.68 2.34 -9 2 C-9 1.34 -9 0.68 -9 0 C-5.52176885 -1.15941038 -3.54104422 -0.70820884 0 0 Z " fill="#E4E4E3" transform="translate(328,370)"/>
<path d="M0 0 C1.32 0.33 2.64 0.66 4 1 C3.67 4.63 3.34 8.26 3 12 C2.67 12 2.34 12 2 12 C1.34 8.04 0.68 4.08 0 0 Z " fill="#EDEDED" transform="translate(220,366)"/>
<path d="M0 0 C0.99 0 1.98 0 3 0 C3 2.31 3 4.62 3 7 C2.34 5.68 1.68 4.36 1 3 C-0.98 3.99 -0.98 3.99 -3 5 C-1.6875 2.5 -1.6875 2.5 0 0 Z " fill="#CACBCB" transform="translate(291,401)"/>
<path d="M0 0 C3.3 0 6.6 0 10 0 C8.515 1.485 8.515 1.485 7 3 C4.69 2.34 2.38 1.68 0 1 C0 0.67 0 0.34 0 0 Z " fill="#D5D5D5" transform="translate(279,422)"/>
<path d="M0 0 C0 0.66 0 1.32 0 2 C0.66 2 1.32 2 2 2 C1.67 2.66 1.34 3.32 1 4 C-0.98 4 -2.96 4 -5 4 C-4.67 3.01 -4.34 2.02 -4 1 C-2 0 -2 0 0 0 Z " fill="#E3E3E3" transform="translate(339,396)"/>
<path d="M0 0 C0.125 3.375 0.125 3.375 0 7 C-0.66 7.66 -1.32 8.32 -2 9 C-3.35439668 6.29120665 -3.06501451 3.99066732 -3 1 C-1 0 -1 0 0 0 Z " fill="#EDEDEC" transform="translate(295,386)"/>
<path d="M0 0 C0.99 0.33 1.98 0.66 3 1 C4.37001429 4.1967 3.8252404 6.69903842 3 10 C1.11608215 6.73454239 0.50712033 3.71888239 0 0 Z " fill="#D5D6D5" transform="translate(291,381)"/>
<path d="M0 0 C2.97 0 5.94 0 9 0 C8.01 0.33 7.02 0.66 6 1 C5.67 1.99 5.34 2.98 5 4 C4.34 3.34 3.68 2.68 3 2 C2.01 2 1.02 2 0 2 C0 1.34 0 0.68 0 0 Z " fill="#DADADA" transform="translate(267,150)"/>
<path d="M0 0 C2.64 0 5.28 0 8 0 C8 0.99 8 1.98 8 3 C7.01 2.67 6.02 2.34 5 2 C3.00038436 1.96079185 0.99950636 1.95556653 -1 2 C-0.67 1.34 -0.34 0.68 0 0 Z " fill="#FEFEFE" transform="translate(234,152)"/>
<path d="M0 0 C3.63 0 7.26 0 11 0 C11 0.33 11 0.66 11 1 C7.7 1.33 4.4 1.66 1 2 C0.67 1.34 0.34 0.68 0 0 Z " fill="#FFFFFF" transform="translate(219,152)"/>
<path d="M0 0 C0.99 0.495 0.99 0.495 2 1 C1.67 3.64 1.34 6.28 1 9 C0.67 9 0.34 9 0 9 C0 6.03 0 3.06 0 0 Z " fill="#FEFEFE" transform="translate(192,160)"/>
<path d="M0 0 C2.64 0.33 5.28 0.66 8 1 C8 1.33 8 1.66 8 2 C5.125 2.125 5.125 2.125 2 2 C1.34 1.34 0.68 0.68 0 0 Z " fill="#FFFFFF" transform="translate(310,193)"/>
<path d="M0 0 C0.99 0.495 0.99 0.495 2 1 C1.67 3.64 1.34 6.28 1 9 C0.67 9 0.34 9 0 9 C0 6.03 0 3.06 0 0 Z " fill="#FEFEFE" transform="translate(192,170)"/>
<path d="M0 0 C0.33 0 0.66 0 1 0 C1.33 2.31 1.66 4.62 2 7 C1.34 7 0.68 7 0 7 C0 4.69 0 2.38 0 0 Z " fill="#FEFEFE" transform="translate(192,276)"/>
<path d="M0 0 C0.99 0.495 0.99 0.495 2 1 C1.67 2.98 1.34 4.96 1 7 C0.67 7 0.34 7 0 7 C0 4.69 0 2.38 0 0 Z " fill="#FEFEFE" transform="translate(192,180)"/>
<path d="M0 0 C1.65 0 3.3 0 5 0 C5 0.66 5 1.32 5 2 C3.35 1.67 1.7 1.34 0 1 C0 0.67 0 0.34 0 0 Z " fill="#FFFEFE" transform="translate(212,152)"/>
<path d="M0 0 C1.98 0.495 1.98 0.495 4 1 C2.35 1.33 0.7 1.66 -1 2 C-0.67 1.34 -0.34 0.68 0 0 Z " fill="#FEFEFE" transform="translate(284,409)"/>
<path d="M0 0 C0.33 0 0.66 0 1 0 C1 2.31 1 4.62 1 7 C0.67 7 0.34 7 0 7 C0 4.69 0 2.38 0 0 Z " fill="#FEFEFE" transform="translate(192,268)"/>
<path d="M0 0 C0.33 0 0.66 0 1 0 C1 2.31 1 4.62 1 7 C0.67 7 0.34 7 0 7 C0 4.69 0 2.38 0 0 Z " fill="#FEFEFE" transform="translate(192,260)"/>
<path d="M0 0 C2.475 0.495 2.475 0.495 5 1 C3.68 1.33 2.36 1.66 1 2 C0.67 1.34 0.34 0.68 0 0 Z " fill="#FFFFFF" transform="translate(262,152)"/>
<path d="M0 0 C0 0.66 0 1.32 0 2 C-1.32 1.67 -2.64 1.34 -4 1 C-2 0 -2 0 0 0 Z " fill="#FEFEFE" transform="translate(340,321)"/>
<path d="M0 0 C0.99 0 1.98 0 3 0 C3 0.66 3 1.32 3 2 C2.01 2 1.02 2 0 2 C0 1.34 0 0.68 0 0 Z " fill="#FEFEFE" transform="translate(247,152)"/>
<path d="M0 0 C1.32 0 2.64 0 4 0 C3.67 0.66 3.34 1.32 3 2 C2.01 1.34 1.02 0.68 0 0 Z " fill="#FEFEFE" transform="translate(277,424)"/>
<path d="M0 0 C1.485 0.99 1.485 0.99 3 2 C2.01 2 1.02 2 0 2 C0 1.34 0 0.68 0 0 Z " fill="#FEFEFE" transform="translate(228,382)"/>
<path d="M0 0 C0.33 0 0.66 0 1 0 C1 1.65 1 3.3 1 5 C0.67 5 0.34 5 0 5 C0 3.35 0 1.7 0 0 Z " fill="#FEFEFE" transform="translate(192,286)"/>
<path d="M0 0 C0.66 1.32 1.32 2.64 2 4 C1.34 3.67 0.68 3.34 0 3 C0 2.01 0 1.02 0 0 Z " fill="#FFFFFF" transform="translate(296,208)"/>
<path d="M0 0 C0.66 0 1.32 0 2 0 C2 0.66 2 1.32 2 2 C1.01 1.67 0.02 1.34 -1 1 C-0.67 0.67 -0.34 0.34 0 0 Z " fill="#FEFEFE" transform="translate(195,153)"/>
<path d="M0 0 C0.66 0.66 1.32 1.32 2 2 C1.01 1.67 0.02 1.34 -1 1 C-0.67 0.67 -0.34 0.34 0 0 Z " fill="#FFFFFF" transform="translate(280,410)"/>
<path d="M0 0 C4 1 4 1 4 1 Z " fill="#FEFEFE" transform="translate(240,394)"/>
<path d="M0 0 C0.99 0 1.98 0 3 0 C2.67 0.66 2.34 1.32 2 2 C1.34 1.34 0.68 0.68 0 0 Z " fill="#FFFFFF" transform="translate(217,357)"/>
<path d="M0 0 C4 1 4 1 4 1 Z " fill="#FEFEFE" transform="translate(286,215)"/>
<path d="M0 0 C0.99 0.33 1.98 0.66 3 1 C2.01 1 1.02 1 0 1 C0 0.67 0 0.34 0 0 Z " fill="#FFFFFF" transform="translate(193,157)"/>
<path d="M0 0 C0.66 0 1.32 0 2 0 C2 0.66 2 1.32 2 2 C1.34 2 0.68 2 0 2 C0 1.34 0 0.68 0 0 Z " fill="#FFFFFF" transform="translate(256,152)"/>
<path d="M0 0 C0.99 0.33 1.98 0.66 3 1 C2.01 1.33 1.02 1.66 0 2 C0 1.34 0 0.68 0 0 Z " fill="#FFFFFF" transform="translate(198,152)"/>
<path d="M0 0 C0.66 0 1.32 0 2 0 C1.67 0.66 1.34 1.32 1 2 C0.67 1.34 0.34 0.68 0 0 Z " fill="#FFFFFF" transform="translate(247,409)"/>
<path d="M0 0 C0.66 0 1.32 0 2 0 C1.67 0.66 1.34 1.32 1 2 C0.67 1.34 0.34 0.68 0 0 Z " fill="#FFFFFF" transform="translate(199,404)"/>
<path d="M0 0 C0.99 0.495 0.99 0.495 2 1 C1.01 1.495 1.01 1.495 0 2 C0 1.34 0 0.68 0 0 Z " fill="#FEFEFE" transform="translate(201,393)"/>
<path d="" fill="#FFFFFF" transform="translate(0,0)"/>
<path d="M0 0 C0.66 0.66 1.32 1.32 2 2 C1.34 2 0.68 2 0 2 C0 1.34 0 0.68 0 0 Z " fill="#FFFFFF" transform="translate(225,377)"/>
<path d="M0 0 C0.99 0.495 0.99 0.495 2 1 C1.01 1.495 1.01 1.495 0 2 C0 1.34 0 0.68 0 0 Z " fill="#FFFFFF" transform="translate(206,368)"/>
<path d="M0 0 C3 1 3 1 3 1 Z " fill="#FFFFFF" transform="translate(224,215)"/>
<path d="M0 0 C0.99 0.495 0.99 0.495 2 1 C1.01 1.495 1.01 1.495 0 2 C0 1.34 0 0.68 0 0 Z " fill="#FFFFFF" transform="translate(274,153)"/>
<path d="M0 0 C3 1 3 1 3 1 Z " fill="#FFFFFF" transform="translate(276,152)"/>
<path d="M0 0 C0.99 0.495 0.99 0.495 2 1 C1.01 1.495 1.01 1.495 0 2 C0 1.34 0 0.68 0 0 Z " fill="#FFFFFF" transform="translate(231,152)"/>
<path d="M0 0 C0.66 0 1.32 0 2 0 C1.67 0.66 1.34 1.32 1 2 C0.67 1.34 0.34 0.68 0 0 Z " fill="#FFFEFE" transform="translate(207,152)"/>
<path d="M0 0 C2 1 2 1 2 1 Z " fill="#FEFEFE" transform="translate(288,424)"/>
<path d="M0 0 C2 1 2 1 2 1 Z " fill="#FEFEFE" transform="translate(188,410)"/>
<path d="" fill="#FFFFFF" transform="translate(0,0)"/>
<path d="M0 0 C2 1 2 1 2 1 Z " fill="#FFFFFF" transform="translate(265,401)"/>
<path d="" fill="#FFFFFF" transform="translate(0,0)"/>
<path d="M0 0 C2 1 2 1 2 1 Z " fill="#FEFEFE" transform="translate(284,395)"/>
<path d="" fill="#FFFFFF" transform="translate(0,0)"/>
<path d="M0 0 C2 1 2 1 2 1 Z " fill="#FFFFFF" transform="translate(261,379)"/>
<path d="M0 0 C2 1 2 1 2 1 Z " fill="#FFFFFF" transform="translate(268,371)"/>
<path d="" fill="#FEFEFE" transform="translate(0,0)"/>
<path d="M0 0 C2 1 2 1 2 1 Z " fill="#FFFFFF" transform="translate(181,320)"/>
<path d="M0 0 C2 1 2 1 2 1 Z " fill="#FFFFFF" transform="translate(289,258)"/>
<path d="" fill="#FFFFFF" transform="translate(0,0)"/>
<path d="" fill="#FEFEFE" transform="translate(0,0)"/>
<path d="M0 0 C2 1 2 1 2 1 Z " fill="#FFFFFF" transform="translate(262,215)"/>
<path d="M0 0 C2 1 2 1 2 1 Z " fill="#FFFFFF" transform="translate(217,215)"/>
<path d="" fill="#FFFFFF" transform="translate(0,0)"/>
<path d="M0 0 C2 1 2 1 2 1 Z " fill="#FFFFFF" transform="translate(216,196)"/>
<path d="M0 0 C2 1 2 1 2 1 Z " fill="#FEFEFF" transform="translate(308,194)"/>
<path d="M0 0 C2 1 2 1 2 1 Z " fill="#FEFEFE" transform="translate(308,192)"/>
<path d="" fill="#FFFFFF" transform="translate(0,0)"/>
<path d="M0 0 C2 1 2 1 2 1 Z " fill="#FFFFFF" transform="translate(243,152)"/>
<path d="M0 0 C2 1 2 1 2 1 Z " fill="#FFFFFF" transform="translate(328,151)"/>
<path d="M0 0 C2 1 2 1 2 1 Z " fill="#FFFFFF" transform="translate(325,148)"/>
<path d="" fill="#FEFEFE" transform="translate(0,0)"/>
<path d="" fill="#FEFEFE" transform="translate(0,0)"/>
<path d="" fill="#FEFEFE" transform="translate(0,0)"/>
<path d="" fill="#FEFEFE" transform="translate(0,0)"/>
<path d="" fill="#FEFEFE" transform="translate(0,0)"/>
<path d="" fill="#FEFEFE" transform="translate(0,0)"/>
<path d="" fill="#FFFFFF" transform="translate(0,0)"/>
<path d="" fill="#FFFFFF" transform="translate(0,0)"/>
<path d="" fill="#FFFFFF" transform="translate(0,0)"/>
<path d="" fill="#FFFFFF" transform="translate(0,0)"/>
<path d="" fill="#FFFFFF" transform="translate(0,0)"/>
<path d="" fill="#FEFEFE" transform="translate(0,0)"/>
<path d="" fill="#FEFEFE" transform="translate(0,0)"/>
<path d="" fill="#FEFEFE" transform="translate(0,0)"/>
<path d="" fill="#FFFFFF" transform="translate(0,0)"/>
<path d="" fill="#FFFFFF" transform="translate(0,0)"/>
<path d="" fill="#FFFFFF" transform="translate(0,0)"/>
<path d="" fill="#FFFFFF" transform="translate(0,0)"/>
<path d="" fill="#FFFFFF" transform="translate(0,0)"/>
<path d="" fill="#FFFFFF" transform="translate(0,0)"/>
<path d="" fill="#FDFEFE" transform="translate(0,0)"/>
<path d="" fill="#FFFFFF" transform="translate(0,0)"/>
<path d="" fill="#FFFFFF" transform="translate(0,0)"/>
<path d="" fill="#FEFEFE" transform="translate(0,0)"/>
<path d="" fill="#FEFEFE" transform="translate(0,0)"/>
<path d="" fill="#FEFEFE" transform="translate(0,0)"/>
<path d="" fill="#FFFEFF" transform="translate(0,0)"/>
<path d="" fill="#FFFFFF" transform="translate(0,0)"/>
<path d="" fill="#FFFFFF" transform="translate(0,0)"/>
<path d="" fill="#FFFFFF" transform="translate(0,0)"/>
<path d="" fill="#FEFEFE" transform="translate(0,0)"/>
<path d="" fill="#FFFFFF" transform="translate(0,0)"/>
<path d="" fill="#FFFFFF" transform="translate(0,0)"/>
<path d="" fill="#FEFEFE" transform="translate(0,0)"/>
<path d="" fill="#FFFFFF" transform="translate(0,0)"/>
<path d="" fill="#FFFFFF" transform="translate(0,0)"/>
<path d="" fill="#FFFFFF" transform="translate(0,0)"/>
<path d="" fill="#FFFFFF" transform="translate(0,0)"/>
<path d="" fill="#FFFFFF" transform="translate(0,0)"/>
<path d="" fill="#FFFFFF" transform="translate(0,0)"/>
<path d="" fill="#FFFFFF" transform="translate(0,0)"/>
<path d="" fill="#FFFFFF" transform="translate(0,0)"/>
<path d="" fill="#FFFFFF" transform="translate(0,0)"/>
<path d="" fill="#FFFFFF" transform="translate(0,0)"/>
<path d="" fill="#FFFFFF" transform="translate(0,0)"/>
<path d="" fill="#FEFEFE" transform="translate(0,0)"/>
<path d="" fill="#FEFEFE" transform="translate(0,0)"/>
<path d="" fill="#FEFEFE" transform="translate(0,0)"/>
<path d="" fill="#FFFFFF" transform="translate(0,0)"/>
<path d="" fill="#FEFEFE" transform="translate(0,0)"/>
<path d="" fill="#FEFEFE" transform="translate(0,0)"/>
<path d="" fill="#FFFFFF" transform="translate(0,0)"/>
<path d="" fill="#FFFFFF" transform="translate(0,0)"/>
<path d="" fill="#FFFFFF" transform="translate(0,0)"/>
<path d="" fill="#FFFFFF" transform="translate(0,0)"/>
<path d="" fill="#FFFFFF" transform="translate(0,0)"/>
<path d="" fill="#FFFFFF" transform="translate(0,0)"/>
<path d="" fill="#FEFEFE" transform="translate(0,0)"/>
<path d="" fill="#FFFFFF" transform="translate(0,0)"/>
<path d="" fill="#FFFFFF" transform="translate(0,0)"/>
<path d="" fill="#FFFFFF" transform="translate(0,0)"/>
<path d="" fill="#FFFFFF" transform="translate(0,0)"/>
<path d="" fill="#FFFFFF" transform="translate(0,0)"/>
<path d="" fill="#FFFFFF" transform="translate(0,0)"/>
<path d="" fill="#FFFFFF" transform="translate(0,0)"/>
<path d="" fill="#FFFFFF" transform="translate(0,0)"/>
<path d="" fill="#FFFFFF" transform="translate(0,0)"/>
<path d="" fill="#FFFFFF" transform="translate(0,0)"/>
<path d="" fill="#FFFFFF" transform="translate(0,0)"/>
<path d="" fill="#FFFFFF" transform="translate(0,0)"/>
<path d="" fill="#FFFFFF" transform="translate(0,0)"/>
<path d="" fill="#FFFFFF" transform="translate(0,0)"/>
<path d="" fill="#FFFFFF" transform="translate(0,0)"/>
<path d="" fill="#FEFEFE" transform="translate(0,0)"/>
<path d="" fill="#FFFFFF" transform="translate(0,0)"/>
<path d="" fill="#FFFFFF" transform="translate(0,0)"/>
<path d="" fill="#FFFFFF" transform="translate(0,0)"/>
<path d="" fill="#FFFFFF" transform="translate(0,0)"/>
<path d="" fill="#FFFFFF" transform="translate(0,0)"/>
<path d="" fill="#FFFFFF" transform="translate(0,0)"/>
<path d="" fill="#FFFFFF" transform="translate(0,0)"/>
<path d="" fill="#FFFFFF" transform="translate(0,0)"/>
<path d="" fill="#FFFFFF" transform="translate(0,0)"/>
<path d="" fill="#FFFFFF" transform="translate(0,0)"/>
<path d="" fill="#FFFFFF" transform="translate(0,0)"/>
<path d="" fill="#FFFFFF" transform="translate(0,0)"/>
<path d="" fill="#FFFFFF" transform="translate(0,0)"/>
<path d="" fill="#FFFFFF" transform="translate(0,0)"/>
<path d="" fill="#FFFFFF" transform="translate(0,0)"/>
<path d="" fill="#FFFFFF" transform="translate(0,0)"/>
<path d="" fill="#FFFFFF" transform="translate(0,0)"/>
<path d="" fill="#FFFFFF" transform="translate(0,0)"/>
<path d="" fill="#FFFFFF" transform="translate(0,0)"/>
<path d="" fill="#FFFFFF" transform="translate(0,0)"/>
<path d="" fill="#FFFFFF" transform="translate(0,0)"/>
<path d="" fill="#FFFFFF" transform="translate(0,0)"/>
<path d="" fill="#FFFFFF" transform="translate(0,0)"/>
<path d="" fill="#FFFFFF" transform="translate(0,0)"/>
<path d="" fill="#FFFFFF" transform="translate(0,0)"/>
<path d="" fill="#FFFFFF" transform="translate(0,0)"/>
<path d="" fill="#FFFFFF" transform="translate(0,0)"/>
<path d="" fill="#FFFFFF" transform="translate(0,0)"/>
<path d="" fill="#FFFFFF" transform="translate(0,0)"/>
<path d="" fill="#FFFFFF" transform="translate(0,0)"/>
<path d="" fill="#FFFFFF" transform="translate(0,0)"/>
<path d="" fill="#FFFFFF" transform="translate(0,0)"/>
<path d="" fill="#FFFFFF" transform="translate(0,0)"/>
<path d="" fill="#FFFFFF" transform="translate(0,0)"/>
<path d="" fill="#FFFFFF" transform="translate(0,0)"/>
<path d="" fill="#FFFFFF" transform="translate(0,0)"/>
<path d="" fill="#FFFFFF" transform="translate(0,0)"/>
<path d="" fill="#FFFFFF" transform="translate(0,0)"/>
<path d="" fill="#FFFFFF" transform="translate(0,0)"/>
<path d="" fill="#FFFFFF" transform="translate(0,0)"/>
<path d="" fill="#FFFFFF" transform="translate(0,0)"/>
<path d="" fill="#FFFFFF" transform="translate(0,0)"/>
<path d="" fill="#FFFFFF" transform="translate(0,0)"/>
<path d="" fill="#FFFFFF" transform="translate(0,0)"/>
<path d="" fill="#FEFEFE" transform="translate(0,0)"/>
<path d="" fill="#FFFFFF" transform="translate(0,0)"/>
<path d="" fill="#FFFFFF" transform="translate(0,0)"/>
<path d="" fill="#FFFFFF" transform="translate(0,0)"/>
<path d="" fill="#FFFFFF" transform="translate(0,0)"/>
<path d="" fill="#FFFFFF" transform="translate(0,0)"/>
<path d="" fill="#FFFFFF" transform="translate(0,0)"/>
<path d="" fill="#FFFFFF" transform="translate(0,0)"/>
<path d="" fill="#FFFFFF" transform="translate(0,0)"/>
<path d="" fill="#FFFFFF" transform="translate(0,0)"/>
<path d="" fill="#FFFFFF" transform="translate(0,0)"/>
<path d="" fill="#FFFFFF" transform="translate(0,0)"/>
<path d="" fill="#FFFFFF" transform="translate(0,0)"/>
<path d="" fill="#FFFFFF" transform="translate(0,0)"/>
<path d="" fill="#FFFFFF" transform="translate(0,0)"/>
<path d="" fill="#FFFFFF" transform="translate(0,0)"/>
<path d="" fill="#FFFFFF" transform="translate(0,0)"/>
<path d="" fill="#FFFFFF" transform="translate(0,0)"/>
<path d="" fill="#FFFFFF" transform="translate(0,0)"/>
<path d="" fill="#FFFFFF" transform="translate(0,0)"/>
<path d="" fill="#FFFFFF" transform="translate(0,0)"/>
<path d="" fill="#FFFFFF" transform="translate(0,0)"/>
<path d="" fill="#FFFFFF" transform="translate(0,0)"/>
<path d="" fill="#FFFFFF" transform="translate(0,0)"/>
<path d="" fill="#FFFFFF" transform="translate(0,0)"/>
<path d="" fill="#FFFFFF" transform="translate(0,0)"/>
<path d="" fill="#FFFFFF" transform="translate(0,0)"/>
<path d="" fill="#FFFFFF" transform="translate(0,0)"/>
<path d="" fill="#FFFFFF" transform="translate(0,0)"/>
<path d="" fill="#FFFFFF" transform="translate(0,0)"/>
<path d="" fill="#FFFFFF" transform="translate(0,0)"/>
<path d="" fill="#FFFFFF" transform="translate(0,0)"/>
<path d="" fill="#FFFFFF" transform="translate(0,0)"/>
<path d="" fill="#FFFFFF" transform="translate(0,0)"/>
<path d="" fill="#FFFFFF" transform="translate(0,0)"/>
<path d="" fill="#FFFFFF" transform="translate(0,0)"/>
<path d="" fill="#FFFFFF" transform="translate(0,0)"/>
<path d="" fill="#FFFFFF" transform="translate(0,0)"/>
<path d="" fill="#FFFFFF" transform="translate(0,0)"/>
<path d="" fill="#FFFFFF" transform="translate(0,0)"/>
<path d="" fill="#FFFFFF" transform="translate(0,0)"/>
<path d="" fill="#FFFFFF" transform="translate(0,0)"/>
<path d="" fill="#FFFFFF" transform="translate(0,0)"/>
<path d="" fill="#FFFFFF" transform="translate(0,0)"/>
<path d="" fill="#FFFFFF" transform="translate(0,0)"/>
<path d="" fill="#FFFFFF" transform="translate(0,0)"/>
<path d="" fill="#FFFFFF" transform="translate(0,0)"/>
<path d="" fill="#FFFFFF" transform="translate(0,0)"/>
<path d="" fill="#FFFFFF" transform="translate(0,0)"/>
<path d="" fill="#FFFFFF" transform="translate(0,0)"/>
<path d="" fill="#FFFFFF" transform="translate(0,0)"/>
<path d="" fill="#FFFFFF" transform="translate(0,0)"/>
<path d="" fill="#FFFFFF" transform="translate(0,0)"/>
<path d="" fill="#FFFFFF" transform="translate(0,0)"/>
<path d="" fill="#FFFFFF" transform="translate(0,0)"/>
<path d="" fill="#FFFFFF" transform="translate(0,0)"/>
<path d="" fill="#FFFFFF" transform="translate(0,0)"/>
<path d="" fill="#FFFFFF" transform="translate(0,0)"/>
<path d="" fill="#FFFFFF" transform="translate(0,0)"/>
<path d="" fill="#FFFFFF" transform="translate(0,0)"/>
<path d="" fill="#FFFFFF" transform="translate(0,0)"/>
<path d="" fill="#FFFFFF" transform="translate(0,0)"/>
<path d="" fill="#FFFFFF" transform="translate(0,0)"/>
<path d="" fill="#FFFFFF" transform="translate(0,0)"/>
<path d="" fill="#FFFFFF" transform="translate(0,0)"/>
<path d="" fill="#FFFFFF" transform="translate(0,0)"/>
<path d="" fill="#FFFFFF" transform="translate(0,0)"/>
<path d="" fill="#FFFFFF" transform="translate(0,0)"/>
<path d="" fill="#FFFFFF" transform="translate(0,0)"/>
<path d="" fill="#FFFFFF" transform="translate(0,0)"/>
<path d="" fill="#FEFEFE" transform="translate(0,0)"/>
<path d="" fill="#FFFFFF" transform="translate(0,0)"/>
<path d="" fill="#FFFFFF" transform="translate(0,0)"/>
<path d="" fill="#FFFFFF" transform="translate(0,0)"/>
<path d="" fill="#FFFFFF" transform="translate(0,0)"/>
<path d="" fill="#FFFFFF" transform="translate(0,0)"/>
<path d="" fill="#FFFFFF" transform="translate(0,0)"/>
<path d="" fill="#FFFFFF" transform="translate(0,0)"/>
<path d="" fill="#FFFFFF" transform="translate(0,0)"/>
<path d="" fill="#FFFFFF" transform="translate(0,0)"/>
<path d="" fill="#FFFFFF" transform="translate(0,0)"/>
<path d="" fill="#FFFFFF" transform="translate(0,0)"/>
<path d="" fill="#FFFFFF" transform="translate(0,0)"/>
<path d="" fill="#FEFEFE" transform="translate(0,0)"/>
<path d="" fill="#FFFFFF" transform="translate(0,0)"/>
<path d="" fill="#FFFFFF" transform="translate(0,0)"/>
<path d="" fill="#FFFFFF" transform="translate(0,0)"/>
<path d="" fill="#FEFEFE" transform="translate(0,0)"/>
<path d="" fill="#FEFEFE" transform="translate(0,0)"/>
<path d="" fill="#FFFFFF" transform="translate(0,0)"/>
<path d="" fill="#FEFEFE" transform="translate(0,0)"/>
<path d="" fill="#FEFEFE" transform="translate(0,0)"/>
<path d="" fill="#FEFEFE" transform="translate(0,0)"/>
</svg>
