<?xml version="1.0" encoding="UTF-8"?>
<svg version="1.1" xmlns="http://www.w3.org/2000/svg" width="532" height="532">
<path d="M0 0 C2.81256281 -0.02684312 5.62487241 -0.04676188 8.4375 -0.0625 C9.23994141 -0.07087891 10.04238281 -0.07925781 10.86914062 -0.08789062 C12.91295221 -0.0965143 14.95683902 -0.0522815 17 0 C17.495 0.495 17.495 0.495 18 1 C20.67058851 1.14115161 23.32432238 1.04247107 26 1 C26 1.66 26 2.32 26 3 C28.64 2.67 31.28 2.34 34 2 C34.495 2.99 34.495 2.99 35 4 C37.47496881 4.93797519 39.91462407 5.77744996 42.4375 6.5625 C49.84015345 8.92007673 49.84015345 8.92007673 52 10 C52.99 10 53.98 10 55 10 C55.33 10.99 55.66 11.98 56 13 C58.21054942 14.81906299 58.21054942 14.81906299 60.9375 16.625 C67.56378638 21.30999155 74.05799193 26.31311193 79.14453125 32.6875 C80.99730164 34.99663699 82.28133507 35.93195306 85 37 C84.34 37 83.68 37 83 37 C83.51949219 37.87140625 84.03898438 38.7428125 84.57421875 39.640625 C91.05223043 50.64469046 95.98038727 61.52875394 99 74 C99 73.34 99 72.68 99 72 C99.66 72 100.32 72 101 72 C101.66 73.65 102.32 75.3 103 77 C103.62648438 77.06058594 104.25296875 77.12117188 104.8984375 77.18359375 C106.12433594 77.30927734 106.12433594 77.30927734 107.375 77.4375 C108.59316406 77.55931641 108.59316406 77.55931641 109.8359375 77.68359375 C112 78 112 78 114 79 C114.74817503 83.40591961 114.7875576 85.76373937 112.34765625 89.59375 C109.98339289 92.48571362 107.53339892 95.25486539 105 98 C103.61180664 99.51337431 102.22479552 101.02780583 100.83935547 102.54370117 C99.55987127 103.93490118 98.2646639 105.31159142 96.96875 106.6875 C94.81841082 108.92111081 94.81841082 108.92111081 94 112 C91.26776213 113.56127878 89.39103851 114.0077543 86.2421875 113.9453125 C81.71818331 112.62626549 79.46497384 110.01491393 76.3125 106.625 C75.74466797 106.03460938 75.17683594 105.44421875 74.59179688 104.8359375 C73.5348579 103.73563057 72.48316396 102.63024158 71.4387207 101.51806641 C70.45512199 100.48022205 69.45391178 99.45886303 68.43823242 98.45239258 C66.45609832 96.45074332 64.75111698 94.26797878 63 92.0625 C62.319375 91.20785156 61.63875 90.35320312 60.9375 89.47265625 C59.26259135 87.33512162 57.61872957 85.18022639 56 83 C56.99 83 57.98 83 59 83 C58.67 82.01 58.34 81.02 58 80 C58.33 79.34 58.66 78.68 59 78 C61.94140625 77.5859375 61.94140625 77.5859375 65.5625 77.375 C67.35880859 77.26285156 67.35880859 77.26285156 69.19140625 77.1484375 C70.11824219 77.09945312 71.04507813 77.05046875 72 77 C71.67 76.34 71.34 75.68 71 75 C71.66 75 72.32 75 73 75 C73.33 73.35 73.66 71.7 74 70 C73.01 69.67 72.02 69.34 71 69 C70.87625 67.96875 70.7525 66.9375 70.625 65.875 C70.06110186 62.37883154 69.21317941 59.31602373 68 56 C66.68 56 65.36 56 64 56 C62 51.25 62 51.25 62 49 C60.34928604 47.97388051 58.68029994 46.97691857 57 46 C55.1875 44.4375 55.1875 44.4375 54 43 C54 42.34 54 41.68 54 41 C53.05125 40.71125 52.1025 40.4225 51.125 40.125 C48 39 48 39 46 37 C46 36.34 46 35.68 46 35 C41.54309516 31.30403014 38.70353146 30.6771586 33 31 C31.515 30.505 31.515 30.505 30 30 C30 29.01 30 28.02 30 27 C9.87849173 22.64075035 -7.43501684 23.63393721 -25.33984375 34.66796875 C-25.88769531 35.10753906 -26.43554688 35.54710937 -27 36 C-27 36.66 -27 37.32 -27 38 C-27.66 38 -28.32 38 -29 38 C-29.495 38.99 -29.495 38.99 -30 40 C-30.99 40 -31.98 40 -33 40 C-47.58738208 53.20647672 -53.57611672 69.89835262 -56 89 C-55.34 89.33 -54.68 89.66 -54 90 C-54 90.66 -54 91.32 -54 92 C-54.66 92 -55.32 92 -56 92 C-55.79503906 93.08539063 -55.59007812 94.17078125 -55.37890625 95.2890625 C-55.10673817 96.73436885 -54.83460458 98.1796817 -54.5625 99.625 C-54.42779297 100.33785156 -54.29308594 101.05070312 -54.15429688 101.78515625 C-53.38981729 105.84995013 -52.66330363 109.91714075 -52 114 C-50.515 114.495 -50.515 114.495 -49 115 C-49.66 115 -50.32 115 -51 115 C-44.42120522 128.80110242 -44.42120522 128.80110242 -34 139 C-34 139.66 -34 140.32 -34 141 C-33.42378906 141.27714844 -32.84757812 141.55429687 -32.25390625 141.83984375 C-29.34436114 143.33747789 -26.64786232 145.1030142 -23.90234375 146.87890625 C-21.89506996 148.15121193 -21.89506996 148.15121193 -19 149 C-18.01 149.66 -17.02 150.32 -16 151 C-14.80375 151.165 -13.6075 151.33 -12.375 151.5 C-11.26125 151.665 -10.1475 151.83 -9 152 C-8.67 152.66 -8.34 153.32 -8 154 C2.15281195 157.80730448 18.84718805 157.80730448 29 154 C29.33 153.34 29.66 152.68 30 152 C31.99145086 151.70617938 33.98536906 151.42011999 35.98828125 151.21875 C38.05826513 150.99366437 40.00142737 150.58291702 42 150 C42 149.34 42 148.68 42 148 C42.99 148 43.98 148 45 148 C45.33 146.68 45.66 145.36 46 144 C47.299375 143.7834375 47.299375 143.7834375 48.625 143.5625 C51.96053606 143.06391368 51.96053606 143.06391368 55 142.1875 C59.19720396 141.92517475 60.83589591 143.32808988 64 146 C66.25271295 148.76139007 66.96680046 150.25301034 67.125 153.8125 C65.70291953 157.841728 63.43265175 160.21680422 60.49609375 163.265625 C58.78227475 164.87065346 58.78227475 164.87065346 59 167 C58.21625 167.226875 57.4325 167.45375 56.625 167.6875 C53.67887911 168.75419894 51.18718746 169.91717223 48.4375 171.375 C42.54112703 174.4087064 36.36637611 176.21382238 30 178 C30 178.66 30 179.32 30 180 C25.25 181.125 25.25 181.125 23 180 C20.75174913 179.90199932 18.50038076 179.87025236 16.25 179.875 C15.03828125 179.87242187 13.8265625 179.86984375 12.578125 179.8671875 C9.29025367 179.98922639 6.22593463 180.37658319 3 181 C3 180.34 3 179.68 3 179 C2.21238281 178.97421875 1.42476563 178.9484375 0.61328125 178.921875 C-6.71474831 178.54029713 -13.08818639 177.32365778 -20.02734375 174.9375 C-23.01373299 173.91727146 -23.01373299 173.91727146 -26.26953125 173.46875 C-29.30679254 172.94733175 -30.07846963 172.30583645 -32 170 C-34.00577813 168.85843589 -34.00577813 168.85843589 -36.5 168.6875 C-37.7375 168.3471875 -37.7375 168.3471875 -39 168 C-39.67125248 166.66896945 -40.33715102 165.33523535 -41 164 C-42.79247365 162.06838276 -42.79247365 162.06838276 -44.875 160.3125 C-45.89207031 159.40951172 -45.89207031 159.40951172 -46.9296875 158.48828125 C-48.88992175 156.8852136 -48.88992175 156.8852136 -51.16796875 156.4609375 C-51.77253906 156.30882812 -52.37710938 156.15671875 -53 156 C-54.05464649 154.0282696 -55.04605164 152.02237052 -56 150 C-58.2936185 146.73629368 -60.10122435 144.29959188 -64 143 C-65.0625 140.6875 -65.0625 140.6875 -66 138 C-67.16857941 135.44373253 -67.98929269 134.01070731 -70 132 C-70.77311457 129.85559462 -71.47264713 127.68417405 -72.125 125.5 C-72.47820312 124.3346875 -72.83140625 123.169375 -73.1953125 121.96875 C-74 119 -74 119 -74 117 C-74.66 116.67 -75.32 116.34 -76 116 C-77.09036928 113.0262656 -77.03864166 112.11592499 -76 109 C-76.99 108.67 -77.98 108.34 -79 108 C-78.34 108 -77.68 108 -77 108 C-77 107.34 -77 106.68 -77 106 C-77.99 105.67 -78.98 105.34 -80 105 C-80.0675838 102.09389639 -80.08556448 99.41712684 -79.5 96.5625 C-78.87072869 93.33748452 -78.94036595 90.27987287 -79 87 C-79 68.68722902 -71.72143464 51.39021861 -61.12890625 36.69921875 C-59.81586605 34.88356482 -59.81586605 34.88356482 -59 32 C-57.3984375 30.38671875 -57.3984375 30.38671875 -55.375 28.6875 C-54.65957031 28.0790625 -53.94414062 27.470625 -53.20703125 26.84375 C-52.47871094 26.2353125 -51.75039062 25.626875 -51 25 C-49.68544647 23.89827894 -48.37277004 22.79431196 -47.0625 21.6875 C-46.49660156 21.21699219 -45.93070313 20.74648437 -45.34765625 20.26171875 C-43.86554616 19.02049527 -43.86554616 19.02049527 -43 17 C-42.01 16.690625 -41.02 16.38125 -40 16.0625 C-39.01 15.711875 -38.02 15.36125 -37 15 C-36.67 14.01 -36.34 13.02 -36 12 C-33.33203125 10.96875 -33.33203125 10.96875 -30 10 C-27.88707315 9.18913508 -25.78263176 8.35579479 -23.6875 7.5 C-22.63949219 7.0771875 -21.59148437 6.654375 -20.51171875 6.21875 C-17.87279635 5.25348337 -17.87279635 5.25348337 -17 3 C-15.576875 3.061875 -15.576875 3.061875 -14.125 3.125 C-9.29272342 3.14484508 -4.69372996 2.05774196 0 1 C0 0.67 0 0.34 0 0 Z " fill="#E5E5E5" transform="translate(242,120)"/>
<path d="M0 0 C2.63946534 1.39768022 3.94245807 2.73142812 6 5 C6 5.99 6 6.98 6 8 C6.66 8.33 7.32 8.66 8 9 C8.02573337 15.91527495 8.04302429 22.83053719 8.05493164 29.74584961 C8.05990504 32.0896043 8.06668613 34.43335599 8.07543945 36.77709961 C8.11994807 49.01696855 8.13028051 61.21163678 7.2646637 73.42683411 C6.8841345 77.3338642 6.8841345 77.3338642 8 81 C7.01 81 6.02 81 5 81 C4.67 82.65 4.34 84.3 4 86 C1.66666667 86 -0.66666667 86 -3 86 C-3.33 86.99 -3.66 87.98 -4 89 C-4.66 88.67 -5.32 88.34 -6 88 C-6 87.34 -6 86.68 -6 86 C-8.31 85.67 -10.62 85.34 -13 85 C-13 84.34 -13 83.68 -13 83 C-13.66 83 -14.32 83 -15 83 C-15 82.34 -15 81.68 -15 81 C-15.66 80.67 -16.32 80.34 -17 80 C-16.34 80 -15.68 80 -15 80 C-15.7187807 72.95792295 -15.7187807 72.95792295 -17 66 C-16.34 66 -15.68 66 -15 66 C-15 63.03 -15 60.06 -15 57 C-15.66 56.67 -16.32 56.34 -17 56 C-16.835 55.505 -16.67 55.01 -16.5 54.5 C-16.03771557 52.18857786 -15.96547509 50.28087858 -16 47.9375 C-16 44 -16 44 -15 41 C-15.66 40.67 -16.32 40.34 -17 40 C-16.814375 39.236875 -16.62875 38.47375 -16.4375 37.6875 C-15.77180827 34.91032625 -15.77180827 34.91032625 -17 32 C-17 26.8028017 -16.69523375 21.81642183 -16.12109375 16.65625 C-15.86520685 14.06668172 -15.86520685 14.06668172 -16.578125 11.9140625 C-17.1432247 9.35018423 -16.494457 8.18618729 -15.3125 5.875 C-14.97863281 5.19179687 -14.64476562 4.50859375 -14.30078125 3.8046875 C-10.92827738 -0.87428183 -5.26997732 -0.91018607 0 0 Z " fill="#E7E7E7" transform="translate(257,167)"/>
<path d="M0 0 C29.91891892 0 29.91891892 0 35.375 5.3125 C38.54247095 10.55100964 39.45701095 14.73207249 38.61328125 20.75 C37.24066017 25.78585824 34.26742694 29.15504871 30 32 C30.69867188 33.10859375 31.39734375 34.2171875 32.1171875 35.359375 C33.03655409 36.82285651 33.95581964 38.28640151 34.875 39.75 C35.33519531 40.47960937 35.79539063 41.20921875 36.26953125 41.9609375 C36.71425781 42.66992188 37.15898437 43.37890625 37.6171875 44.109375 C38.02565918 44.75874023 38.43413086 45.40810547 38.85498047 46.07714844 C40.00591433 48.00993204 41.01958189 49.97616502 42 52 C40.5625 53.6875 40.5625 53.6875 38 55 C33.24144212 54.20118072 29.16101642 52.73326939 26 49 C22 42.99331104 22 42.99331104 22 40 C20.35 40 18.7 40 17 40 C17.33 38.68 17.66 37.36 18 36 C17.01 35.34 16.02 34.68 15 34 C14.67 35.32 14.34 36.64 14 38 C13.34 38 12.68 38 12 38 C12.11458693 39.43836751 12.24209116 40.87570966 12.375 42.3125 C12.44460937 43.11300781 12.51421875 43.91351563 12.5859375 44.73828125 C12.89564426 47.27224441 12.89564426 47.27224441 15 50 C14.34 50 13.68 50 13 50 C12.67 51.32 12.34 52.64 12 54 C8.7 54.66 5.4 55.32 2 56 C2 55.34 2 54.68 2 54 C1.34 53.67 0.68 53.34 0 53 C1.32 53 2.64 53 4 53 C2.68 52.34 1.36 51.68 0 51 C0 34.17 0 17.34 0 0 Z M12 10 C12.33 11.32 12.66 12.64 13 14 C13.66 13.34 14.32 12.68 15 12 C12.89366282 13.70828921 12.06198392 14.52148416 11.70703125 17.26171875 C11.74183594 18.06222656 11.77664062 18.86273438 11.8125 19.6875 C11.83957031 20.49574219 11.86664063 21.30398438 11.89453125 22.13671875 C11.92933594 22.75160156 11.96414062 23.36648438 12 24 C13.77007714 24.08114106 15.54122098 24.13925505 17.3125 24.1875 C18.29863281 24.22230469 19.28476563 24.25710938 20.30078125 24.29296875 C23.04574389 24.24278108 23.04574389 24.24278108 24.85546875 22.48828125 C25.23316406 21.99714844 25.61085937 21.50601562 26 21 C25.67 20.34 25.34 19.68 25 19 C25.66 19 26.32 19 27 19 C26.73606499 15.56769552 26.73606499 15.56769552 26 12 C22.57905758 9.71937172 21.31812778 9.78074993 17.3125 9.875 C16.31863281 9.89304687 15.32476562 9.91109375 14.30078125 9.9296875 C13.54152344 9.95289063 12.78226563 9.97609375 12 10 Z " fill="#E0E0E0" transform="translate(176,336)"/>
<path d="M0 0 C3.63 0 7.26 0 11 0 C11 3.3 11 6.6 11 10 C11.66 10.33 12.32 10.66 13 11 C12.34 11.66 11.68 12.32 11 13 C10.83318891 16.08347826 10.83318891 16.08347826 11 19 C12.32 19.33 13.64 19.66 15 20 C13.68 20 12.36 20 11 20 C11 21.32 11 22.64 11 24 C12.29549899 22.90033225 13.58626071 21.79508199 14.875 20.6875 C15.59429687 20.07261719 16.31359375 19.45773437 17.0546875 18.82421875 C19.19179331 16.9587676 19.19179331 16.9587676 21 14 C23.09375 13.453125 23.09375 13.453125 25.5 13.25 C26.2940625 13.17265625 27.088125 13.0953125 27.90625 13.015625 C30 13 30 13 32 14 C32 13.34 32 12.68 32 12 C33.32 12.33 34.64 12.66 36 13 C35.34 13 34.68 13 34 13 C34 13.66 34 14.32 34 15 C34.66 15.33 35.32 15.66 36 16 C35.29875 16.350625 34.5975 16.70125 33.875 17.0625 C30.68257321 19.21391805 28.68989629 21.56934061 26.33203125 24.57421875 C25.89246094 25.04472656 25.45289063 25.51523437 25 26 C24.34 26 23.68 26 23 26 C22.13149826 28.24875747 22.13149826 28.24875747 22 31 C23.6090093 33.41139607 23.6090093 33.41139607 26 36 C26.99814909 37.44540716 27.97582087 38.90507594 28.9375 40.375 C31.53495543 44.3207529 34.23131442 48.17269934 37 52 C36.01 52.33 35.02 52.66 34 53 C34 53.66 34 54.32 34 55 C31.1875 55.6875 31.1875 55.6875 28 56 C26.3125 54.625 26.3125 54.625 25 53 C23.515 52.505 23.515 52.505 22 52 C19.77674353 49.43988649 17.88120591 46.82180887 16 44 C15.34 44.66 14.68 45.32 14 46 C13.87625 45.360625 13.7525 44.72125 13.625 44.0625 C13.41875 43.381875 13.2125 42.70125 13 42 C12.34 41.67 11.68 41.34 11 41 C10.79029441 45.14093698 10.79029441 45.14093698 12 49 C10.8125 52.0625 10.8125 52.0625 9 55 C6.8125 55.875 6.8125 55.875 5 56 C5 55.34 5 54.68 5 54 C3.35 53.67 1.7 53.34 0 53 C-0.95329577 50.1401127 -1.12651334 48.35940259 -1.12939453 45.39257812 C-1.13254669 44.46151245 -1.13569885 43.53044678 -1.13894653 42.57116699 C-1.1369223 41.56799438 -1.13489807 40.56482178 -1.1328125 39.53125 C-1.13424759 37.98346863 -1.13424759 37.98346863 -1.13571167 36.40441895 C-1.13639233 34.22224873 -1.13454595 32.04007649 -1.13037109 29.85791016 C-1.12502127 26.51330019 -1.13031995 23.16882452 -1.13671875 19.82421875 C-1.13605795 17.70572887 -1.13477674 15.58723907 -1.1328125 13.46875 C-1.13483673 12.46557739 -1.13686096 11.46240479 -1.13894653 10.42883301 C-1.13579437 9.49776733 -1.13264221 8.56670166 -1.12939453 7.60742188 C-1.12859894 6.78818237 -1.12780334 5.96894287 -1.12698364 5.12487793 C-1 3 -1 3 0 0 Z " fill="#E1E2E2" transform="translate(260,336)"/>
<path d="M0 0 C0 0.66 0 1.32 0 2 C1.32 2 2.64 2 4 2 C4 4.31 4 6.62 4 9 C3.67 9 3.34 9 3 9 C3.01160156 9.88042969 3.02320313 10.76085937 3.03515625 11.66796875 C3.04869141 13.41013672 3.04869141 13.41013672 3.0625 15.1875 C3.07410156 16.33605469 3.08570313 17.48460937 3.09765625 18.66796875 C3.01192832 21.59300586 2.67849023 24.16316291 2 27 C2.66 27.33 3.32 27.66 4 28 C4 28.66 4 29.32 4 30 C6.31 30 8.62 30 11 30 C11.33 28.35 11.66 26.7 12 25 C12.66 25 13.32 25 14 25 C13.84402344 24.32453125 13.68804687 23.6490625 13.52734375 22.953125 C13.33269531 22.06109375 13.13804687 21.1690625 12.9375 20.25 C12.74027344 19.36828125 12.54304688 18.4865625 12.33984375 17.578125 C11.89080469 14.17162178 12.48310652 12.03378695 14 9 C13.34 8.67 12.68 8.34 12 8 C12.66 8 13.32 8 14 8 C14 6.68 14 5.36 14 4 C13.34 4 12.68 4 12 4 C12 3.34 12 2.68 12 2 C17.22745859 0.7936634 21.76528314 1.24387423 27 2 C26.67 2.66 26.34 3.32 26 4 C25.77141886 6.0374763 25.58975722 8.08040303 25.4375 10.125 C25.35371094 11.22070312 25.26992187 12.31640625 25.18359375 13.4453125 C25.09271484 14.70988281 25.09271484 14.70988281 25 16 C25.66 16.33 26.32 16.66 27 17 C26.34 17 25.68 17 25 17 C25.08378906 18.19238281 25.16757813 19.38476562 25.25390625 20.61328125 C25.35708136 22.17966708 25.45992889 23.74607451 25.5625 25.3125 C25.64661133 26.49102539 25.64661133 26.49102539 25.73242188 27.69335938 C25.78076172 28.45068359 25.82910156 29.20800781 25.87890625 29.98828125 C25.9260376 30.68477783 25.97316895 31.38127441 26.02172852 32.09887695 C26 34 26 34 25 37 C25.99 37.495 25.99 37.495 27 38 C24.9375 40.5 24.9375 40.5 22 43 C18.1875 43.3125 18.1875 43.3125 15 43 C14.505 40.525 14.505 40.525 14 38 C12.02 38.99 10.04 39.98 8 41 C8 41.66 8 42.32 8 43 C5.5 43.9375 5.5 43.9375 2 44 C-0.2826789 42.43522577 -2.18524504 40.68969269 -4.16796875 38.76171875 C-6.08068539 36.81845079 -6.08068539 36.81845079 -9 35 C-9.73046875 32.8359375 -9.73046875 32.8359375 -10.1875 30.375 C-10.42533203 29.14910156 -10.42533203 29.14910156 -10.66796875 27.8984375 C-10.77753906 27.27195312 -10.88710937 26.64546875 -11 26 C-10.34 26 -9.68 26 -9 26 C-9.165 24.989375 -9.33 23.97875 -9.5 22.9375 C-9.9704279 19.23288028 -10 15.72701145 -10 12 C-10.20625 11.113125 -10.4125 10.22625 -10.625 9.3125 C-11.07838497 6.51662604 -10.48333947 5.3558921 -9 3 C-9.99 3 -10.98 3 -12 3 C-11 1 -11 1 -9.125 0.375 C-6.08131886 -0.1621202 -3.09210747 0 0 0 Z M1 41 C2.485 41.99 2.485 41.99 4 43 C4 42.34 4 41.68 4 41 C3.01 41 2.02 41 1 41 Z " fill="#E0E0E0" transform="translate(228,348)"/>
<path d="M0 0 C0 0.66 0 1.32 0 2 C0.99 2 1.98 2 3 2 C3 3.65 3 5.3 3 7 C3.66 7 4.32 7 5 7 C5 8.98 5 10.96 5 13 C4.67 13 4.34 13 4 13 C3.97308315 15.45840605 3.95320198 17.91651882 3.9375 20.375 C3.92912109 21.07367188 3.92074219 21.77234375 3.91210938 22.4921875 C3.8164558 26.37295376 3.8164558 26.37295376 5 30 C6.87183587 30.84311576 6.87183587 30.84311576 9 31 C9.99 30.34 10.98 29.68 12 29 C12.99 28.67 13.98 28.34 15 28 C15 19.42 15 10.84 15 2 C24.33333333 0.66666667 24.33333333 0.66666667 27 2 C27 5.63 27 9.26 27 13 C27.66 13.33 28.32 13.66 29 14 C28.34 14 27.68 14 27 14 C27 21.59 27 29.18 27 37 C27.99 37.495 27.99 37.495 29 38 C28.34 38 27.68 38 27 38 C26.67 39.65 26.34 41.3 26 43 C23.03 43.495 23.03 43.495 20 44 C20 42.68 20 41.36 20 40 C18.515 40.495 18.515 40.495 17 41 C16.34 40.01 15.68 39.02 15 38 C14.21625 38.474375 13.4325 38.94875 12.625 39.4375 C8.07810742 41.39736749 3.90106856 41.71910872 -1 42 C-1 41.34 -1 40.68 -1 40 C-1.78375 39.401875 -2.5675 38.80375 -3.375 38.1875 C-7.42552793 34.81206006 -8.02495992 31.5549354 -8.6875 26.5 C-9.23152892 20.2905665 -8.63002772 14.18396442 -8 8 C-8.66 7.67 -9.32 7.34 -10 7 C-9.34 7 -8.68 7 -8 7 C-8.33 5.35 -8.66 3.7 -9 2 C-5.86501708 0.14223235 -3.62528568 -0.20140476 0 0 Z " fill="#E2E2E2" transform="translate(305,348)"/>
<path d="M0 0 C0.79921875 0.01804688 1.5984375 0.03609375 2.421875 0.0546875 C3.02515625 0.07789063 3.6284375 0.10109375 4.25 0.125 C4.25 1.115 4.25 2.105 4.25 3.125 C2.64125 3.2178125 2.64125 3.2178125 1 3.3125 C-2.78835383 3.78876285 -2.78835383 3.78876285 -4.95103455 6.25038147 C-7.14154005 9.75065308 -7.26215736 11.82158009 -7.28344727 15.93139648 C-7.29206284 16.59548523 -7.30067841 17.25957397 -7.30955505 17.94378662 C-7.33216659 20.12829111 -7.32548582 22.31150755 -7.31640625 24.49609375 C-7.32164435 26.0215747 -7.32792151 27.5470524 -7.33518982 29.07252502 C-7.34558528 32.2660346 -7.34104576 35.45909836 -7.32641602 38.65258789 C-7.30923582 42.73618833 -7.33271647 46.81838068 -7.36790562 50.901824 C-7.38991465 54.05126694 -7.38842973 57.20037481 -7.3801403 60.34987068 C-7.37932255 61.85490526 -7.3861523 63.35996486 -7.40091133 64.86492729 C-7.84596187 74.04032046 -7.84596187 74.04032046 -4.21069336 82.09399414 C-3.39866455 82.76422607 -2.58663574 83.43445801 -1.75 84.125 C-4.21649488 83.78479381 -5.51358015 83.34440683 -7.35473633 81.63574219 C-9.43091215 77.89971556 -9.22939542 74.41397152 -9.26171875 70.203125 C-9.27966995 69.34313904 -9.29762115 68.48315308 -9.31611633 67.59710693 C-9.37020038 64.85645416 -9.40410863 62.11597535 -9.4375 59.375 C-9.47067479 57.51429872 -9.5051646 55.65362039 -9.54101562 53.79296875 C-9.62592569 49.23710472 -9.69274584 44.68129212 -9.75 40.125 C-10.74 40.125 -11.73 40.125 -12.75 40.125 C-12.564375 39.361875 -12.37875 38.59875 -12.1875 37.8125 C-11.52180827 35.03532625 -11.52180827 35.03532625 -12.75 32.125 C-12.75 26.9278017 -12.44523375 21.94142183 -11.87109375 16.78125 C-11.61520685 14.19168172 -11.61520685 14.19168172 -12.328125 12.0390625 C-12.8932247 9.47518423 -12.244457 8.31118729 -11.0625 6 C-10.72863281 5.31679687 -10.39476562 4.63359375 -10.05078125 3.9296875 C-7.40660052 0.2611845 -4.31791534 -0.12699751 0 0 Z " fill="#E2E2E2" transform="translate(252.75,166.875)"/>
<path d="M0 0 C1.32 0.33 2.64 0.66 4 1 C4 17.17 4 33.34 4 50 C5.98 50 7.96 50 10 50 C10 50.33 10 50.66 10 51 C6.66666667 51 3.33333333 51 0 51 C0 34.17 0 17.34 0 0 Z " fill="#F2F2F2" transform="translate(176,336)"/>
<path d="M0 0 C0.99 0.33 1.98 0.66 3 1 C5.31 1 7.62 1 10 1 C10 9.25 10 17.5 10 26 C9.67 26 9.34 26 9 26 C9 18.08 9 10.16 9 2 C7.35 2 5.7 2 4 2 C4.08142773 5.85499569 4.19422354 9.70847275 4.3125 13.5625 C4.33505859 14.64853516 4.35761719 15.73457031 4.38085938 16.85351562 C4.63900643 24.57445932 5.67845772 29.51768658 10 36 C6.83884224 34.63016497 6.0072908 34.0109362 4 31 C3.34 31.33 2.68 31.66 2 32 C0.23068028 23.06566653 -0.09519281 15.04274067 1 6 C0.34 5.67 -0.32 5.34 -1 5 C-0.34 5 0.32 5 1 5 C0.67 3.35 0.34 1.7 0 0 Z " fill="#EDEDED" transform="translate(296,350)"/>
<path d="M0 0 C0 0.66 0 1.32 0 2 C-1.60875 2.0928125 -1.60875 2.0928125 -3.25 2.1875 C-7.03835383 2.66376285 -7.03835383 2.66376285 -9.20103455 5.12538147 C-11.39154005 8.62565308 -11.51215736 10.69658009 -11.53344727 14.80639648 C-11.54206284 15.47048523 -11.55067841 16.13457397 -11.55955505 16.81878662 C-11.58216659 19.00329111 -11.57548582 21.18650755 -11.56640625 23.37109375 C-11.57164435 24.8965747 -11.57792151 26.4220524 -11.58518982 27.94752502 C-11.59558528 31.1410346 -11.59104576 34.33409836 -11.57641602 37.52758789 C-11.55923582 41.61118833 -11.58271647 45.69338068 -11.61790562 49.776824 C-11.63991465 52.92626694 -11.63842973 56.07537481 -11.6301403 59.22487068 C-11.62932255 60.72990526 -11.6361523 62.23496486 -11.65091133 63.73992729 C-12.09596187 72.91532046 -12.09596187 72.91532046 -8.46069336 80.96899414 C-7.64866455 81.63922607 -6.83663574 82.30945801 -6 83 C-8.55346262 82.64779826 -9.77081278 82.22914173 -11.61444092 80.38587952 C-13.48964645 77.15684763 -13.36736848 74.80137647 -13.35644531 71.07592773 C-13.35848969 70.387659 -13.36053406 69.69939026 -13.36264038 68.99026489 C-13.36564219 66.72110194 -13.34719083 64.45267003 -13.328125 62.18359375 C-13.3250663 60.60466186 -13.32319102 59.02572728 -13.32244873 57.4467926 C-13.31784952 54.14061121 -13.30343776 50.83467391 -13.28125 47.52856445 C-13.25294484 43.28930645 -13.24203563 39.0502404 -13.2375679 34.81089687 C-13.23341264 31.55184508 -13.22359463 28.29283211 -13.21169281 25.03380013 C-13.20599365 23.47048312 -13.20123377 21.9071624 -13.19742584 20.34383965 C-13.19055609 18.1607189 -13.17692085 15.97774994 -13.16113281 13.79467773 C-13.15430481 12.55209702 -13.14747681 11.3095163 -13.14044189 10.02928162 C-12.95942843 6.1248856 -12.59638395 4.5480285 -9.6875 1.875 C-5.95130403 -0.73164835 -4.35065537 -1.45021846 0 0 Z " fill="#F0F0F0" transform="translate(257,168)"/>
<path d="M0 0 C2.31 0 4.62 0 7 0 C7 3.3 7 6.6 7 10 C7.66 10.33 8.32 10.66 9 11 C8.34 11.66 7.68 12.32 7 13 C6.83318891 16.08347826 6.83318891 16.08347826 7 19 C8.32 19.33 9.64 19.66 11 20 C9.68 20 8.36 20 7 20 C7 21.32 7 22.64 7 24 C7.66 24 8.32 24 9 24 C8.1875 25.9375 8.1875 25.9375 7 28 C6.01 28.33 5.02 28.66 4 29 C4 20.09 4 11.18 4 2 C2.68 1.67 1.36 1.34 0 1 C0 0.67 0 0.34 0 0 Z " fill="#E3E2E3" transform="translate(264,336)"/>
<path d="M0 0 C3.3 0.33 6.6 0.66 10 1 C9.67 1.66 9.34 2.32 9 3 C8.77141886 5.0374763 8.58975722 7.08040303 8.4375 9.125 C8.35371094 10.22070312 8.26992187 11.31640625 8.18359375 12.4453125 C8.12300781 13.28835938 8.06242188 14.13140625 8 15 C8.66 15.33 9.32 15.66 10 16 C9.34 16 8.68 16 8 16 C8 21.28 8 26.56 8 32 C7.67 32 7.34 32 7 32 C7 22.1 7 12.2 7 2 C5.02 2.33 3.04 2.66 1 3 C1.01571045 3.59538574 1.0314209 4.19077148 1.04760742 4.80419922 C1.10985801 7.49437003 1.14895783 10.18438957 1.1875 12.875 C1.21263672 13.81214844 1.23777344 14.74929688 1.26367188 15.71484375 C1.27333984 16.61074219 1.28300781 17.50664062 1.29296875 18.4296875 C1.3086792 19.25710449 1.32438965 20.08452148 1.34057617 20.93701172 C1.22818604 21.61779785 1.1157959 22.29858398 1 23 C0.01 23.66 -0.98 24.32 -2 25 C-2.05800828 21.39590081 -2.09359869 17.79192149 -2.125 14.1875 C-2.14175781 13.16333984 -2.15851563 12.13917969 -2.17578125 11.08398438 C-2.18222656 10.10107422 -2.18867188 9.11816406 -2.1953125 8.10546875 C-2.20578613 7.19949951 -2.21625977 6.29353027 -2.22705078 5.36010742 C-2 3 -2 3 0 0 Z " fill="#D6D6D6" transform="translate(245,349)"/>
<path d="M0 0 C0.33 0 0.66 0 1 0 C1 17.82 1 35.64 1 54 C0.67 54 0.34 54 0 54 C-0.07347656 53.09507812 -0.07347656 53.09507812 -0.1484375 52.171875 C-0.22320312 51.37265625 -0.29796875 50.5734375 -0.375 49.75 C-0.44460937 48.96109375 -0.51421875 48.1721875 -0.5859375 47.359375 C-1.01507113 44.914123 -1.78600638 43.15163097 -3 41 C-2.34 41 -1.68 41 -1 41 C-1 38.03 -1 35.06 -1 32 C-1.66 31.67 -2.32 31.34 -3 31 C-2.835 30.505 -2.67 30.01 -2.5 29.5 C-1.86925591 26.77119784 -1.86925591 26.77119784 -2 23 C-2 19 -2 19 -1.53515625 17.234375 C-0.7470954 13.94407716 -0.63160101 10.61653891 -0.4375 7.25 C-0.39431641 6.55261719 -0.35113281 5.85523438 -0.30664062 5.13671875 C-0.20110404 3.42468078 -0.1001009 1.71236439 0 0 Z " fill="#DCDCDB" transform="translate(243,192)"/>
<path d="M0 0 C2.31 0 4.62 0 7 0 C7 9.9 7 19.8 7 30 C7.66 30.33 8.32 30.66 9 31 C8.505 32.485 8.505 32.485 8 34 C8.66 34.33 9.32 34.66 10 35 C7.9375 37.5 7.9375 37.5 5 40 C1.1875 40.3125 1.1875 40.3125 -2 40 C-2.495 38.515 -2.495 38.515 -3 37 C-1.875 35.4375 -1.875 35.4375 0 34 C1.98 34.33 3.96 34.66 6 35 C5.67 24.11 5.34 13.22 5 2 C3.35 1.67 1.7 1.34 0 1 C0 0.67 0 0.34 0 0 Z " fill="#E6E5E6" transform="translate(245,351)"/>
<path d="M0 0 C-0.99 0.495 -0.99 0.495 -2 1 C-2.33 1.66 -2.66 2.32 -3 3 C-4.34771484 3.22429687 -4.34771484 3.22429687 -5.72265625 3.453125 C-12.50209389 4.584378 -18.57760191 8.85886123 -24.0625 12.875 C-27 15 -27 15 -29 15 C-29.33 15.99 -29.66 16.98 -30 18 C-30.66 17.67 -31.32 17.34 -32 17 C-29.19602826 12.03912692 -27.41297955 10.56374965 -22 9 C-21.67 8.01 -21.34 7.02 -21 6 C-19.02604477 5.25976679 -17.01728138 4.61238899 -15 4 C-13.4943958 3.30365806 -11.99465035 2.59455295 -10.5 1.875 C-6.84570471 0.20552499 -4.07078917 -0.41751684 0 0 Z " fill="#D8D8D8" transform="translate(227,126)"/>
<path d="M0 0 C-0.99 0.33 -1.98 0.66 -3 1 C-2.90592956 5.02055525 -2.79972181 9.04059488 -2.68261719 13.06054688 C-2.64450798 14.42601921 -2.60962464 15.79158577 -2.578125 17.15722656 C-2.53208122 19.12847607 -2.47318951 21.09941204 -2.4140625 23.0703125 C-2.3826416 24.25383301 -2.3512207 25.43735352 -2.31884766 26.65673828 C-1.99584232 30.04359516 -1.20350799 32.82865088 0 36 C-1.921875 35.2890625 -1.921875 35.2890625 -4 34 C-4.828125 31.8359375 -4.828125 31.8359375 -5.25 29.375 C-5.47429687 28.14910156 -5.47429687 28.14910156 -5.703125 26.8984375 C-5.85007813 25.95871094 -5.85007813 25.95871094 -6 25 C-5.34 25 -4.68 25 -4 25 C-4.165 23.989375 -4.33 22.97875 -4.5 21.9375 C-4.9704279 18.23288028 -5 14.72701145 -5 11 C-5.20625 10.113125 -5.4125 9.22625 -5.625 8.3125 C-6.07838497 5.51662604 -5.48333947 4.3558921 -4 2 C-4.99 2 -5.98 2 -7 2 C-6 0 -6 0 -4.0625 -0.6875 C-2 -1 -2 -1 0 0 Z " fill="#F1F1F1" transform="translate(223,349)"/>
<path d="M0 0 C2.5 1.3125 2.5 1.3125 5 3 C5 3.99 5 4.98 5 6 C7.97 6 10.94 6 14 6 C14 7.32 14 8.64 14 10 C11.1875 10.6875 11.1875 10.6875 8 11 C6.3125 9.625 6.3125 9.625 5 8 C4.01 7.67 3.02 7.34 2 7 C0 4 0 4 0 0 Z " fill="#DEDEDE" transform="translate(280,381)"/>
<path d="M0 0 C1.32 0 2.64 0 4 0 C3.67 8.58 3.34 17.16 3 26 C2.34 26 1.68 26 1 26 C0.67 25.01 0.34 24.02 0 23 C0.66 23 1.32 23 2 23 C1.84402344 22.32453125 1.68804687 21.6490625 1.52734375 20.953125 C1.33269531 20.06109375 1.13804687 19.1690625 0.9375 18.25 C0.64166016 16.92742187 0.64166016 16.92742187 0.33984375 15.578125 C-0.10919531 12.17162178 0.48310652 10.03378695 2 7 C1.34 6.67 0.68 6.34 0 6 C0.66 6 1.32 6 2 6 C2 4.68 2 3.36 2 2 C1.34 2 0.68 2 0 2 C0 1.34 0 0.68 0 0 Z " fill="#FAFAFA" transform="translate(240,350)"/>
<path d="M0 0 C0.66 0.33 1.32 0.66 2 1 C1.38511719 1.94101563 0.77023438 2.88203125 0.13671875 3.8515625 C-0.67985156 5.1092685 -1.49624861 6.367087 -2.3125 7.625 C-2.71662109 8.24246094 -3.12074219 8.85992187 -3.53710938 9.49609375 C-5.95278534 13.22762573 -8.08744372 16.97682336 -10 21 C-10.66 20.67 -11.32 20.34 -12 20 C-10.65677444 15.3266944 -8.73891649 11.75767927 -6 7.75 C-4.948125 6.19539062 -4.948125 6.19539062 -3.875 4.609375 C-2 2 -2 2 0 0 Z " fill="#D5D5D5" transform="translate(184,153)"/>
<path d="M0 0 C0.66 0 1.32 0 2 0 C2.33773437 0.71027344 2.67546875 1.42054688 3.0234375 2.15234375 C3.46945313 3.07144531 3.91546875 3.99054688 4.375 4.9375 C4.81585938 5.85402344 5.25671875 6.77054688 5.7109375 7.71484375 C6.79199162 10.12903802 6.79199162 10.12903802 9 11 C9.625 14.0625 9.625 14.0625 10 17 C9.34 17 8.68 17 8 17 C8 16.01 8 15.02 8 14 C7.071875 13.566875 7.071875 13.566875 6.125 13.125 C4 12 4 12 2 10 C1.3671875 7.6171875 1.3671875 7.6171875 0.875 4.875 C0.70742187 3.96492187 0.53984375 3.05484375 0.3671875 2.1171875 C0.24601563 1.41851562 0.12484375 0.71984375 0 0 Z " fill="#DDDDDD" transform="translate(170,242)"/>
<path d="M0 0 C0.99 1.485 0.99 1.485 2 3 C4.68822822 6.22587386 6.28947543 7.80263207 10.375 8.9375 C14.45788159 9.00789451 17.1696065 8.32891203 21 7 C18.71388798 9.65860951 16.97866809 10.53565794 13.5625 11.25 C12.80066406 11.42015625 12.03882813 11.5903125 11.25390625 11.765625 C7.22577619 12.18449468 5.42081042 11.33473556 2.25 8.8125 C0 6 0 6 -0.3125 2.6875 C-0.209375 1.800625 -0.10625 0.91375 0 0 Z " fill="#D7D7D7" transform="translate(299,378)"/>
<path d="M0 0 C0.99 0.66 1.98 1.32 3 2 C4.71444889 2.43738696 6.44667784 2.80848688 8.1875 3.125 C9.08855469 3.29257812 9.98960937 3.46015625 10.91796875 3.6328125 C11.60503906 3.75398438 12.29210937 3.87515625 13 4 C11.68 5.32 10.36 6.64 9 8 C7.55903414 7.57405412 6.12231288 7.13373367 4.6875 6.6875 C3.88699219 6.44386719 3.08648437 6.20023437 2.26171875 5.94921875 C-0.09964573 4.95817977 -1.33879993 3.91925057 -3 2 C-2.01 2 -1.02 2 0 2 C0 1.34 0 0.68 0 0 Z " fill="#EFEFEF" transform="translate(205,383)"/>
<path d="M0 0 C2.56095968 2.48982191 4.96205687 4.95230006 7.1875 7.75 C8.80309077 10.07487388 8.80309077 10.07487388 11 11 C11 11.66 11 12.32 11 13 C11.53625 13.2475 12.0725 13.495 12.625 13.75 C15.56424252 15.29696975 18.25754408 17.13014369 21 19 C20.67 19.66 20.34 20.32 20 21 C2.66468323 9.30503446 2.66468323 9.30503446 0.2890625 1.734375 C0.19367188 1.16203125 0.09828125 0.5896875 0 0 Z " fill="#CDCECF" transform="translate(197,248)"/>
<path d="M0 0 C2.72943537 -0.05416741 5.45778564 -0.09375225 8.1875 -0.125 C9.34088867 -0.15013672 9.34088867 -0.15013672 10.51757812 -0.17578125 C14.8149434 -0.21266851 18.07901831 0.0041496 22 2 C22 2.33 22 2.66 22 3 C14.41 3 6.82 3 -1 3 C-0.67 2.01 -0.34 1.02 0 0 Z " fill="#DCDCDC" transform="translate(242,120)"/>
<path d="M0 0 C12.66970387 -0.3690205 12.66970387 -0.3690205 18 2 C18 2.33 18 2.66 18 3 C15.58388467 3.22237877 13.1682283 3.42832339 10.75 3.625 C10.06808594 3.68945312 9.38617188 3.75390625 8.68359375 3.8203125 C4.8772951 4.11594735 2.22190154 4.17561392 -1 2 C-0.67 1.34 -0.34 0.68 0 0 Z " fill="#EBECEC" transform="translate(301,198)"/>
<path d="M0 0 C0 0.33 0 0.66 0 1 C-1.98 1 -3.96 1 -6 1 C-6.04125 1.7425 -6.0825 2.485 -6.125 3.25 C-7.35605201 7.1190206 -9.55839859 8.03337062 -13 10 C-13.99 10.495 -13.99 10.495 -15 11 C-13.35700103 2.4639594 -8.32893692 -1.00521652 0 0 Z " fill="#D2D3D3" transform="translate(289,350)"/>
<path d="M0 0 C1 2 1 2 0.84375 4.35546875 C1.04591318 7.77708059 2.17080359 8.85852522 4.5 11.3125 C5.47453125 12.35857422 5.47453125 12.35857422 6.46875 13.42578125 C6.9740625 13.94527344 7.479375 14.46476563 8 15 C5 15 5 15 3.28125 13.390625 C2.6934375 12.68421875 2.105625 11.9778125 1.5 11.25 C0.9121875 10.55390625 0.324375 9.8578125 -0.28125 9.140625 C-1.89985026 7.12473195 -3.46396189 5.0792711 -5 3 C-4.01 3 -3.02 3 -2 3 C-2 2.34 -2 1.68 -2 1 C-1.34 0.67 -0.68 0.34 0 0 Z " fill="#DCDCDC" transform="translate(303,200)"/>
<path d="M0 0 C0.66 0.66 1.32 1.32 2 2 C2.66 1.67 3.32 1.34 4 1 C4.53341184 2.57914015 5.05125763 4.16354387 5.5625 5.75 C5.85253906 6.63171875 6.14257812 7.5134375 6.44140625 8.421875 C7.01697435 11.07834316 6.89248371 12.47031106 6 15 C5.34 13.02 4.68 11.04 4 9 C3.67 9.66 3.34 10.32 3 11 C1 10 1 10 0.3125 8.125 C0 6 0 6 1 3 C0.01 2.67 -0.98 2.34 -2 2 C-1.34 2 -0.68 2 0 2 C0 1.34 0 0.68 0 0 Z " fill="#F1F1F0" transform="translate(165,226)"/>
<path d="M0 0 C2.56780471 3.8415976 2.22688882 7.8139175 2.125 12.25 C2.11597656 12.99507812 2.10695312 13.74015625 2.09765625 14.5078125 C2.07418358 16.33868059 2.03831525 18.16938238 2 20 C1.01 20 0.02 20 -1 20 C-0.814375 19.236875 -0.62875 18.47375 -0.4375 17.6875 C0.22819173 14.91032625 0.22819173 14.91032625 -1 12 C-1 7.8296392 -0.90516957 4.07326306 0 0 Z " fill="#F3F3F3" transform="translate(241,187)"/>
<path d="M0 0 C1.1446875 1.175625 1.1446875 1.175625 2.3125 2.375 C4.90891805 5.07257717 4.90891805 5.07257717 8 7 C8 7.66 8 8.32 8 9 C9.32 9.66 10.64 10.32 12 11 C9 12 9 12 7 11.25 C3.53265258 9.08290786 1.54520392 6.80357888 0 3 C0 2.01 0 1.02 0 0 Z " fill="#DDDDDD" transform="translate(186,267)"/>
<path d="M0 0 C3 1 3 1 4 3 C5.63846384 3.88750125 7.31093739 4.71305037 9 5.5 C13.88888889 7.77777778 13.88888889 7.77777778 15 10 C11.00642372 9.4294891 8.42215525 8.07130449 5 6 C4.01 6 3.02 6 2 6 C2 5.01 2 4.02 2 3 C0.35 2.67 -1.3 2.34 -3 2 C-2.01 1.34 -1.02 0.68 0 0 Z " fill="#D6D5D5" transform="translate(277,145)"/>
<path d="M0 0 C1.32 0.33 2.64 0.66 4 1 C3.34 1 2.68 1 2 1 C2 1.66 2 2.32 2 3 C2.66 3.33 3.32 3.66 4 4 C3.29875 4.350625 2.5975 4.70125 1.875 5.0625 C-1.28594324 7.19270088 -3.24403942 9.49641807 -5.5703125 12.4765625 C-7 14 -7 14 -10 15 C-10 14.34 -10 13.68 -10 13 C-9.34 13 -8.68 13 -8 13 C-7.6596875 12.1646875 -7.6596875 12.1646875 -7.3125 11.3125 C-5.64103234 8.36753316 -3.44723648 6.31843456 -1 4 C-1.33 3.34 -1.66 2.68 -2 2 C-1.34 2 -0.68 2 0 2 C0 1.34 0 0.68 0 0 Z " fill="#DADADA" transform="translate(292,348)"/>
<path d="M0 0 C5.72210596 1.86763181 11.37661751 3.85289032 17 6 C17 6.33 17 6.66 17 7 C11.2190275 6.36934845 5.6556294 5.34844868 0 4 C0 2.68 0 1.36 0 0 Z " fill="#D7D7D8" transform="translate(213,289)"/>
<path d="M0 0 C1 2 1 2 0.0625 5.125 C-0.288125 6.07375 -0.63875 7.0225 -1 8 C-1.66 8 -2.32 8 -3 8 C-3.33 10.31 -3.66 12.62 -4 15 C-4.33 15 -4.66 15 -5 15 C-4.85923685 13.0412957 -4.7122324 11.08303907 -4.5625 9.125 C-4.48128906 8.03445312 -4.40007812 6.94390625 -4.31640625 5.8203125 C-4 3 -4 3 -3 1 C-2.01 0.67 -1.02 0.34 0 0 Z " fill="#DEDEDE" transform="translate(172,177)"/>
<path d="M0 0 C0.66 1.65 1.32 3.3 2 5 C0.58249437 4.88490339 -0.83401169 4.75746342 -2.25 4.625 C-3.03890625 4.55539063 -3.8278125 4.48578125 -4.640625 4.4140625 C-7.085877 3.98492887 -8.84836903 3.21399362 -11 2 C-3.375 0 -3.375 0 0 0 Z " fill="#ECECEC" transform="translate(276,122)"/>
<path d="M0 0 C4.10958767 1.45044271 7.43258745 3.51110752 11 6 C8.10765685 6.82638376 6.11257569 7 3 7 C1.79371992 4.66785852 0.8345262 2.50357861 0 0 Z " fill="#DBDBDB" transform="translate(200,281)"/>
<path d="M0 0 C0.845625 0.144375 1.69125 0.28875 2.5625 0.4375 C6.04040343 1.05306927 6.04040343 1.05306927 9.75 1.3125 C11.35875 1.6528125 11.35875 1.6528125 13 2 C13.66 3.32 14.32 4.64 15 6 C11.37 5.34 7.74 4.68 4 4 C4 3.34 4 2.68 4 2 C2.68 1.34 1.36 0.68 0 0 Z " fill="#DCDCDC" transform="translate(220,270)"/>
<path d="M0 0 C0.66 0.33 1.32 0.66 2 1 C1.67 1.66 1.34 2.32 1 3 C1.66 3 2.32 3 3 3 C3.38218767 4.65614657 3.71395102 6.32457024 4 8 C3.67 8.33 3.34 8.66 3 9 C3.66 9.66 4.32 10.32 5 11 C3.68 11.33 2.36 11.66 1 12 C0.34 11.01 -0.32 10.02 -1 9 C-0.34 9 0.32 9 1 9 C1.33 7.35 1.66 5.7 2 4 C1.01 3.67 0.02 3.34 -1 3 C-0.67 2.01 -0.34 1.02 0 0 Z " fill="#FBFBFB" transform="translate(314,186)"/>
<path d="M0 0 C3.48247874 1.16082625 3.88819244 1.90932476 5.75 4.9375 C6.19859375 5.64777344 6.6471875 6.35804688 7.109375 7.08984375 C7.40328125 7.72019531 7.6971875 8.35054688 8 9 C7.67 9.66 7.34 10.32 7 11 C2.34012809 7.9342948 1.14514798 5.41342681 0 0 Z " fill="#DCDCDC" transform="translate(283,371)"/>
<path d="M0 0 C3.10009769 1.38238352 5.28263873 2.98578859 7.6875 5.375 C8.28949219 5.96023437 8.89148438 6.54546875 9.51171875 7.1484375 C11.10135013 9.12608914 11.5905426 10.5214179 12 13 C9.07648458 10.82824569 6.59700829 8.6341397 4.3125 5.8125 C2.30609749 2.98352767 2.30609749 2.98352767 0 2 C0 1.34 0 0.68 0 0 Z " fill="#D7D8D8" transform="translate(310,143)"/>
<path d="M0 0 C1.32 0.33 2.64 0.66 4 1 C4.33 2.65 4.66 4.3 5 6 C5.66 6 6.32 6 7 6 C7.33 7.32 7.66 8.64 8 10 C7.34 9.67 6.68 9.34 6 9 C6 8.34 6 7.68 6 7 C4.35 7 2.7 7 1 7 C1.33 5.68 1.66 4.36 2 3 C1.34 2.67 0.68 2.34 0 2 C0 1.34 0 0.68 0 0 Z " fill="#F7F7F7" transform="translate(192,369)"/>
<path d="M0 0 C1.0828125 0.495 1.0828125 0.495 2.1875 1 C5.01697427 2.00603529 7.02895466 2.16977402 10 2 C8.9375 3.5 8.9375 3.5 7 5 C3.3125 5.1875 3.3125 5.1875 0 5 C-0.33 4.01 -0.66 3.02 -1 2 C-0.67 1.34 -0.34 0.68 0 0 Z " fill="#FCFCFC" transform="translate(243,386)"/>
<path d="M0 0 C-3.26545761 1.88391785 -6.28111761 2.49287967 -10 3 C-10 2.34 -10 1.68 -10 1 C-10.66 0.67 -11.32 0.34 -12 0 C-7.74433453 -1.16063604 -4.3164922 -0.76173392 0 0 Z " fill="#FEFEFE" transform="translate(188,389)"/>
<path d="M0 0 C0.33 0 0.66 0 1 0 C1 1.65 1 3.3 1 5 C2.98 5.495 2.98 5.495 5 6 C3.68 6 2.36 6 1 6 C1 7.32 1 8.64 1 10 C1.66 10 2.32 10 3 10 C2.34 11.32 1.68 12.64 1 14 C0.67 14 0.34 14 0 14 C0 9.38 0 4.76 0 0 Z " fill="#FCFCFC" transform="translate(270,350)"/>
<path d="M0 0 C-0.33 0.99 -0.66 1.98 -1 3 C-1.99 2.67 -2.98 2.34 -4 2 C-5.89212737 1.77820215 -7.78884472 1.59385985 -9.6875 1.4375 C-10.68136719 1.35371094 -11.67523438 1.26992188 -12.69921875 1.18359375 C-13.83810547 1.09271484 -13.83810547 1.09271484 -15 1 C-15 0.67 -15 0.34 -15 0 C-4.44191344 -1.33257403 -4.44191344 -1.33257403 0 0 Z " fill="#F2F1F2" transform="translate(203,345)"/>
<path d="M0 0 C0.33 0 0.66 0 1 0 C1.33 4.29 1.66 8.58 2 13 C1.34 13 0.68 13 0 13 C0 12.34 0 11.68 0 11 C-0.66 10.67 -1.32 10.34 -2 10 C-1.34 10 -0.68 10 0 10 C-0.08378906 9.36191406 -0.16757813 8.72382813 -0.25390625 8.06640625 C-0.35574219 7.24011719 -0.45757812 6.41382813 -0.5625 5.5625 C-0.66691406 4.73878906 -0.77132812 3.91507813 -0.87890625 3.06640625 C-0.91886719 2.38449219 -0.95882812 1.70257813 -1 1 C-0.67 0.67 -0.34 0.34 0 0 Z " fill="#F3F3F3" transform="translate(242,237)"/>
<path d="M0 0 C4.29 0.33 8.58 0.66 13 1 C13 1.99 13 2.98 13 4 C8.28596212 3.52060632 4.33420699 3.03165952 0 1 C0 0.67 0 0.34 0 0 Z " fill="#F0F0F0" transform="translate(226,274)"/>
<path d="M0 0 C2 1 4 2 6 3 C6 3.66 6 4.32 6 5 C1.44615385 5.36923077 1.44615385 5.36923077 -0.8125 3.5 C-1.204375 3.005 -1.59625 2.51 -2 2 C-1.34 1.34 -0.68 0.68 0 0 Z " fill="#F8F8F8" transform="translate(290,155)"/>
<path d="M0 0 C0 0.66 0 1.32 0 2 C-2.8125 2.6875 -2.8125 2.6875 -6 3 C-7.875 1.5625 -7.875 1.5625 -9 0 C-5.67465243 -1.10844919 -3.37817425 -0.84454356 0 0 Z " fill="#FEFEFE" transform="translate(294,389)"/>
<path d="M0 0 C2.31 0.33 4.62 0.66 7 1 C4.23776722 3.76223278 1.79293383 3.57856291 -2 4 C-1.34 2.68 -0.68 1.36 0 0 Z " fill="#DCDCDC" transform="translate(272,272)"/>
<path d="M0 0 C3.86107457 2.57404971 3.94319692 4.61020259 5 9 C4.01 8.67 3.02 8.34 2 8 C1.26953125 6.15234375 1.26953125 6.15234375 0.8125 3.9375 C0.65394531 3.20402344 0.49539063 2.47054687 0.33203125 1.71484375 C0.22246094 1.14894531 0.11289062 0.58304688 0 0 Z " fill="#D4D4D4" transform="translate(309,172)"/>
<path d="M0 0 C0 0.66 0 1.32 0 2 C-3.3125 3.125 -3.3125 3.125 -7 4 C-7.99 3.34 -8.98 2.68 -10 2 C-6.38026598 0.68373308 -3.90432869 0 0 0 Z " fill="#DDDCDC" transform="translate(241,122)"/>
<path d="M0 0 C2.31 0.33 4.62 0.66 7 1 C6.67 1.66 6.34 2.32 6 3 C2.9375 3.625 2.9375 3.625 0 4 C0 2.68 0 1.36 0 0 Z " fill="#FEFEFE" transform="translate(325,388)"/>
<path d="M0 0 C2.31 1.98 4.62 3.96 7 6 C6.01 6.33 5.02 6.66 4 7 C2 5.1875 2 5.1875 0 3 C0 2.01 0 1.02 0 0 Z " fill="#D4D4D4" transform="translate(319,224)"/>
<path d="M0 0 C0.33 0.99 0.66 1.98 1 3 C1.66 3 2.32 3 3 3 C3 3.99 3 4.98 3 6 C3.66 6 4.32 6 5 6 C4.67 6.66 4.34 7.32 4 8 C1 7 1 7 -0.25 4.5625 C-1 2 -1 2 0 0 Z " fill="#FAFAFA" transform="translate(177,256)"/>
<path d="M0 0 C2.64752004 2.57784846 4.94432065 4.91648098 7 8 C6.01 8 5.02 8 4 8 C0 2.74285714 0 2.74285714 0 0 Z " fill="#D6D6D6" transform="translate(197,248)"/>
<path d="M0 0 C1.37562854 1.28965176 2.70766393 2.62689293 4 4 C4 4.66 4 5.32 4 6 C4.66 6.33 5.32 6.66 6 7 C3.03 6.505 3.03 6.505 0 6 C0 4.02 0 2.04 0 0 Z " fill="#E4E4E4" transform="translate(244,246)"/>
<path d="M0 0 C2.475 0.495 2.475 0.495 5 1 C5.33 2.32 5.66 3.64 6 5 C4.68 5 3.36 5 2 5 C1.34 3.35 0.68 1.7 0 0 Z " fill="#FAFAFA" transform="translate(304,171)"/>
<path d="M0 0 C2.31 0 4.62 0 7 0 C6.67 0.66 6.34 1.32 6 2 C3.03 1.505 3.03 1.505 0 1 C0 0.67 0 0.34 0 0 Z " fill="#FFFFFF" transform="translate(237,300)"/>
<path d="M0 0 C1.65 0 3.3 0 5 0 C4.01 0.99 3.02 1.98 2 3 C2 2.34 2 1.68 2 1 C1.34 0.67 0.68 0.34 0 0 Z " fill="#FEFEFE" transform="translate(232,299)"/>
<path d="M0 0 C1.65 0 3.3 0 5 0 C3.02 0.99 3.02 0.99 1 2 C0.67 1.34 0.34 0.68 0 0 Z " fill="#FEFEFE" transform="translate(258,300)"/>
<path d="M0 0 C0.33 1.32 0.66 2.64 1 4 C0.34 3.67 -0.32 3.34 -1 3 C-0.67 2.01 -0.34 1.02 0 0 Z " fill="#FEFEFE" transform="translate(281,264)"/>
<path d="M0 0 C1.65 0 3.3 0 5 0 C5 0.33 5 0.66 5 1 C3.35 1 1.7 1 0 1 C0 0.67 0 0.34 0 0 Z " fill="#FEFEFE" transform="translate(308,390)"/>
<path d="M0 0 C0.66 0.33 1.32 0.66 2 1 C0.68 1.33 -0.64 1.66 -2 2 C-1.34 1.34 -0.68 0.68 0 0 Z " fill="#FFFFFF" transform="translate(285,294)"/>
<path d="M0 0 C1.65 0 3.3 0 5 0 C5 0.33 5 0.66 5 1 C3.35 1 1.7 1 0 1 C0 0.67 0 0.34 0 0 Z " fill="#FFFFFF" transform="translate(247,275)"/>
<path d="M0 0 C0.99 0.33 1.98 0.66 3 1 C2.01 1 1.02 1 0 1 C0 0.67 0 0.34 0 0 Z " fill="#FEFEFE" transform="translate(239,390)"/>
<path d="M0 0 C0.66 0 1.32 0 2 0 C2 0.66 2 1.32 2 2 C1.34 2 0.68 2 0 2 C0 1.34 0 0.68 0 0 Z " fill="#FEFEFE" transform="translate(319,389)"/>
<path d="M0 0 C4 1 4 1 4 1 Z " fill="#FFFFFF" transform="translate(333,387)"/>
<path d="M0 0 C1 4 1 4 1 4 Z " fill="#FFFFFF" transform="translate(333,380)"/>
<path d="M0 0 C0.66 0.66 1.32 1.32 2 2 C1.01 2.495 1.01 2.495 0 3 C0 2.01 0 1.02 0 0 Z " fill="#FFFFFF" transform="translate(333,363)"/>
<path d="M0 0 C4 1 4 1 4 1 Z " fill="#FEFEFE" transform="translate(322,348)"/>
<path d="M0 0 C0.66 0.66 1.32 1.32 2 2 C1.01 1.67 0.02 1.34 -1 1 C-0.67 0.67 -0.34 0.34 0 0 Z " fill="#FFFFFF" transform="translate(236,272)"/>
<path d="M0 0 C4 1 4 1 4 1 Z " fill="#FEFEFE" transform="translate(266,272)"/>
<path d="M0 0 C0.66 0 1.32 0 2 0 C2 0.66 2 1.32 2 2 C1.34 2 0.68 2 0 2 C0 1.34 0 0.68 0 0 Z " fill="#FEFEFE" transform="translate(263,249)"/>
<path d="M0 0 C0 3 0 3 0 3 Z " fill="#FFFFFF" transform="translate(170,247)"/>
<path d="M0 0 C4 1 4 1 4 1 Z " fill="#FFFFFF" transform="translate(347,196)"/>
<path d="M0 0 C0.33 0.66 0.66 1.32 1 2 C0.34 1.67 -0.32 1.34 -1 1 C-0.67 0.67 -0.34 0.34 0 0 Z " fill="#FEFEFE" transform="translate(189,390)"/>
<path d="" fill="#FFFFFF" transform="translate(0,0)"/>
<path d="M0 0 C0.33 0.66 0.66 1.32 1 2 C0.34 1.67 -0.32 1.34 -1 1 C-0.67 0.67 -0.34 0.34 0 0 Z " fill="#FFFFFF" transform="translate(275,352)"/>
<path d="M0 0 C3 1 3 1 3 1 Z " fill="#FEFEFE" transform="translate(246,348)"/>
<path d="M0 0 C0.66 0.66 1.32 1.32 2 2 C1.34 2 0.68 2 0 2 C0 1.34 0 0.68 0 0 Z " fill="#FEFEFE" transform="translate(284,346)"/>
<path d="" fill="#FFFFFF" transform="translate(0,0)"/>
<path d="M0 0 C3 1 3 1 3 1 Z " fill="#FEFEFE" transform="translate(219,295)"/>
<path d="M0 0 C0.99 0.495 0.99 0.495 2 1 C1.01 1.495 1.01 1.495 0 2 C0 1.34 0 0.68 0 0 Z " fill="#FFFFFF" transform="translate(217,294)"/>
<path d="M0 0 C0.66 0.66 1.32 1.32 2 2 C1.34 2 0.68 2 0 2 C0 1.34 0 0.68 0 0 Z " fill="#FFFFFF" transform="translate(161,215)"/>
<path d="M0 0 C3 1 3 1 3 1 Z " fill="#FFFFFF" transform="translate(339,185)"/>
<path d="M0 0 C0.66 0 1.32 0 2 0 C1.67 0.66 1.34 1.32 1 2 C0.67 1.34 0.34 0.68 0 0 Z " fill="#FFFFFF" transform="translate(335,174)"/>
<path d="M0 0 C0.66 0.66 1.32 1.32 2 2 C1.34 2 0.68 2 0 2 C0 1.34 0 0.68 0 0 Z " fill="#FEFEFE" transform="translate(228,150)"/>
<path d="M0 0 C3 1 3 1 3 1 Z " fill="#FEFEFE" transform="translate(269,147)"/>
<path d="M0 0 C0.99 0.495 0.99 0.495 2 1 C1.01 1.495 1.01 1.495 0 2 C0 1.34 0 0.68 0 0 Z " fill="#FFFFFF" transform="translate(317,145)"/>
<path d="M0 0 C3 1 3 1 3 1 Z " fill="#FFFFFF" transform="translate(269,121)"/>
<path d="M0 0 C3 1 3 1 3 1 Z " fill="#FEFEFE" transform="translate(262,120)"/>
<path d="M0 0 C2 1 2 1 2 1 Z " fill="#FEFEFE" transform="translate(333,391)"/>
<path d="M0 0 C2 1 2 1 2 1 Z " fill="#FEFEFE" transform="translate(314,389)"/>
<path d="M0 0 C2 1 2 1 2 1 Z " fill="#FEFEFE" transform="translate(310,377)"/>
<path d="" fill="#FFFFFF" transform="translate(0,0)"/>
<path d="" fill="#FFFFFF" transform="translate(0,0)"/>
<path d="M0 0 C2 1 2 1 2 1 Z " fill="#FFFFFF" transform="translate(333,359)"/>
<path d="M0 0 C2 1 2 1 2 1 Z " fill="#FFFFFF" transform="translate(287,359)"/>
<path d="M0 0 C2 1 2 1 2 1 Z " fill="#FFFFFF" transform="translate(214,359)"/>
<path d="M0 0 C2 1 2 1 2 1 Z " fill="#FDFDFD" transform="translate(200,353)"/>
<path d="M0 0 C2 1 2 1 2 1 Z " fill="#FFFFFF" transform="translate(200,351)"/>
<path d="M0 0 C2 1 2 1 2 1 Z " fill="#FEFEFE" transform="translate(282,348)"/>
<path d="M0 0 C2 1 2 1 2 1 Z " fill="#FEFEFE" transform="translate(323,345)"/>
<path d="M0 0 C2 1 2 1 2 1 Z " fill="#FEFEFE" transform="translate(302,345)"/>
<path d="M0 0 C2 1 2 1 2 1 Z " fill="#FEFEFE" transform="translate(286,345)"/>
<path d="M0 0 C2 1 2 1 2 1 Z " fill="#FEFEFE" transform="translate(271,339)"/>
<path d="M0 0 C2 1 2 1 2 1 Z " fill="#FFFFFF" transform="translate(256,303)"/>
<path d="M0 0 C2 1 2 1 2 1 Z " fill="#FFFFFF" transform="translate(287,295)"/>
<path d="M0 0 C2 1 2 1 2 1 Z " fill="#FEFEFE" transform="translate(208,295)"/>
<path d="M0 0 C2 1 2 1 2 1 Z " fill="#FEFEFE" transform="translate(210,291)"/>
<path d="M0 0 C2 1 2 1 2 1 Z " fill="#FEFEFE" transform="translate(200,285)"/>
<path d="M0 0 C2 1 2 1 2 1 Z " fill="#FEFEFE" transform="translate(303,283)"/>
<path d="M0 0 C2 1 2 1 2 1 Z " fill="#FFFFFF" transform="translate(188,278)"/>
<path d="M0 0 C2 1 2 1 2 1 Z " fill="#FEFEFE" transform="translate(258,275)"/>
<path d="M0 0 C2 1 2 1 2 1 Z " fill="#FEFEFE" transform="translate(239,274)"/>
<path d="M0 0 C2 1 2 1 2 1 Z " fill="#FEFEFE" transform="translate(185,271)"/>
<path d="M0 0 C2 1 2 1 2 1 Z " fill="#FFFFFF" transform="translate(309,270)"/>
<path d="M0 0 C2 1 2 1 2 1 Z " fill="#FFFFFF" transform="translate(255,254)"/>
<path d="M0 0 C2 1 2 1 2 1 Z " fill="#FFFFFF" transform="translate(326,239)"/>
<path d="M0 0 C2 1 2 1 2 1 Z " fill="#FFFFFF" transform="translate(321,231)"/>
<path d="" fill="#FFFFFF" transform="translate(0,0)"/>
<path d="M0 0 C2 1 2 1 2 1 Z " fill="#FEFEFE" transform="translate(349,215)"/>
<path d="" fill="#FFFFFF" transform="translate(0,0)"/>
<path d="M0 0 C2 1 2 1 2 1 Z " fill="#FFFFFF" transform="translate(161,200)"/>
<path d="M0 0 C2 1 2 1 2 1 Z " fill="#FFFFFF" transform="translate(309,196)"/>
<path d="M0 0 C2 1 2 1 2 1 Z " fill="#FFFFFF" transform="translate(312,193)"/>
<path d="M0 0 C2 1 2 1 2 1 Z " fill="#FFFFFF" transform="translate(341,190)"/>
<path d="" fill="#FFFFFF" transform="translate(0,0)"/>
<path d="M0 0 C2 1 2 1 2 1 Z " fill="#FEFEFE" transform="translate(176,154)"/>
<path d="M0 0 C2 1 2 1 2 1 Z " fill="#FEFEFE" transform="translate(322,153)"/>
<path d="M0 0 C2 1 2 1 2 1 Z " fill="#FFFFFF" transform="translate(272,151)"/>
<path d="M0 0 C2 1 2 1 2 1 Z " fill="#FEFEFE" transform="translate(223,151)"/>
<path d="M0 0 C2 1 2 1 2 1 Z " fill="#FFFFFF" transform="translate(264,146)"/>
<path d="M0 0 C2 1 2 1 2 1 Z " fill="#FFFEFE" transform="translate(184,146)"/>
<path d="M0 0 C2 1 2 1 2 1 Z " fill="#FFFFFF" transform="translate(211,128)"/>
<path d="" fill="#FFFFFF" transform="translate(0,0)"/>
<path d="" fill="#FEFEFE" transform="translate(0,0)"/>
<path d="" fill="#FEFEFE" transform="translate(0,0)"/>
<path d="" fill="#FEFEFE" transform="translate(0,0)"/>
<path d="" fill="#FEFEFE" transform="translate(0,0)"/>
<path d="" fill="#FFFFFF" transform="translate(0,0)"/>
<path d="" fill="#FEFEFE" transform="translate(0,0)"/>
<path d="" fill="#FFFFFF" transform="translate(0,0)"/>
<path d="" fill="#FFFFFF" transform="translate(0,0)"/>
<path d="" fill="#FFFFFF" transform="translate(0,0)"/>
<path d="" fill="#FFFFFF" transform="translate(0,0)"/>
<path d="" fill="#FFFFFF" transform="translate(0,0)"/>
<path d="" fill="#FFFFFF" transform="translate(0,0)"/>
<path d="" fill="#FFFFFF" transform="translate(0,0)"/>
<path d="" fill="#FFFFFF" transform="translate(0,0)"/>
<path d="" fill="#FFFFFF" transform="translate(0,0)"/>
<path d="" fill="#FFFFFF" transform="translate(0,0)"/>
<path d="" fill="#FFFFFF" transform="translate(0,0)"/>
<path d="" fill="#FFFFFF" transform="translate(0,0)"/>
<path d="" fill="#FFFFFF" transform="translate(0,0)"/>
<path d="" fill="#FFFFFF" transform="translate(0,0)"/>
<path d="" fill="#FFFFFF" transform="translate(0,0)"/>
<path d="" fill="#FFFFFF" transform="translate(0,0)"/>
<path d="" fill="#FFFFFF" transform="translate(0,0)"/>
<path d="" fill="#FFFFFF" transform="translate(0,0)"/>
<path d="" fill="#FFFFFF" transform="translate(0,0)"/>
<path d="" fill="#FFFFFF" transform="translate(0,0)"/>
<path d="" fill="#FFFFFF" transform="translate(0,0)"/>
<path d="" fill="#FFFFFF" transform="translate(0,0)"/>
<path d="" fill="#FFFFFF" transform="translate(0,0)"/>
<path d="" fill="#FFFFFF" transform="translate(0,0)"/>
<path d="" fill="#FFFFFF" transform="translate(0,0)"/>
<path d="" fill="#FFFFFF" transform="translate(0,0)"/>
<path d="" fill="#FFFFFF" transform="translate(0,0)"/>
<path d="" fill="#FFFFFF" transform="translate(0,0)"/>
<path d="" fill="#FFFFFF" transform="translate(0,0)"/>
<path d="" fill="#FFFFFF" transform="translate(0,0)"/>
<path d="" fill="#FFFFFF" transform="translate(0,0)"/>
<path d="" fill="#FFFFFF" transform="translate(0,0)"/>
<path d="" fill="#FFFFFF" transform="translate(0,0)"/>
<path d="" fill="#FFFFFF" transform="translate(0,0)"/>
<path d="" fill="#FFFFFF" transform="translate(0,0)"/>
<path d="" fill="#FFFFFF" transform="translate(0,0)"/>
<path d="" fill="#FFFFFF" transform="translate(0,0)"/>
<path d="" fill="#FFFFFF" transform="translate(0,0)"/>
<path d="" fill="#FFFFFF" transform="translate(0,0)"/>
<path d="" fill="#FFFFFF" transform="translate(0,0)"/>
<path d="" fill="#FFFFFF" transform="translate(0,0)"/>
<path d="" fill="#FFFFFF" transform="translate(0,0)"/>
<path d="" fill="#FFFFFF" transform="translate(0,0)"/>
<path d="" fill="#FFFFFF" transform="translate(0,0)"/>
<path d="" fill="#FFFFFF" transform="translate(0,0)"/>
<path d="" fill="#FFFFFF" transform="translate(0,0)"/>
<path d="" fill="#FFFFFF" transform="translate(0,0)"/>
<path d="" fill="#FFFFFF" transform="translate(0,0)"/>
<path d="" fill="#FFFFFF" transform="translate(0,0)"/>
<path d="" fill="#FFFFFF" transform="translate(0,0)"/>
<path d="" fill="#FFFFFF" transform="translate(0,0)"/>
<path d="" fill="#FFFFFF" transform="translate(0,0)"/>
<path d="" fill="#FFFFFF" transform="translate(0,0)"/>
<path d="" fill="#FFFFFF" transform="translate(0,0)"/>
<path d="" fill="#FFFFFF" transform="translate(0,0)"/>
<path d="" fill="#FFFFFF" transform="translate(0,0)"/>
<path d="" fill="#FFFFFF" transform="translate(0,0)"/>
<path d="" fill="#FFFFFF" transform="translate(0,0)"/>
<path d="" fill="#FFFFFF" transform="translate(0,0)"/>
<path d="" fill="#FFFFFF" transform="translate(0,0)"/>
<path d="" fill="#FFFFFF" transform="translate(0,0)"/>
<path d="" fill="#FFFFFF" transform="translate(0,0)"/>
<path d="" fill="#FFFFFF" transform="translate(0,0)"/>
<path d="" fill="#FFFFFF" transform="translate(0,0)"/>
<path d="" fill="#FFFFFF" transform="translate(0,0)"/>
<path d="" fill="#FFFFFF" transform="translate(0,0)"/>
<path d="" fill="#FFFFFF" transform="translate(0,0)"/>
<path d="" fill="#FFFFFF" transform="translate(0,0)"/>
<path d="" fill="#FFFFFF" transform="translate(0,0)"/>
<path d="" fill="#FFFFFF" transform="translate(0,0)"/>
<path d="" fill="#FFFFFF" transform="translate(0,0)"/>
<path d="" fill="#FFFFFF" transform="translate(0,0)"/>
<path d="" fill="#FFFFFF" transform="translate(0,0)"/>
<path d="" fill="#FFFFFF" transform="translate(0,0)"/>
<path d="" fill="#FFFFFF" transform="translate(0,0)"/>
<path d="" fill="#FFFFFF" transform="translate(0,0)"/>
<path d="" fill="#FFFFFF" transform="translate(0,0)"/>
<path d="" fill="#FFFFFF" transform="translate(0,0)"/>
<path d="" fill="#FFFFFF" transform="translate(0,0)"/>
<path d="" fill="#FFFFFF" transform="translate(0,0)"/>
<path d="" fill="#FFFFFF" transform="translate(0,0)"/>
<path d="" fill="#FFFFFF" transform="translate(0,0)"/>
<path d="" fill="#FFFFFF" transform="translate(0,0)"/>
<path d="" fill="#FFFFFF" transform="translate(0,0)"/>
<path d="" fill="#FFFFFF" transform="translate(0,0)"/>
<path d="" fill="#FFFFFF" transform="translate(0,0)"/>
<path d="" fill="#FFFFFF" transform="translate(0,0)"/>
<path d="" fill="#FFFFFF" transform="translate(0,0)"/>
<path d="" fill="#FFFFFF" transform="translate(0,0)"/>
<path d="" fill="#FFFFFF" transform="translate(0,0)"/>
<path d="" fill="#FFFFFF" transform="translate(0,0)"/>
<path d="" fill="#FFFFFF" transform="translate(0,0)"/>
<path d="" fill="#FFFFFF" transform="translate(0,0)"/>
<path d="" fill="#FFFFFF" transform="translate(0,0)"/>
<path d="" fill="#FFFFFF" transform="translate(0,0)"/>
<path d="" fill="#FFFFFF" transform="translate(0,0)"/>
<path d="" fill="#FFFFFF" transform="translate(0,0)"/>
<path d="" fill="#FFFFFF" transform="translate(0,0)"/>
<path d="" fill="#FFFFFF" transform="translate(0,0)"/>
<path d="" fill="#FFFFFF" transform="translate(0,0)"/>
<path d="" fill="#FFFFFF" transform="translate(0,0)"/>
<path d="" fill="#FFFFFF" transform="translate(0,0)"/>
<path d="" fill="#FFFFFF" transform="translate(0,0)"/>
<path d="" fill="#FFFFFF" transform="translate(0,0)"/>
<path d="" fill="#FFFFFF" transform="translate(0,0)"/>
<path d="" fill="#FFFFFF" transform="translate(0,0)"/>
<path d="" fill="#FFFFFF" transform="translate(0,0)"/>
<path d="" fill="#FFFFFF" transform="translate(0,0)"/>
<path d="" fill="#FFFFFF" transform="translate(0,0)"/>
<path d="" fill="#FFFFFF" transform="translate(0,0)"/>
<path d="" fill="#FFFFFF" transform="translate(0,0)"/>
<path d="" fill="#FFFFFF" transform="translate(0,0)"/>
<path d="" fill="#FFFFFF" transform="translate(0,0)"/>
<path d="" fill="#FFFFFF" transform="translate(0,0)"/>
<path d="" fill="#FFFFFF" transform="translate(0,0)"/>
<path d="" fill="#FFFFFF" transform="translate(0,0)"/>
<path d="" fill="#FFFFFF" transform="translate(0,0)"/>
<path d="" fill="#FFFFFF" transform="translate(0,0)"/>
<path d="" fill="#FFFFFF" transform="translate(0,0)"/>
<path d="" fill="#FFFFFF" transform="translate(0,0)"/>
<path d="" fill="#FFFFFF" transform="translate(0,0)"/>
<path d="" fill="#FFFFFF" transform="translate(0,0)"/>
<path d="" fill="#FEFEFE" transform="translate(0,0)"/>
<path d="" fill="#FFFFFF" transform="translate(0,0)"/>
<path d="" fill="#FFFFFF" transform="translate(0,0)"/>
<path d="" fill="#FFFFFF" transform="translate(0,0)"/>
<path d="" fill="#FFFFFF" transform="translate(0,0)"/>
<path d="" fill="#FFFFFF" transform="translate(0,0)"/>
<path d="" fill="#FFFFFF" transform="translate(0,0)"/>
<path d="" fill="#FFFFFF" transform="translate(0,0)"/>
<path d="" fill="#FFFFFF" transform="translate(0,0)"/>
<path d="" fill="#FFFFFF" transform="translate(0,0)"/>
<path d="" fill="#FFFFFF" transform="translate(0,0)"/>
<path d="" fill="#FFFFFF" transform="translate(0,0)"/>
<path d="" fill="#FFFFFF" transform="translate(0,0)"/>
<path d="" fill="#FFFFFF" transform="translate(0,0)"/>
<path d="" fill="#FFFFFF" transform="translate(0,0)"/>
<path d="" fill="#FFFFFF" transform="translate(0,0)"/>
<path d="" fill="#FFFFFF" transform="translate(0,0)"/>
<path d="" fill="#FFFFFF" transform="translate(0,0)"/>
<path d="" fill="#FEFEFE" transform="translate(0,0)"/>
<path d="" fill="#FFFFFF" transform="translate(0,0)"/>
<path d="" fill="#FFFFFF" transform="translate(0,0)"/>
<path d="" fill="#FFFFFF" transform="translate(0,0)"/>
<path d="" fill="#FFFFFF" transform="translate(0,0)"/>
<path d="" fill="#FFFFFF" transform="translate(0,0)"/>
<path d="" fill="#FFFFFF" transform="translate(0,0)"/>
<path d="" fill="#FFFFFF" transform="translate(0,0)"/>
<path d="" fill="#FFFFFF" transform="translate(0,0)"/>
<path d="" fill="#FFFFFF" transform="translate(0,0)"/>
<path d="" fill="#FFFFFF" transform="translate(0,0)"/>
<path d="" fill="#FFFFFF" transform="translate(0,0)"/>
<path d="" fill="#FFFFFF" transform="translate(0,0)"/>
<path d="" fill="#FFFFFF" transform="translate(0,0)"/>
<path d="" fill="#FFFFFF" transform="translate(0,0)"/>
<path d="" fill="#FFFFFF" transform="translate(0,0)"/>
<path d="" fill="#FFFFFF" transform="translate(0,0)"/>
<path d="" fill="#FFFFFF" transform="translate(0,0)"/>
<path d="" fill="#FFFFFF" transform="translate(0,0)"/>
<path d="" fill="#FFFFFF" transform="translate(0,0)"/>
<path d="" fill="#FFFFFF" transform="translate(0,0)"/>
<path d="" fill="#FFFFFF" transform="translate(0,0)"/>
<path d="" fill="#FFFFFF" transform="translate(0,0)"/>
<path d="" fill="#FFFFFF" transform="translate(0,0)"/>
<path d="" fill="#FFFFFF" transform="translate(0,0)"/>
<path d="" fill="#FFFFFF" transform="translate(0,0)"/>
<path d="" fill="#FFFFFF" transform="translate(0,0)"/>
<path d="" fill="#FFFFFF" transform="translate(0,0)"/>
<path d="" fill="#FFFFFF" transform="translate(0,0)"/>
<path d="" fill="#FFFFFF" transform="translate(0,0)"/>
<path d="" fill="#FFFFFF" transform="translate(0,0)"/>
<path d="" fill="#FFFFFF" transform="translate(0,0)"/>
<path d="" fill="#FFFFFF" transform="translate(0,0)"/>
<path d="" fill="#FFFFFF" transform="translate(0,0)"/>
<path d="" fill="#FFFFFF" transform="translate(0,0)"/>
<path d="" fill="#FFFFFF" transform="translate(0,0)"/>
<path d="" fill="#FFFFFF" transform="translate(0,0)"/>
<path d="" fill="#FFFFFF" transform="translate(0,0)"/>
<path d="" fill="#FFFFFF" transform="translate(0,0)"/>
<path d="" fill="#FFFFFF" transform="translate(0,0)"/>
<path d="" fill="#FFFFFF" transform="translate(0,0)"/>
<path d="" fill="#FFFFFF" transform="translate(0,0)"/>
<path d="" fill="#FFFFFF" transform="translate(0,0)"/>
<path d="" fill="#FFFFFF" transform="translate(0,0)"/>
<path d="" fill="#FFFFFF" transform="translate(0,0)"/>
<path d="" fill="#FFFFFF" transform="translate(0,0)"/>
<path d="" fill="#FFFFFF" transform="translate(0,0)"/>
<path d="" fill="#FFFFFF" transform="translate(0,0)"/>
<path d="" fill="#FFFFFF" transform="translate(0,0)"/>
<path d="" fill="#FFFFFF" transform="translate(0,0)"/>
<path d="" fill="#FFFFFF" transform="translate(0,0)"/>
<path d="" fill="#FFFFFF" transform="translate(0,0)"/>
<path d="" fill="#FFFFFF" transform="translate(0,0)"/>
<path d="" fill="#FFFFFF" transform="translate(0,0)"/>
</svg>
