<?xml version="1.0" encoding="UTF-8"?>
<svg version="1.1" xmlns="http://www.w3.org/2000/svg" width="532" height="532">
<path d="M0 0 C1.65 0 3.3 0 5 0 C5 0.66 5 1.32 5 2 C6.7491497 2.33776684 8.49936145 2.67003671 10.25 3 C11.71179688 3.2784375 11.71179688 3.2784375 13.203125 3.5625 C16.18684279 4.10303017 16.18684279 4.10303017 20 4 C22.625 5.4375 22.625 5.4375 25 7 C25.99 7.495 25.99 7.495 27 8 C27.33 7.34 27.66 6.68 28 6 C29.32 6.66 30.64 7.32 32 8 C31.67 8.66 31.34 9.32 31 10 C35.99367864 10.7282448 40.99109914 11.38487182 46 12 C46.495 13.485 46.495 13.485 47 15 C47.33 14.34 47.66 13.68 48 13 C48.598125 13.350625 49.19625 13.70125 49.8125 14.0625 C52.10813214 15.33304698 52.10813214 15.33304698 55 14 C55.495 15.485 55.495 15.485 56 17 C57.65420467 17.96626684 57.65420467 17.96626684 59.7265625 18.61328125 C60.50402832 18.88857666 61.28149414 19.16387207 62.08251953 19.44750977 C63.34104736 19.87567993 63.34104736 19.87567993 64.625 20.3125 C66.36507403 20.93091268 68.10465214 21.55072242 69.84375 22.171875 C70.71386719 22.47931641 71.58398438 22.78675781 72.48046875 23.10351562 C97.93080652 32.15910093 97.93080652 32.15910093 105 44 C107.38736263 51.1620879 106.8023187 60.02771165 104.12890625 67.06640625 C102.44459715 69.95129555 100.21051251 71.77216186 97.5234375 73.7109375 C95.7028391 75.02490445 95.7028391 75.02490445 95 78 C93.29296875 79.6484375 93.29296875 79.6484375 91.1875 81.375 C87.48635175 84.51235327 84.1974285 87.605143 82 92 C81.175 92.45375 80.35 92.9075 79.5 93.375 C76.902261 94.75066052 76.902261 94.75066052 76.0625 97 C75.79623992 99.32314652 75.79623992 99.32314652 78 102 C80.39719432 102.67958603 80.39719432 102.67958603 83 103 C83.70125 103.20625 84.4025 103.4125 85.125 103.625 C87.21447673 104.2041405 87.21447673 104.2041405 90 103 C90 103.66 90 104.32 90 105 C91.32 105 92.64 105 94 105 C94.33 104.34 94.66 103.68 95 103 C95 103.66 95 104.32 95 105 C97.97 104.505 97.97 104.505 101 104 C101 104.66 101 105.32 101 106 C103.97 105.505 103.97 105.505 107 105 C107.9841125 106.26700723 108.96211497 107.5387619 109.9375 108.8125 C110.48277344 109.52019531 111.02804687 110.22789062 111.58984375 110.95703125 C114.35955325 114.96965748 114.73770069 119.27200923 114 124 C112.77387767 127.06530582 111.42556643 129.73801828 109 132 C104.32332452 133.06018692 99.70545348 133.14624824 94.93359375 133.1328125 C94.17708023 133.13376923 93.42056671 133.13472595 92.64112854 133.13571167 C91.05022091 133.13638891 89.45931045 133.1345666 87.8684082 133.13037109 C85.44150566 133.12500885 83.01478753 133.13033541 80.58789062 133.13671875 C79.03645793 133.13605803 77.48502534 133.134777 75.93359375 133.1328125 C74.85216347 133.13584885 74.85216347 133.13584885 73.74888611 133.13894653 C70.02681787 133.12171767 66.63118358 132.78474164 63 132 C60.76832815 132.36856864 60.76832815 132.36856864 59 133 C58.938125 132.38125 58.87625 131.7625 58.8125 131.125 C58.20168101 128.7832089 58.20168101 128.7832089 55.8125 128 C54.884375 127.67 53.95625 127.34 53 127 C48.21071434 124.31800003 46.08333983 122.09260848 44 117 C43.34 117 42.68 117 42 117 C42 116.34 42 115.68 42 115 C41.01 115 40.02 115 39 115 C39 114.34 39 113.68 39 113 C39.66 113 40.32 113 41 113 C41.12375421 108.88744122 41.12375421 108.88744122 40.375 104.875 C39.85856404 102.2928202 40.78984992 101.34068502 42 99 C42.896218 96.80019219 43.76961249 94.59100391 44.625 92.375 C45.07101562 91.22773438 45.51703125 90.08046875 45.9765625 88.8984375 C47.11098435 86.19798873 47.11098435 86.19798873 47 84 C47.66 83.67 48.32 83.34 49 83 C49 80.03 49 77.06 49 74 C48.34 74 47.68 74 47 74 C46.67 73.01 46.34 72.02 46 71 C43.11681225 69.81664605 43.11681225 69.81664605 40 69 C38.515 68.505 38.515 68.505 37 68 C36.67 67.01 36.34 66.02 36 65 C35.01 65 34.02 65 33 65 C31 64 31 64 29 61 C28.34 61 27.68 61 27 61 C26.67 60.34 26.34 59.68 26 59 C25.01 59.99 25.01 59.99 24 61 C23.01 59.02 23.01 59.02 22 57 C21.67 57.99 21.34 58.98 21 60 C18.9375 60.6875 18.9375 60.6875 17 61 C18.16554807 67.0509304 19.45343096 73.03466226 21 79 C21.66 79 22.32 79 23 79 C23.18175781 79.97582031 23.36351562 80.95164062 23.55078125 81.95703125 C23.80214844 83.22933594 24.05351562 84.50164062 24.3125 85.8125 C24.55613281 87.07707031 24.79976563 88.34164062 25.05078125 89.64453125 C25.99828105 92.99392354 26.59196273 93.75384759 29 96 C29 97.32 29 98.64 29 100 C29.42996511 102.57979066 29.82942256 104.65884511 31 107 C31.19756588 116.96296489 29.43954994 123.19048756 22.75 130.4375 C16.31592621 134.09322374 7.63107705 133.15931315 0.41015625 133.16796875 C-1.06669395 133.17296135 -1.06669395 133.17296135 -2.57337952 133.17805481 C-4.64323463 133.18308821 -6.71309776 133.18546425 -8.78295898 133.18530273 C-11.92510485 133.18749137 -15.06690032 133.20569152 -18.20898438 133.22460938 C-20.23176965 133.22754375 -22.25455657 133.22952825 -24.27734375 133.23046875 C-25.20369125 133.23765427 -26.13003876 133.24483978 -27.0844574 133.25224304 C-42.22107158 133.199985 -42.22107158 133.199985 -48 128.625 C-52.5525885 122.64972759 -52.28970619 117.91103363 -51.75 110.625 C-51 108 -51 108 -49.25 106.75 C-48.5075 106.5025 -47.765 106.255 -47 106 C-46.33097656 105.65710938 -45.66195312 105.31421875 -44.97265625 104.9609375 C-40.69891115 103.57941149 -36.64646355 103.78854731 -32.1875 103.875 C-30.86202148 103.88853516 -30.86202148 103.88853516 -29.50976562 103.90234375 C-27.33972641 103.92580363 -25.16982753 103.96167135 -23 104 C-22.505 102.515 -22.505 102.515 -22 101 C-21.505 101.99 -21.505 101.99 -21 103 C-18.03 102.505 -18.03 102.505 -15 102 C-15.33 100.68 -15.66 99.36 -16 98 C-15.01 98.495 -15.01 98.495 -14 99 C-13.67 98.34 -13.34 97.68 -13 97 C-13.99 97 -14.98 97 -16 97 C-15.79503906 96.45472656 -15.59007812 95.90945312 -15.37890625 95.34765625 C-14.87146431 92.20360878 -15.7519384 90.37146558 -16.9375 87.4375 C-19 82.28474576 -19 82.28474576 -19 79 C-19.66 79 -20.32 79 -21 79 C-21.66 78.01 -22.32 77.02 -23 76 C-22.835 75.360625 -22.67 74.72125 -22.5 74.0625 C-21.84089767 71.34370288 -22.62507972 70.36791826 -24 68 C-25.02529349 64.92411953 -25.54659556 62.01110753 -26.0625 58.8125 C-26.32740234 57.18248047 -26.32740234 57.18248047 -26.59765625 55.51953125 C-26.79681641 54.27236328 -26.79681641 54.27236328 -27 53 C-28.32 52.67 -29.64 52.34 -31 52 C-31 50.68 -31 49.36 -31 48 C-30.34 48 -29.68 48 -29 48 C-29.49306641 46.76830078 -29.49306641 46.76830078 -29.99609375 45.51171875 C-31.13541259 41.52631939 -31.18709393 37.90899726 -31.0625 33.8125 C-30.87319912 28.33510963 -30.87319912 28.33510963 -32 23 C-31.34 22.34 -30.68 21.68 -30 21 C-26.29766942 16.48901862 -26.29766942 16.48901862 -25 11 C-24.01 11 -23.02 11 -22 11 C-19.83023454 9.17739702 -18.59459332 7.39188999 -17 5 C-16.34 5 -15.68 5 -15 5 C-11.43315137 4.17138134 -11.43315137 4.17138134 -8 3 C-7.67 2.34 -7.34 1.68 -7 1 C-6.505 1.495 -6.505 1.495 -6 2 C-4.00041636 2.04080783 -1.99954746 2.04254356 0 2 C0 1.34 0 0.68 0 0 Z M42 111 C43 113 43 113 43 113 Z " fill="#E8E9E9" transform="translate(213,156)"/>
<path d="M0 0 C2.02045442 0.60183749 4.02111039 1.27306096 6 2 C6.495 2.99 6.495 2.99 7 4 C8.71535233 4.9566388 10.43172704 5.91155613 12.15625 6.8515625 C14.82302162 8.51264482 16.81848183 10.75788411 19 13 C19.99 13.33 20.98 13.66 22 14 C22.495 17.465 22.495 17.465 23 21 C23.99 21 24.98 21 26 21 C25.505 22.485 25.505 22.485 25 24 C25.27571139 26.00875442 25.60235737 28.01178687 26 30 C26.66 30 27.32 30 28 30 C28.41587486 35.69091919 27.19922406 39.38936565 24.4375 44.25 C23.18796596 46.48080653 22.07366636 48.67128496 21 51 C21.33 51.99 21.66 52.98 22 54 C20.68 54 19.36 54 18 54 C15.33333333 56.33333333 15.33333333 56.33333333 13 59 C12.34 59.66 11.68 60.32 11 61 C10.01 61 9.02 61 8 61 C6.948125 61.433125 6.948125 61.433125 5.875 61.875 C2.61799546 63.14948004 -0.59186407 63.83969 -4.01171875 64.53515625 C-6.05850436 64.93264724 -6.05850436 64.93264724 -8 66 C-8 65.01 -8 64.02 -8 63 C-9.26457031 62.90912109 -9.26457031 62.90912109 -10.5546875 62.81640625 C-11.65039062 62.73261719 -12.74609375 62.64882813 -13.875 62.5625 C-14.96554687 62.48128906 -16.05609375 62.40007812 -17.1796875 62.31640625 C-20 62 -20 62 -22 61 C-24.09821215 61.39938767 -24.09821215 61.39938767 -26 62 C-25.9175 61.071875 -25.835 60.14375 -25.75 59.1875 C-25.66362052 55.94982783 -25.66362052 55.94982783 -27.8125 54.125 C-30.03467164 52.77132599 -30.03467164 52.77132599 -33 53 C-32.9175 52.236875 -32.835 51.47375 -32.75 50.6875 C-33.05175058 46.23667893 -34.41313761 42.71691666 -36.02734375 38.5859375 C-37.41988067 34.88369076 -38 31.92480681 -38 28 C-37.34 27.67 -36.68 27.34 -36 27 C-34.97520995 24.7920741 -34.97520995 24.7920741 -34.0625 22.1875 C-33.04947742 19.41091585 -32.20197224 17.25718768 -30.37109375 14.92578125 C-28.61334196 12.85091746 -28.61334196 12.85091746 -29 9 C-28.34 9 -27.68 9 -27 9 C-26.34 8.34 -25.68 7.68 -25 7 C-24.34 7 -23.68 7 -23 7 C-21.32254318 6.36096883 -19.65438613 5.69658363 -18 5 C-18 4.01 -18 3.02 -18 2 C-12.06 2 -6.12 2 0 2 C0 1.34 0 0.68 0 0 Z " fill="#E7E7E7" transform="translate(358,203)"/>
<path d="M0 0 C0 0.66 0 1.32 0 2 C0.66 2 1.32 2 2 2 C2.33 1.34 2.66 0.68 3 0 C4.485 0.495 4.485 0.495 6 1 C6.70710678 2.64991582 7.36562656 4.3207762 8 6 C9.0209375 7.4540625 9.0209375 7.4540625 10.0625 8.9375 C12.06746949 12.10664532 12.64818064 14.30589675 13 18 C12.01 18 11.02 18 10 18 C9.505 19.485 9.505 19.485 9 21 C8.505 20.01 8.505 20.01 8 19 C7.34 19 6.68 19 6 19 C6 19.99 6 20.98 6 22 C5.01 22 4.02 22 3 22 C3 21.34 3 20.68 3 20 C2.01 20 1.02 20 0 20 C-1.41377341 17.36095629 -2.37240135 14.92879371 -3 12 C-3.99 12.33 -4.98 12.66 -6 13 C-8.6875 12.5625 -8.6875 12.5625 -11 12 C-11.33 13.32 -11.66 14.64 -12 16 C-12.66 16 -13.32 16 -14 16 C-13.67 16.99 -13.34 17.98 -13 19 C-9.07277596 20.96361202 -5.3429862 22.34197179 -1 23 C-0.67 22.34 -0.34 21.68 0 21 C0.66 21.99 1.32 22.98 2 24 C2.66 23.67 3.32 23.34 4 23 C4.66 23.33 5.32 23.66 6 24 C6 24.99 6 25.98 6 27 C6.556875 27.226875 7.11375 27.45375 7.6875 27.6875 C10.71572375 29.40622159 12.77323664 31.32788397 15 34 C14.75 36.25 14.75 36.25 14 38 C14.33 38.33 14.66 38.66 15 39 C16.65 37.02 18.3 35.04 20 33 C19.01 32.505 19.01 32.505 18 32 C18.33 30.68 18.66 29.36 19 28 C18.34 28 17.68 28 17 28 C16.34 26.68 15.68 25.36 15 24 C15.99 23.67 16.98 23.34 18 23 C18.3403125 21.8553125 18.3403125 21.8553125 18.6875 20.6875 C20.63470191 16.70037227 23.94663732 15.5115665 28 14 C28.66 14 29.32 14 30 14 C30.33 13.34 30.66 12.68 31 12 C33.97 12.33 36.94 12.66 40 13 C40 13.66 40 14.32 40 15 C40.94875 15.0825 41.8975 15.165 42.875 15.25 C46 16 46 16 47.1875 17.8125 C47.5896875 18.8953125 47.5896875 18.8953125 48 20 C48.97581759 21.35113205 49.97029741 22.68946944 51 24 C50.67 24.66 50.34 25.32 50 26 C50.11603854 27.670955 50.29224439 29.33795513 50.5 31 C51.07189448 36.48005216 50.76728385 41.55818688 50 47 C50.66 47 51.32 47 52 47 C51.835 47.598125 51.67 48.19625 51.5 48.8125 C50.8885876 51.11344336 50.8885876 51.11344336 51 54 C49 55.6875 49 55.6875 47 57 C47 56.34 47 55.68 47 55 C46.34 55 45.68 55 45 55 C45 55.66 45 56.32 45 57 C42.36 57 39.72 57 37 57 C37 56.01 37 55.02 37 54 C35.02 54.495 35.02 54.495 33 55 C33 55.66 33 56.32 33 57 C26.31152244 55.89607652 20.95137696 54.95137696 16 50 C15.01 49.67 14.02 49.34 13 49 C13 48.34 13 47.68 13 47 C13.66 47 14.32 47 15 47 C14.67 46.34 14.34 45.68 14 45 C11.23686141 47.68419177 8.93491393 50.09147232 6.6875 53.25 C3.8839546 56.11874413 2.43255739 56.83773126 -1.54296875 57.04296875 C-16.04722751 56.78931717 -16.04722751 56.78931717 -18.73046875 54.56640625 C-19.14941406 54.04949219 -19.56835938 53.53257812 -20 53 C-20.825 52.401875 -21.65 51.80375 -22.5 51.1875 C-25.97279126 48.14880765 -27.73685615 45.10515083 -28.3125 40.5 C-27.93602928 37.48823426 -27.05628796 34.8387739 -26 32 C-25.01 32 -24.02 32 -23 32 C-23.33 30.02 -23.66 28.04 -24 26 C-24.66 26.33 -25.32 26.66 -26 27 C-26.76772616 10.62184189 -26.76772616 10.62184189 -22 4 C-20.05859375 3.3671875 -20.05859375 3.3671875 -18 3 C-16.948125 2.67 -15.89625 2.34 -14.8125 2 C-9.94918113 0.72437538 -5.03739335 0 0 0 Z M29 24 C27.68 26.31 26.36 28.62 25 31 C26.65 30.67 28.3 30.34 30 30 C29.67 29.01 29.34 28.02 29 27 C31.4375 27.375 31.4375 27.375 34 28 C34.33 28.66 34.66 29.32 35 30 C35 29.34 35 28.68 35 28 C35.99 28.33 36.98 28.66 38 29 C37.67 27.35 37.34 25.7 37 24 C34.36 24 31.72 24 29 24 Z M-21 29 C-21 29.99 -21 30.98 -21 32 C-21.99 32.495 -21.99 32.495 -23 33 C-22.01 33.99 -21.02 34.98 -20 36 C-20 35.34 -20 34.68 -20 34 C-18 36 -18 36 -17.1875 38.375 C-15.7273616 41.60267436 -13.85395549 42.97218952 -11 45 C-10.67 44.34 -10.34 43.68 -10 43 C-9.01 43 -8.02 43 -7 43 C-7 43.66 -7 44.32 -7 45 C-4.56282742 44.72965366 -4.56282742 44.72965366 -2 44 C-0.25372522 41.38058783 0.38722388 39.96175123 1 37 C0.01 37.495 0.01 37.495 -1 38 C-1.33 37.01 -1.66 36.02 -2 35 C-3.90427938 34.0264407 -3.90427938 34.0264407 -6.25390625 33.39453125 C-7.10791016 33.13349609 -7.96191406 32.87246094 -8.84179688 32.60351562 C-9.73962891 32.34248047 -10.63746094 32.08144531 -11.5625 31.8125 C-12.46419922 31.53986328 -13.36589844 31.26722656 -14.29492188 30.98632812 C-16.52689927 30.31319209 -18.76167928 29.651671 -21 29 Z M21 30 C21 30.66 21 31.32 21 32 C21.66 31.67 22.32 31.34 23 31 C22.34 30.67 21.68 30.34 21 30 Z M28.75 39.875 C28.1725 40.24625 27.595 40.6175 27 41 C27 41.66 27 42.32 27 43 C28.98 43 30.96 43 33 43 C33.33 43.66 33.66 44.32 34 45 C34.33 43.68 34.66 42.36 35 41 C32.05590637 39.06403854 32.05590637 39.06403854 28.75 39.875 Z M31 44 C30.34 44.66 29.68 45.32 29 46 C30.32 45.67 31.64 45.34 33 45 C32.34 44.67 31.68 44.34 31 44 Z " fill="#E1E1E1" transform="translate(214,344)"/>
<path d="M0 0 C3.63 0 7.26 0 11 0 C12.09658936 3.28976808 11.79953138 4.71303767 11 8 C11.66 8 12.32 8 13 8 C13 9.32 13 10.64 13 12 C12.34 12 11.68 12 11 12 C11.185625 12.61875 11.37125 13.2375 11.5625 13.875 C12 16 12 16 11 18 C11.66 18 12.32 18 13 18 C13 18.99 13 19.98 13 21 C12.34 21 11.68 21 11 21 C11.57452746 24.93075644 11.57452746 24.93075644 14 28 C13.67386719 28.53367187 13.34773438 29.06734375 13.01171875 29.6171875 C11.74903844 32.59106777 11.76896644 34.90351692 11.8125 38.125 C11.82216797 39.70667969 11.82216797 39.70667969 11.83203125 41.3203125 C11.82319042 43.97169979 11.82319042 43.97169979 13 46 C12.66015625 48.1640625 12.66015625 48.1640625 12.0625 50.625 C11.86785156 51.44226563 11.67320312 52.25953125 11.47265625 53.1015625 C11.31667969 53.72804688 11.16070312 54.35453125 11 55 C6.94392005 55.98329211 3.16937798 56.23600253 -1 56 C-1.66 55.34 -2.32 54.68 -3 54 C-3.99 54 -4.98 54 -6 54 C-6.33 54.66 -6.66 55.32 -7 56 C-8.6045556 55.85851011 -10.20863767 55.71164314 -11.8125 55.5625 C-12.70582031 55.48128906 -13.59914063 55.40007812 -14.51953125 55.31640625 C-17 55 -17 55 -20 54 C-20 53.01 -20 52.02 -20 51 C-20.66 51 -21.32 51 -22 51 C-24.01178391 48.66633067 -25.01595171 46.95214486 -26 44 C-26.66 44 -27.32 44 -28 44 C-28.14584064 40.77131254 -28.23424106 37.54347635 -28.3125 34.3125 C-28.35439453 33.40048828 -28.39628906 32.48847656 -28.43945312 31.54882812 C-28.5636199 24.71965561 -28.5636199 24.71965561 -25.671875 21.02734375 C-24.79015625 20.35832031 -23.9084375 19.68929688 -23 19 C-22.45214844 18.48953125 -21.90429688 17.9790625 -21.33984375 17.453125 C-18.56869921 15.07565281 -16.52721693 13.78382599 -13 13 C-12.67 12.01 -12.34 11.02 -12 10 C-11.01 10.33 -10.02 10.66 -9 11 C-9 11.66 -9 12.32 -9 13 C-6.03 13.66 -3.06 14.32 0 15 C0 10.05 0 5.1 0 0 Z M-14 26 C-15.28449105 31.07822044 -15.17686303 35.90026021 -14 41 C-13.34 41 -12.68 41 -12 41 C-11.67 41.66 -11.34 42.32 -11 43 C-10.34 42.67 -9.68 42.34 -9 42 C-8.67 42.66 -8.34 43.32 -8 44 C-4.21088411 44.35157524 -4.21088411 44.35157524 -2.1875 42.875 C-0.67829897 40.91717482 -0.67829897 40.91717482 -1.3125 37.8125 C-1.539375 36.884375 -1.76625 35.95625 -2 35 C-1.34 35 -0.68 35 0 35 C-0.88214887 32.11785113 -0.88214887 32.11785113 -2 30 C-1.95875 29.175 -1.9175 28.35 -1.875 27.5 C-1.91625 26.675 -1.9575 25.85 -2 25 C-6.40512631 22.06324913 -10.38575782 21.74035743 -14 26 Z M-1 37 C0 39 0 39 0 39 Z " fill="#E1E1E1" transform="translate(312,345)"/>
<path d="M0 0 C0.33 0.66 0.66 1.32 1 2 C2.32 2 3.64 2 5 2 C5.33 1.34 5.66 0.68 6 0 C6 0.66 6 1.32 6 2 C6.61488281 2.07476562 7.22976563 2.14953125 7.86328125 2.2265625 C10.37336078 2.6349008 12.6221406 3.09032069 15 4 C16.9375 7.0625 16.9375 7.0625 18 10 C18.66 10.33 19.32 10.66 20 11 C20 11.66 20 12.32 20 13 C19.34 13 18.68 13 18 13 C18.495 13.99 18.495 13.99 19 15 C19.0204911 17.85997279 18.99523958 20.70410499 18.9375 23.5625 C18.86743147 28.69679714 18.83362205 33.49076961 20.125 38.5 C20.41375 39.655 20.7025 40.81 21 42 C18.64046906 44.35953094 17.22104383 44.49141413 14 45 C14 44.34 14 43.68 14 43 C13.34 43 12.68 43 12 43 C11.67 43.66 11.34 44.32 11 45 C9.02 45 7.04 45 5 45 C5 44.01 5 43.02 5 42 C4.01 42.99 3.02 43.98 2 45 C0.515 44.505 0.515 44.505 -1 44 C-2.34061543 44.30271961 -3.67405895 44.63837971 -5 45 C-6.32 45 -7.64 45 -9 45 C-9.495 43.515 -9.495 43.515 -10 42 C-11.62935241 40.62131719 -13.29749607 39.28725907 -15 38 C-15.66 37.34 -16.32 36.68 -17 36 C-17.33 36 -17.66 36 -18 36 C-18 34.35 -18 32.7 -18 31 C-18.66 31 -19.32 31 -20 31 C-19.505 29.515 -19.505 29.515 -19 28 C-18.01 27.67 -17.02 27.34 -16 27 C-14.77479736 23.99152582 -14.77479736 23.99152582 -14 21 C-13.34 21 -12.68 21 -12 21 C-12 20.01 -12 19.02 -12 18 C-12.99 18 -13.98 18 -15 18 C-15.50537432 12.69356959 -14.30655751 10.13319688 -11 6 C-8.34200077 3.58363706 -7.64705667 3 -4 3 C-3.67 2.34 -3.34 1.68 -3 1 C-2.01 1.33 -1.02 1.66 0 2 C0 1.34 0 0.68 0 0 Z M-2 12 C-4.2773501 14.81509993 -4.2773501 14.81509993 -4 18 C-1.36 18 1.28 18 4 18 C4.33 16.35 4.66 14.7 5 13 C2.69 12.67 0.38 12.34 -2 12 Z M-3.625 28.5 C-4.07875 28.995 -4.5325 29.49 -5 30 C-4.67 30.99 -4.34 31.98 -4 33 C-0.61608307 34.06351675 0.5804634 34.21442982 3.8125 32.5625 C4.8953125 31.7890625 4.8953125 31.7890625 6 31 C5.67 30.01 5.34 29.02 5 28 C3.35 28.33 1.7 28.66 0 29 C0 28.34 0 27.68 0 27 C-2.12364481 26.77390663 -2.12364481 26.77390663 -3.625 28.5 Z M6 28 C7 30 7 30 7 30 Z " fill="#E0DFE0" transform="translate(344,356)"/>
<path d="M0 0 C3.17106439 -0.08808512 5.99083491 -0.07470182 9 1 C9.33 1.66 9.66 2.32 10 3 C10.969375 3.12375 11.93875 3.2475 12.9375 3.375 C14.4534375 3.684375 14.4534375 3.684375 16 4 C17.1875 5.8125 17.1875 5.8125 18 8 C18.97581759 9.35113205 19.97029741 10.68946944 21 12 C20.67 12.66 20.34 13.32 20 14 C20.11603854 15.670955 20.29224439 17.33795513 20.5 19 C21.07189448 24.48005216 20.76728385 29.55818688 20 35 C20.66 35 21.32 35 22 35 C21.835 35.598125 21.67 36.19625 21.5 36.8125 C20.8885876 39.11344336 20.8885876 39.11344336 21 42 C19 43.6875 19 43.6875 17 45 C17 44.34 17 43.68 17 43 C16.34 43 15.68 43 15 43 C15 43.66 15 44.32 15 45 C12.36 45 9.72 45 7 45 C7 43 7 41 7 39 C5.02 38.34 3.04 37.68 1 37 C1.5775 36.773125 2.155 36.54625 2.75 36.3125 C5.5663661 34.66961977 7.08077114 32.60466773 9 30 C8.01 30.33 7.02 30.66 6 31 C5.67 31.99 5.34 32.98 5 34 C4.1028125 33.7215625 4.1028125 33.7215625 3.1875 33.4375 C0.83591238 32.77906313 0.83591238 32.77906313 -2 34 C-2.99 33.01 -3.98 32.02 -5 31 C-4.4375 29.0625 -4.4375 29.0625 -3 27 C-0.67843403 26.59270772 1.6568787 26.25561323 4 26 C4.33 25.34 4.66 24.68 5 24 C1.7 24.66 -1.6 25.32 -5 26 C-1.68987756 22.68987756 -0.46840411 22.49648935 4 22 C1.39902318 20.69951159 -1.13955062 20.43528578 -4 20 C-3.505 19.54625 -3.01 19.0925 -2.5 18.625 C-0.77390663 17.12364481 -0.77390663 17.12364481 -1 15 C1.64 15.33 4.28 15.66 7 16 C7 14.68 7 13.36 7 12 C2.89918577 12.05460162 2.89918577 12.05460162 -1 13 C-2.94583442 15.22381076 -3.79889012 17.24745652 -5 20 C-7.33333333 20 -9.66666667 20 -12 20 C-11.67 18.68 -11.34 17.36 -11 16 C-11.66 16 -12.32 16 -13 16 C-13.66 14.68 -14.32 13.36 -15 12 C-14.01 11.67 -13.02 11.34 -12 11 C-11.773125 10.236875 -11.54625 9.47375 -11.3125 8.6875 C-9.36529809 4.70037227 -6.05336268 3.5115665 -2 2 C-1.34 2 -0.68 2 0 2 C0 1.34 0 0.68 0 0 Z M-1.25 27.875 C-1.8275 28.24625 -2.405 28.6175 -3 29 C-3 29.66 -3 30.32 -3 31 C-1.02 31 0.96 31 3 31 C3.33 31.66 3.66 32.32 4 33 C4.33 31.68 4.66 30.36 5 29 C2.05590637 27.06403854 2.05590637 27.06403854 -1.25 27.875 Z " fill="#E2E2E2" transform="translate(244,356)"/>
<path d="M0 0 C1.80842924 2.74181207 3 4.67867293 3 8 C2.01 8 1.02 8 0 8 C-0.33 8.99 -0.66 9.98 -1 11 C-2.65 11.33 -4.3 11.66 -6 12 C-6 12.66 -6 13.32 -6 14 C-5.34 14.33 -4.68 14.66 -4 15 C-3.67 14.34 -3.34 13.68 -3 13 C-3 13.66 -3 14.32 -3 15 C-2.01 15 -1.02 15 0 15 C1.03281665 19.00216452 1.05110078 22.71967799 0.9375 26.81640625 C1.00063612 29.02222429 1.38663143 30.88675358 2 33 C1.67 33 1.34 33 1 33 C0.98541748 33.85231201 0.97083496 34.70462402 0.95581055 35.58276367 C0.89456715 38.76071175 0.82037971 41.93802546 0.73754883 45.11547852 C0.70440194 46.48775958 0.67633829 47.86017362 0.65356445 49.23266602 C0.61983234 51.21137766 0.5659851 53.18971376 0.51171875 55.16796875 C0.48553467 56.35672607 0.45935059 57.5454834 0.43237305 58.77026367 C-0.03768836 62.28152418 -0.88264932 64.18560775 -3 67 C-4.66324401 68.00568242 -6.32936253 69.00664799 -8 70 C-8 70.99 -8 71.98 -8 73 C-8.66 72.67 -9.32 72.34 -10 72 C-10 71.34 -10 70.68 -10 70 C-11.32 70 -12.64 70 -14 70 C-14.495 70.99 -14.495 70.99 -15 72 C-15 71.34 -15 70.68 -15 70 C-15.66 70 -16.32 70 -17 70 C-17.08121924 68.39667209 -17.13929134 66.79215974 -17.1875 65.1875 C-17.22230469 64.29417969 -17.25710938 63.40085937 -17.29296875 62.48046875 C-16.95081002 59.58352485 -16.24606427 58.77444972 -14 57 C-14 57.66 -14 58.32 -14 59 C-13.01 59 -12.02 59 -11 59 C-10.9727585 57.58344207 -10.95349533 56.16672955 -10.9375 54.75 C-10.92589844 53.96109375 -10.91429687 53.1721875 -10.90234375 52.359375 C-10.91158184 50.0603771 -10.91158184 50.0603771 -11.49609375 48.14453125 C-12.22026849 45.06257829 -12.13164676 42.09803547 -12.125 38.9375 C-12.12757813 37.70902344 -12.13015625 36.48054688 -12.1328125 35.21484375 C-12 32 -12 32 -11 29 C-11.66 29 -12.32 29 -13 29 C-12.649375 27.906875 -12.29875 26.81375 -11.9375 25.6875 C-10.66960546 22.09079627 -10.66960546 22.09079627 -12 19 C-11.34 19 -10.68 19 -10 19 C-10 18.34 -10 17.68 -10 17 C-10.66 17 -11.32 17 -12 17 C-11.33333333 15 -10.66666667 13 -10 11 C-10.66 10.67 -11.32 10.34 -12 10 C-11.67 6.7 -11.34 3.4 -11 0 C-6.67585996 -1.08103501 -4.28123588 -1.16760979 0 0 Z " fill="#E1E1E1" transform="translate(280,344)"/>
<path d="M0 0 C2.97 0 5.94 0 9 0 C9 6 9 12 9 18 C9.10482825 21.3966911 9.23908657 24.79192952 9.375 28.1875 C9.4059375 29.13431641 9.436875 30.08113281 9.46875 31.05664062 C9.68115374 36.12954984 10.33737208 40.17694574 12 45 C11.7578125 47.5546875 11.7578125 47.5546875 11.125 49.875 C10.92132813 50.65617187 10.71765625 51.43734375 10.5078125 52.2421875 C10.34023438 52.82226562 10.17265625 53.40234375 10 54 C7.525 54.495 7.525 54.495 5 55 C5 54.34 5 53.68 5 53 C3.7934375 52.814375 3.7934375 52.814375 2.5625 52.625 C1.716875 52.41875 0.87125 52.2125 0 52 C-0.33 51.34 -0.66 50.68 -1 50 C-3.475 50.495 -3.475 50.495 -6 51 C-5.525625 49.9275 -5.05125 48.855 -4.5625 47.75 C-2.38499372 42.60035245 -1.85016884 39.62139678 -3 34 C-2.34 34 -1.68 34 -1 34 C-1.49113281 33.60167969 -1.98226563 33.20335937 -2.48828125 32.79296875 C-4.43183425 30.4878245 -4.316536 29.2803281 -4.1875 26.3125 C-4.16042969 25.50425781 -4.13335937 24.69601562 -4.10546875 23.86328125 C-4.07066406 23.24839844 -4.03585937 22.63351562 -4 22 C-3.01 22.33 -2.02 22.66 -1 23 C-1 21.68 -1 20.36 -1 19 C-0.34 19 0.32 19 1 19 C0.67 18.01 0.34 17.02 0 16 C-0.07051114 13.26134713 -0.09357765 10.54972412 -0.0625 7.8125 C-0.05798828 7.06291016 -0.05347656 6.31332031 -0.04882812 5.54101562 C-0.03706354 3.69397617 -0.01912865 1.84697787 0 0 Z M-2 36 C-1 38 -1 38 -1 38 Z " fill="#DFDFDF" transform="translate(313,346)"/>
<path d="M0 0 C1.07765625 0.19464844 2.1553125 0.38929688 3.265625 0.58984375 C4.08546875 0.74582031 4.9053125 0.90179688 5.75 1.0625 C2.83235 3.0076 1.12462715 3.51526317 -2.25 4.0625 C-0.27 4.0625 1.71 4.0625 3.75 4.0625 C3.75 4.7225 3.75 5.3825 3.75 6.0625 C1.11 6.7225 -1.53 7.3825 -4.25 8.0625 C-4.25 9.3825 -4.25 10.7025 -4.25 12.0625 C-3.08990094 13.42540958 -3.08990094 13.42540958 0.0625 13.5 C3.99947845 13.46692979 3.99947845 13.46692979 6.1875 10.0625 C6.703125 9.0725 7.21875 8.0825 7.75 7.0625 C8.08 8.0525 8.41 9.0425 8.75 10.0625 C7.34554165 12.3261564 5.5532087 14.0833685 3.75 16.0625 C5.59188612 18.11520463 5.59188612 18.11520463 7.75 19.0625 C6.46034824 20.43812854 5.12310707 21.77016393 3.75 23.0625 C3.09 23.0625 2.43 23.0625 1.75 23.0625 C1.75 23.7225 1.75 24.3825 1.75 25.0625 C-9.35121837 23.23026007 -9.35121837 23.23026007 -13.25 20.0625 C-16.14333342 15.41875134 -16.02601669 10.35352286 -15.25 5.0625 C-13.1685255 2.17156319 -11.79722951 0.64949716 -8.46875 -0.61328125 C-5.47882541 -1.05018925 -2.96447247 -0.54778296 0 0 Z " fill="#DEDEDE" transform="translate(245.25,375.9375)"/>
<path d="M0 0 C0.66 0 1.32 0 2 0 C2 0.66 2 1.32 2 2 C5.6176621 2.82231183 9.00148763 3.14675037 12.70825195 3.20532227 C13.82903641 3.22526749 14.94982086 3.24521271 16.10456848 3.26576233 C17.3036937 3.28247482 18.50281891 3.29918732 19.73828125 3.31640625 C20.97418503 3.33718735 22.21008881 3.35796844 23.48344421 3.37937927 C26.75652126 3.43359931 30.0296274 3.48387578 33.30279541 3.53222656 C36.6478826 3.5826157 39.99287724 3.63828816 43.33789062 3.69335938 C49.89185771 3.80035943 56.44589013 3.90215892 63 4 C63 4.66 63 5.32 63 6 C60.09359001 6.83069425 57.50098357 7.13047456 54.48193359 7.14526367 C53.14937027 7.15483345 53.14937027 7.15483345 51.78988647 7.16459656 C50.83570831 7.16570938 49.88153015 7.1668222 48.8984375 7.16796875 C47.90679596 7.17129715 46.91515442 7.17462555 45.89346313 7.17805481 C43.79372623 7.18311588 41.69398128 7.18546339 39.59423828 7.18530273 C36.4077394 7.18747765 33.22159337 7.20561018 30.03515625 7.22460938 C27.98958451 7.22754591 25.94401113 7.22952896 23.8984375 7.23046875 C22.48538834 7.24124702 22.48538834 7.24124702 21.04379272 7.25224304 C14.96828197 7.23164089 8.79813908 6.97629252 3 5 C0.875 2.375 0.875 2.375 0 0 Z " fill="#E3E3E3" transform="translate(165,282)"/>
<path d="M0 0 C3.63 0 7.26 0 11 0 C12.09658936 3.28976808 11.79953138 4.71303767 11 8 C11.66 8 12.32 8 13 8 C13 9.32 13 10.64 13 12 C12.34 12 11.68 12 11 12 C11.185625 12.61875 11.37125 13.2375 11.5625 13.875 C12 16 12 16 11 18 C11.66 18 12.32 18 13 18 C13 18.99 13 19.98 13 21 C12.34 21 11.68 21 11 21 C11.57452746 24.93075644 11.57452746 24.93075644 14 28 C13.67 28.495 13.34 28.99 13 29.5 C11.56363642 33.09090894 11.87148538 36.14456127 12 40 C11.34 40 10.68 40 10 40 C9.67 43.96 9.34 47.92 9 52 C8.67 52 8.34 52 8 52 C8 35.5 8 19 8 2 C8.66 1.67 9.32 1.34 10 1 C7.03 1 4.06 1 1 1 C1 6.94 1 12.88 1 19 C0.67 18.34 0.34 17.68 0 17 C-1.64363134 16.27840576 -3.31050386 15.60648579 -5 15 C-4.34 14.67 -3.68 14.34 -3 14 C-2.01 14.33 -1.02 14.66 0 15 C0 10.05 0 5.1 0 0 Z " fill="#ECECEC" transform="translate(312,345)"/>
<path d="M0 0 C0.99 0.66 1.98 1.32 3 2 C3 2.66 3 3.32 3 4 C3.66 4.33 4.32 4.66 5 5 C5.33 4.34 5.66 3.68 6 3 C6 3.66 6 4.32 6 5 C6.99 5 7.98 5 9 5 C10.03281665 9.00216452 10.05110078 12.71967799 9.9375 16.81640625 C10.00063612 19.02222429 10.38663143 20.88675358 11 23 C10.67 23 10.34 23 10 23 C9.97494385 23.60473145 9.9498877 24.20946289 9.92407227 24.83251953 C9.80736994 27.5968562 9.68498266 30.36091366 9.5625 33.125 C9.52318359 34.07632813 9.48386719 35.02765625 9.44335938 36.0078125 C9.22946977 40.74628987 8.93438179 45.33594301 8 50 C7.67 50 7.34 50 7 50 C7 35.81 7 21.62 7 7 C3.7 7 0.4 7 -3 7 C-2.1654738 4.49642139 -1.20628008 2.33214148 0 0 Z " fill="#DADADA" transform="translate(271,354)"/>
<path d="M0 0 C0.391875 0.556875 0.78375 1.11375 1.1875 1.6875 C5.87429553 7.7412451 5.87429553 7.7412451 12.71484375 10.3515625 C13.77832031 10.44179688 14.84179688 10.53203125 15.9375 10.625 C16.99839844 10.72039062 18.05929687 10.81578125 19.15234375 10.9140625 C22.07634747 11.16605113 22.07634747 11.16605113 25 10 C25 10.99 25 11.98 25 13 C26.32 13.33 27.64 13.66 29 14 C29 14.66 29 15.32 29 16 C26.125 16.125 26.125 16.125 23 16 C22.34 15.34 21.68 14.68 21 14 C20.01 14 19.02 14 18 14 C17.67 14.66 17.34 15.32 17 16 C15.3954444 15.85851011 13.79136233 15.71164314 12.1875 15.5625 C11.29417969 15.48128906 10.40085937 15.40007812 9.48046875 15.31640625 C7 15 7 15 4 14 C4 13.01 4 12.02 4 11 C3.34 11 2.68 11 2 11 C1 8 1 8 1 5 C0.68911632 3.32900023 0.35919668 1.66128463 0 0 Z " fill="#E7E7E7" transform="translate(288,385)"/>
<path d="M0 0 C0.66 0.33 1.32 0.66 2 1 C3.45650882 7.97857705 2.98743109 14.99683489 2 22 C2.66 22 3.32 22 4 22 C3.835 22.598125 3.67 23.19625 3.5 23.8125 C2.8885876 26.11344336 2.8885876 26.11344336 3 29 C1 30.6875 1 30.6875 -1 32 C-1 31.34 -1 30.68 -1 30 C-1.66 30 -2.32 30 -3 30 C-3 30.66 -3 31.32 -3 32 C-5.64 32 -8.28 32 -11 32 C-11.1875 29.625 -11.1875 29.625 -11 27 C-10.01 26.34 -9.02 25.68 -8 25 C-8 26.32 -8 27.64 -8 29 C-5.36 29 -2.72 29 0 29 C0 19.43 0 9.86 0 0 Z " fill="#F5F5F5" transform="translate(262,369)"/>
<path d="M0 0 C2.31499381 2.31499381 2.67795992 3.66583396 3.4375 6.8125 C3.66308594 7.66457031 3.88867188 8.51664063 4.12109375 9.39453125 C4 12 4 12 2.2734375 14.8046875 C-2.62882523 18.0923625 -7.05521448 17.54110327 -12.8125 17.3125 C-13.88693359 17.28994141 -14.96136719 17.26738281 -16.06835938 17.24414062 C-18.7136685 17.18535598 -21.35611413 17.10323957 -24 17 C-24 16.34 -24 15.68 -24 15 C-18.72 15 -13.44 15 -8 15 C-7.67 14.01 -7.34 13.02 -7 12 C-6.67 12.66 -6.34 13.32 -6 14 C-4.02 13.67 -2.04 13.34 0 13 C-0.33 11.68 -0.66 10.36 -1 9 C-0.34 9.33 0.32 9.66 1 10 C1.33 9.34 1.66 8.68 2 8 C1.01 8 0.02 8 -1 8 C-0.67 5.36 -0.34 2.72 0 0 Z " fill="#DADBDB" transform="translate(198,245)"/>
<path d="M0 0 C3.32072528 1.57996613 5.68029835 3.07889421 8 6 C7.625 8.125 7.625 8.125 7 10 C7.66 10.66 8.32 11.32 9 12 C9.4140625 14.1640625 9.4140625 14.1640625 9.625 16.625 C9.69976562 17.44226563 9.77453125 18.25953125 9.8515625 19.1015625 C9.92503906 20.04128906 9.92503906 20.04128906 10 21 C9.34 21.33 8.68 21.66 8 22 C7.34 21.67 6.68 21.34 6 21 C6 20.34 6 19.68 6 19 C6.66 19 7.32 19 8 19 C7.67 18.34 7.34 17.68 7 17 C6.01 17.33 5.02 17.66 4 18 C3.34 17.67 2.68 17.34 2 17 C2.04125 15.865625 2.0825 14.73125 2.125 13.5625 C2.14183841 8.85616438 1.17621777 4.53683996 0 0 Z " fill="#E7E7E7" transform="translate(221,372)"/>
<path d="M0 0 C1.65 0 3.3 0 5 0 C5 0.66 5 1.32 5 2 C7.64 2.33 10.28 2.66 13 3 C13 3.99 13 4.98 13 6 C12.11699219 5.90460938 11.23398438 5.80921875 10.32421875 5.7109375 C0.49655391 4.80311884 -7.85322078 5.13585263 -17 9 C-16.4375 7.125 -16.4375 7.125 -15 5 C-12.6859378 4.26924352 -10.35171131 3.59861742 -8 3 C-7.67 2.34 -7.34 1.68 -7 1 C-6.67 1.33 -6.34 1.66 -6 2 C-4.00041636 2.04080783 -1.99954746 2.04254356 0 2 C0 1.34 0 0.68 0 0 Z " fill="#E4E4E4" transform="translate(213,156)"/>
<path d="M0 0 C1.32 0.33 2.64 0.66 4 1 C3.75946353 17.79381908 3.75946353 17.79381908 -2 24 C-4.8125 26.5 -4.8125 26.5 -7 28 C-8.32 27.34 -9.64 26.68 -11 26 C-10.01 25.34 -9.02 24.68 -8 24 C-3.92873716 20.92578112 -1.45197725 18.91332586 0 14 C0.24082874 10.41569055 0.24082874 10.41569055 0.125 6.6875 C0.10695312 5.43324219 0.08890625 4.17898438 0.0703125 2.88671875 C0.04710937 1.93410156 0.02390625 0.98148437 0 0 Z " fill="#E4E4E4" transform="translate(240,260)"/>
<path d="M0 0 C0.66 0 1.32 0 2 0 C2.38909985 1.45463481 2.76088029 2.91391207 3.125 4.375 C3.43824219 5.59316406 3.43824219 5.59316406 3.7578125 6.8359375 C3.83773438 7.55007813 3.91765625 8.26421875 4 9 C1.64046906 11.35953094 0.22104383 11.49141413 -3 12 C-3 11.34 -3 10.68 -3 10 C-3.66 10 -4.32 10 -5 10 C-5.33 10.66 -5.66 11.32 -6 12 C-7.98 12 -9.96 12 -12 12 C-12 10.02 -12 8.04 -12 6 C-10.68 5.67 -9.36 5.34 -8 5 C-8 6.32 -8 7.64 -8 9 C-5.36 9 -2.72 9 0 9 C0 6.03 0 3.06 0 0 Z " fill="#F6F6F6" transform="translate(361,389)"/>
<path d="M0 0 C-0.33 1.98 -0.66 3.96 -1 6 C-1.66 6 -2.32 6 -3 6 C-3.33 6.99 -3.66 7.98 -4 9 C-4.598125 8.814375 -5.19625 8.62875 -5.8125 8.4375 C-8.16408762 7.77906313 -8.16408762 7.77906313 -11 9 C-11.99 8.01 -12.98 7.02 -14 6 C-13.27734375 4.078125 -13.27734375 4.078125 -12 2 C-9.94140625 1.171875 -9.94140625 1.171875 -7.5625 0.75 C-6.78003906 0.60046875 -5.99757812 0.4509375 -5.19140625 0.296875 C-3 0 -3 0 0 0 Z M-10.25 2.875 C-10.8275 3.24625 -11.405 3.6175 -12 4 C-12 4.66 -12 5.32 -12 6 C-10.02 6 -8.04 6 -6 6 C-5.67 6.66 -5.34 7.32 -5 8 C-4.67 6.68 -4.34 5.36 -4 4 C-6.94409363 2.06403854 -6.94409363 2.06403854 -10.25 2.875 Z " fill="#FCFCFC" transform="translate(253,381)"/>
<path d="M0 0 C1.8125 0.125 1.8125 0.125 4 1 C7.24883912 5.7572287 7.52977613 9.43735067 7 15 C5.5 18 5.5 18 4 20 C2.68 19.67 1.36 19.34 0 19 C0.48726563 18.60425781 0.97453125 18.20851563 1.4765625 17.80078125 C3.92374328 14.90808807 3.40082588 12.16744852 3.3046875 8.51953125 C2.90711365 5.23190133 1.75846799 2.78424099 0 0 Z " fill="#E1E1E2" transform="translate(320,265)"/>
<path d="M0 0 C2.17142404 2.17142404 2.60299758 3.36732977 3.5078125 6.24609375 C3.77207031 7.08333984 4.03632813 7.92058594 4.30859375 8.78320312 C4.57800781 9.65912109 4.84742188 10.53503906 5.125 11.4375 C5.40214844 12.30955078 5.67929688 13.18160156 5.96484375 14.08007812 C8 20.60160099 8 20.60160099 8 24 C7.34 24 6.68 24 6 24 C6 23.01 6 22.02 6 21 C5.34 21 4.68 21 4 21 C3.34 20.01 2.68 19.02 2 18 C2.165 17.360625 2.33 16.72125 2.5 16.0625 C3.15910233 13.34370288 2.37492028 12.36791826 1 10 C-0.1577506 6.52674819 -0.06866652 3.63932552 0 0 Z " fill="#E2E2E2" transform="translate(188,214)"/>
<path d="M0 0 C1.0209375 0.7425 1.0209375 0.7425 2.0625 1.5 C5.59465009 3.30365111 8.08636991 3.23021353 12 3 C12 3.66 12 4.32 12 5 C12.66 5.66 13.32 6.32 14 7 C10.7 7.66 7.4 8.32 4 9 C3.67 8.01 3.34 7.02 3 6 C2.01 6 1.02 6 0 6 C0 4.02 0 2.04 0 0 Z " fill="#FCFCFC" transform="translate(329,368)"/>
<path d="M0 0 C0.66 0 1.32 0 2 0 C2 1.32 2 2.64 2 4 C4.64 4 7.28 4 10 4 C10 3.34 10 2.68 10 2 C10.66 2 11.32 2 12 2 C10.125 6.75 10.125 6.75 9 9 C6.66666667 9 4.33333333 9 2 9 C2.33 7.68 2.66 6.36 3 5 C2.34 5 1.68 5 1 5 C0.34 3.68 -0.32 2.36 -1 1 C-0.67 0.67 -0.34 0.34 0 0 Z " fill="#FAFAFA" transform="translate(230,367)"/>
<path d="M0 0 C0 0.66 0 1.32 0 2 C-1.17354576 2.88164859 -2.3910475 3.70509427 -3.625 4.5 C-8.63088643 8.08072303 -11.19213641 12.61826145 -14 18 C-14.33 17.01 -14.66 16.02 -15 15 C-14.02546131 13.24583035 -13.04429756 11.4939281 -11.9921875 9.78515625 C-10.7653912 7.57788889 -10.30252502 5.49583139 -10 3 C-9.34 3 -8.68 3 -8 3 C-7.34 2.34 -6.68 1.68 -6 1 C-5.34 1 -4.68 1 -4 1 C-2 0 -2 0 0 0 Z " fill="#DBDBDC" transform="translate(339,209)"/>
<path d="M0 0 C0.21398437 0.62390625 0.42796875 1.2478125 0.6484375 1.890625 C2.53556697 4.83585597 4.27476726 4.97087611 7.625 5.75 C8.62789063 5.99234375 9.63078125 6.2346875 10.6640625 6.484375 C11.43492187 6.65453125 12.20578125 6.8246875 13 7 C12.67 9.31 12.34 11.62 12 14 C11.01 14 10.02 14 9 14 C9 12.35 9 10.7 9 9 C6.36 8.34 3.72 7.68 1 7 C0.67 4.69 0.34 2.38 0 0 Z " fill="#DADADA" transform="translate(337,384)"/>
<path d="M0 0 C0.99 0.66 1.98 1.32 3 2 C2.67 2.66 2.34 3.32 2 4 C1.13375 3.835 0.2675 3.67 -0.625 3.5 C-5.63509438 2.75776379 -9.56533598 2.27097599 -14 5 C-13.08358378 2.70895944 -12.30881685 1.24942899 -10.375 -0.3125 C-6.84477732 -1.33440656 -3.54085658 -0.90157334 0 0 Z " fill="#D7D7D6" transform="translate(212,354)"/>
<path d="M0 0 C-1 2 -1 2 -2.92578125 2.67578125 C-4.10720703 2.99095703 -4.10720703 2.99095703 -5.3125 3.3125 C-9.60290444 4.64729249 -11.52786855 6.14347494 -14 10 C-14.66 10.66 -15.32 11.32 -16 12 C-15.52662341 7.834286 -15.0722891 4.96634809 -12 2 C-7.8997803 0.17768013 -4.45927519 -0.21234644 0 0 Z " fill="#D7D7D7" transform="translate(205,346)"/>
<path d="M0 0 C0.33 0 0.66 0 1 0 C1.02505615 0.62044189 1.0501123 1.24088379 1.07592773 1.88012695 C1.19196721 4.69112397 1.31465759 7.50179241 1.4375 10.3125 C1.47681641 11.28896484 1.51613281 12.26542969 1.55664062 13.27148438 C1.59853516 14.20927734 1.64042969 15.14707031 1.68359375 16.11328125 C1.72025146 16.97735596 1.75690918 17.84143066 1.79467773 18.73168945 C1.92747354 21.1647826 1.92747354 21.1647826 3 24 C2.66015625 26.26171875 2.66015625 26.26171875 2.0625 28.6875 C1.86785156 29.49574219 1.67320312 30.30398438 1.47265625 31.13671875 C1.31667969 31.75160156 1.16070312 32.36648438 1 33 C0.67 33 0.34 33 0 33 C0 22.11 0 11.22 0 0 Z " fill="#C5C6C6" transform="translate(321,364)"/>
<path d="M0 0 C0.33 0.66 0.66 1.32 1 2 C3.52733235 2.65555119 3.52733235 2.65555119 6 3 C6 3.66 6 4.32 6 5 C0.06 4.67 -5.88 4.34 -12 4 C-11.67 3.34 -11.34 2.68 -11 2 C-7.37 2 -3.74 2 0 2 C0 1.34 0 0.68 0 0 Z " fill="#DDDEDD" transform="translate(313,260)"/>
<path d="M0 0 C0.99 0.33 1.98 0.66 3 1 C2.67 1.66 2.34 2.32 2 3 C1.34 3 0.68 3 0 3 C-0.27585938 3.56203125 -0.55171875 4.1240625 -0.8359375 4.703125 C-2.04368028 7.08618794 -3.32176809 9.4179008 -4.625 11.75 C-5.29402344 12.94882813 -5.29402344 12.94882813 -5.9765625 14.171875 C-6.48316406 15.07679688 -6.48316406 15.07679688 -7 16 C-7.86899818 13.56243277 -8.14718734 12.39200649 -7.22265625 9.9296875 C-6.83980469 9.25164062 -6.45695313 8.57359375 -6.0625 7.875 C-4.42358298 5.10056027 -4.42358298 5.10056027 -4 2 C-3.01 2 -2.02 2 -1 2 C-0.67 1.34 -0.34 0.68 0 0 Z " fill="#D9D9D9" transform="translate(192,165)"/>
<path d="M0 0 C0.99 0.33 1.98 0.66 3 1 C3 1.66 3 2.32 3 3 C3.99 3 4.98 3 6 3 C5.855625 4.11375 5.71125 5.2275 5.5625 6.375 C4.95203629 11.24126788 4.47014775 16.11846586 4 21 C3.67 21 3.34 21 3 21 C2.92652344 19.60587891 2.92652344 19.60587891 2.8515625 18.18359375 C2.30322854 8.92339067 2.30322854 8.92339067 0 0 Z " fill="#DADADA" transform="translate(378,221)"/>
<path d="M0 0 C0.33 0 0.66 0 1 0 C1.88826175 7.18808741 2.01202288 13.82242235 1 21 C1.66 21 2.32 21 3 21 C2.7525 21.8971875 2.7525 21.8971875 2.5 22.8125 C1.8885876 25.11344336 1.8885876 25.11344336 2 28 C0 26 0 26 -0.22705078 23.38623047 C-0.21657715 22.30744629 -0.20610352 21.22866211 -0.1953125 20.1171875 C-0.18886719 18.95058594 -0.18242187 17.78398437 -0.17578125 16.58203125 C-0.15902344 15.35871094 -0.14226562 14.13539063 -0.125 12.875 C-0.11597656 11.64394531 -0.10695313 10.41289062 -0.09765625 9.14453125 C-0.07402548 6.09616185 -0.04108054 3.04817618 0 0 Z " fill="#FDFDFD" transform="translate(263,370)"/>
<path d="M0 0 C0.66 0 1.32 0 2 0 C1.67 1.32 1.34 2.64 1 4 C4.63708491 4.42789234 5.87891147 4.08072569 9 2 C12.12108853 -0.08072569 13.36291509 -0.42789234 17 0 C15.68 0.33 14.36 0.66 13 1 C13 1.66 13 2.32 13 3 C11.35 3.33 9.7 3.66 8 4 C8 4.66 8 5.32 8 6 C5.36 6 2.72 6 0 6 C0 4.02 0 2.04 0 0 Z " fill="#D5D4D5" transform="translate(232,365)"/>
<path d="M0 0 C1 2 1 2 0.2578125 4.3203125 C-0.11601562 5.24585938 -0.48984375 6.17140625 -0.875 7.125 C-2.67948485 11.84777243 -3.62058732 15.97278202 -4 21 C-5.73161996 18.45350007 -5.9997847 16.98923524 -5.9375 13.875 C-4.71308469 8.8140834 -2.48215715 4.55214798 0 0 Z " fill="#DBDCDC" transform="translate(261,242)"/>
<path d="M0 0 C3.63 0.33 7.26 0.66 11 1 C10.67 2.32 10.34 3.64 10 5 C6.7 4.67 3.4 4.34 0 4 C0 2.68 0 1.36 0 0 Z " fill="#E1E1E1" transform="translate(295,396)"/>
<path d="M0 0 C0.33 0.99 0.66 1.98 1 3 C-0.62336893 5.58724423 -1.65079174 7.18366093 -4 9 C-8.45706394 9.61476744 -10.23500419 9.5099972 -14 7 C-14 6.34 -14 5.68 -14 5 C-13.01 5.33 -12.02 5.66 -11 6 C-7.54230809 6.58342353 -7.54230809 6.58342353 -4 6 C-1.50459629 3.13384514 -1.50459629 3.13384514 0 0 Z " fill="#D1D1D1" transform="translate(253,383)"/>
<path d="M0 0 C4.67105792 1.55701931 8.08705685 4.08447373 12 7 C9 8 9 8 7 7.0625 C6.34 6.711875 5.68 6.36125 5 6 C4.01 6 3.02 6 2 6 C1.34 4.02 0.68 2.04 0 0 Z " fill="#E0E0E0" transform="translate(242,214)"/>
<path d="M0 0 C3.93008778 1.31002926 6.47778544 2.66707362 9 6 C9.75 9.75 9.75 9.75 10 13 C9.443125 12.278125 8.88625 11.55625 8.3125 10.8125 C6.03647244 7.94039653 6.03647244 7.94039653 3.3125 5.375 C1 3 1 3 0 0 Z " fill="#DBDBDB" transform="translate(306,189)"/>
<path d="M0 0 C0.33 0 0.66 0 1 0 C1.07476562 0.68707031 1.14953125 1.37414062 1.2265625 2.08203125 C1.62976899 4.84518161 2.08178255 7.36012483 3 10 C5.93662672 12.22325679 5.93662672 12.22325679 9 13 C9 13.99 9 14.98 9 16 C5.6131157 15.17209495 3.49954087 14.54949495 1.125 11.9375 C-0.41752537 7.90979486 -0.2506888 4.26170968 0 0 Z " fill="#D3D3D3" transform="translate(230,383)"/>
<path d="M0 0 C3.14737182 0.69941596 6.02588876 1.76078698 9 3 C8.67 3.66 8.34 4.32 8 5 C7.2575 4.979375 6.515 4.95875 5.75 4.9375 C3.29537721 4.99328688 1.33890739 5.3069904 -1 6 C-0.67 4.02 -0.34 2.04 0 0 Z " fill="#FCFCFC" transform="translate(188,376)"/>
<path d="M0 0 C1.32 0.33 2.64 0.66 4 1 C3.67 5.29 3.34 9.58 3 14 C2.34 14 1.68 14 1 14 C0.67 9.38 0.34 4.76 0 0 Z " fill="#D7D7D8" transform="translate(240,260)"/>
<path d="M0 0 C1.8125 0.1875 1.8125 0.1875 4 1 C4.99 2.65 5.98 4.3 7 6 C2.38 5.01 -2.24 4.02 -7 3 C-7 2.67 -7 2.34 -7 2 C-4.69 2 -2.38 2 0 2 C0 1.34 0 0.68 0 0 Z " fill="#E0E0E0" transform="translate(360,204)"/>
<path d="M0 0 C0.33 0 0.66 0 1 0 C1.226875 0.886875 1.45375 1.77375 1.6875 2.6875 C3.17853428 6.45058652 5.0938301 8.24286445 8 11 C8.33 11.99 8.66 12.98 9 14 C4.58889469 12.65216226 2.38349278 10.97248797 0 7 C-0.25 3.1875 -0.25 3.1875 0 0 Z " fill="#D3D4D4" transform="translate(187,383)"/>
<path d="M0 0 C3 2 3 2 3.51171875 4.1640625 C3.56972656 4.97617187 3.62773437 5.78828125 3.6875 6.625 C3.75324219 7.44226563 3.81898438 8.25953125 3.88671875 9.1015625 C3.92410156 9.72804688 3.96148437 10.35453125 4 11 C3.01 11.495 3.01 11.495 2 12 C1.34 11.67 0.68 11.34 0 11 C0 10.34 0 9.68 0 9 C0.66 9 1.32 9 2 9 C1.67 8.34 1.34 7.68 1 7 C0.34 7 -0.32 7 -1 7 C-0.67 4.69 -0.34 2.38 0 0 Z " fill="#FBFBFB" transform="translate(227,382)"/>
<path d="M0 0 C0 1.65 0 3.3 0 5 C-0.33 4.01 -0.66 3.02 -1 2 C-4.63 2.66 -8.26 3.32 -12 4 C-12.33 3.34 -12.66 2.68 -13 2 C-4.57142857 -0.28571429 -4.57142857 -0.28571429 0 0 Z " fill="#D1D0D0" transform="translate(353,379)"/>
<path d="M0 0 C1.9375 0.6875 1.9375 0.6875 4 2 C4.75 4.625 4.75 4.625 5 7 C6.32 7 7.64 7 9 7 C9 7.99 9 8.98 9 10 C8.01 10 7.02 10 6 10 C6 9.34 6 8.68 6 8 C5.01 8 4.02 8 3 8 C1.58622659 5.36095629 0.62759865 2.92879371 0 0 Z " fill="#FBFBFB" transform="translate(211,356)"/>
<path d="M0 0 C0.99 0 1.98 0 3 0 C6 5.75 6 5.75 6 8 C5.01 8 4.02 8 3 8 C2.67 8.99 2.34 9.98 2 11 C1.34 11 0.68 11 0 11 C0 10.34 0 9.68 0 9 C0.66 9 1.32 9 2 9 C1.51515724 4.35413108 1.51515724 4.35413108 0 0 Z " fill="#F2F2F2" transform="translate(277,344)"/>
<path d="M0 0 C3.63 0 7.26 0 11 0 C11 0.66 11 1.32 11 2 C8.36 2.99 5.72 3.98 3 5 C3 4.01 3 3.02 3 2 C2.01 2 1.02 2 0 2 C0 1.34 0 0.68 0 0 Z " fill="#DADADA" transform="translate(347,264)"/>
<path d="M0 0 C1.6875 2.0625 1.6875 2.0625 3 4 C-4.625 3.125 -4.625 3.125 -8 2 C-8 1.34 -8 0.68 -8 0 C-4.71303767 -0.79953138 -3.28976808 -1.09658936 0 0 Z " fill="#E0E0E0" transform="translate(260,169)"/>
<path d="M0 0 C1.77230751 0.7883609 3.54279534 1.58081347 5.3125 2.375 C6.29863281 2.81585938 7.28476562 3.25671875 8.30078125 3.7109375 C11 5 11 5 14 7 C8.22085395 6.74818536 4.16982776 6.43884891 0 2 C0 1.34 0 0.68 0 0 Z " fill="#D4D4D4" transform="translate(264,279)"/>
<path d="M0 0 C0.66 0.33 1.32 0.66 2 1 C3.1577506 4.47325181 3.06866652 7.36067448 3 11 C2.34 11 1.68 11 1 11 C0.67 11.66 0.34 12.32 0 13 C0 11.68 0 10.36 0 9 C0.66 9 1.32 9 2 9 C1.484375 8.62875 0.96875 8.2575 0.4375 7.875 C-1 6 -1 6 -0.6875 2.8125 C-0.460625 1.884375 -0.23375 0.95625 0 0 Z " fill="#FCFCFC" transform="translate(310,371)"/>
<path d="M0 0 C0.66 0 1.32 0 2 0 C1.34 4.29 0.68 8.58 0 13 C-0.66 12.67 -1.32 12.34 -2 12 C-2.28571429 3.42857143 -2.28571429 3.42857143 0 0 Z " fill="#DFDFDF" transform="translate(163,266)"/>
<path d="M0 0 C2.31 0.33 4.62 0.66 7 1 C7.66 2.65 8.32 4.3 9 6 C7.68 6.33 6.36 6.66 5 7 C5.33 5.35 5.66 3.7 6 2 C4.35 2 2.7 2 1 2 C0.67 1.34 0.34 0.68 0 0 Z " fill="#FDFDFD" transform="translate(343,367)"/>
<path d="M0 0 C0.33 0.99 0.66 1.98 1 3 C3.01508358 3.73323796 3.01508358 3.73323796 5 4 C5 4.66 5 5.32 5 6 C3.02 6 1.04 6 -1 6 C-1.66 4.68 -2.32 3.36 -3 2 C-2.01 1.34 -1.02 0.68 0 0 Z " fill="#FCFCFC" transform="translate(312,395)"/>
<path d="M0 0 C0 0.99 0 1.98 0 3 C-0.66 3 -1.32 3 -2 3 C-2.33 3.66 -2.66 4.32 -3 5 C-3 4.34 -3 3.68 -3 3 C-4.65 3.33 -6.3 3.66 -8 4 C-8.33 3.01 -8.66 2.02 -9 1 C-5.846632 0.29925156 -3.27275026 0 0 0 Z " fill="#FCFCFC" transform="translate(352,381)"/>
<path d="M0 0 C3 1 3 1 4.1875 2.9375 C5.3447237 7.29934317 5.15679528 11.5139128 5 16 C4.34 16.33 3.68 16.66 3 17 C3.03480469 16.33613281 3.06960938 15.67226563 3.10546875 14.98828125 C3.26699606 9.71941432 3.277636 6.37018133 0 2 C0 1.34 0 0.68 0 0 Z " fill="#CDCDCE" transform="translate(309,368)"/>
<path d="M0 0 C0.33 0 0.66 0 1 0 C1 4.95 1 9.9 1 15 C0.34 14.67 -0.32 14.34 -1 14 C-0.67 11.03 -0.34 8.06 0 5 C-0.66 5 -1.32 5 -2 5 C-1.34 3.35 -0.68 1.7 0 0 Z " fill="#FEFEFE" transform="translate(269,368)"/>
<path d="M0 0 C0.33 0.66 0.66 1.32 1 2 C1.66 2 2.32 2 3 2 C3.1875 5.3125 3.1875 5.3125 3 9 C2.01 9.99 1.02 10.98 0 12 C0 8.04 0 4.08 0 0 Z " fill="#FDFDFD" transform="translate(383,231)"/>
<path d="M0 0 C0.66 0.33 1.32 0.66 2 1 C0.47793991 3.62901288 -0.84365964 5.84365964 -3 8 C-5.125 7.625 -5.125 7.625 -7 7 C-7 6.34 -7 5.68 -7 5 C-4 3 -4 3 -1 3 C-0.67 2.01 -0.34 1.02 0 0 Z " fill="#DADADB" transform="translate(372,256)"/>
<path d="M0 0 C3.16115776 1.36983503 3.9927092 1.9890638 6 5 C6.125 7.6875 6.125 7.6875 6 10 C5.34 9.01 4.68 8.02 4 7 C3.34 6.34 2.68 5.68 2 5 C1.34 5 0.68 5 0 5 C-0.5625 3.0625 -0.5625 3.0625 -1 1 C-0.67 0.67 -0.34 0.34 0 0 Z " fill="#DFDFDF" transform="translate(260,225)"/>
<path d="M0 0 C3.71888239 0.50712033 6.73454239 1.11608215 10 3 C9.67 3.99 9.34 4.98 9 6 C4.545 4.02 4.545 4.02 0 2 C0 1.34 0 0.68 0 0 Z " fill="#DBDBDB" transform="translate(295,184)"/>
<path d="M0 0 C0.185625 0.61875 0.37125 1.2375 0.5625 1.875 C2.71437233 5.05602866 5.37533763 5.19451947 9 6 C8.67 6.66 8.34 7.32 8 8 C5.69 7.67 3.38 7.34 1 7 C0.67 4.69 0.34 2.38 0 0 Z " fill="#D2D2D2" transform="translate(337,384)"/>
<path d="M0 0 C2 2 2 2 2.1875 4.5625 C2 7 2 7 1 8 C-1.33297433 8.04092937 -3.66705225 8.04241723 -6 8 C-6 7.34 -6 6.68 -6 6 C-4.02 5.67 -2.04 5.34 0 5 C0 3.35 0 1.7 0 0 Z " fill="#CBCBCB" transform="translate(351,368)"/>
<path d="M0 0 C0.33 0 0.66 0 1 0 C1 5.94 1 11.88 1 18 C0.67 18 0.34 18 0 18 C-0.06058594 17.09636719 -0.12117188 16.19273437 -0.18359375 15.26171875 C-0.26738281 14.08222656 -0.35117187 12.90273438 -0.4375 11.6875 C-0.51871094 10.51574219 -0.59992188 9.34398437 -0.68359375 8.13671875 C-0.8867371 4.97409042 -0.8867371 4.97409042 -2 2 C-1.34 2 -0.68 2 0 2 C0 1.34 0 0.68 0 0 Z " fill="#CECECD" transform="translate(270,361)"/>
<path d="M0 0 C0 0.66 0 1.32 0 2 C-1.63790712 3.04644066 -3.31008021 4.0398183 -5 5 C-6.34631825 5.98244845 -7.68441297 6.97676564 -9 8 C-8.66410006 4.86493389 -7.97334828 3.974751 -5.625 1.75 C-3 0 -3 0 0 0 Z " fill="#D8D8D8" transform="translate(298,359)"/>
<path d="M0 0 C0.33 0 0.66 0 1 0 C1.49230769 6.4 1.49230769 6.4 -1 9.4375 C-1.99 10.2109375 -1.99 10.2109375 -3 11 C-3.66 10.67 -4.32 10.34 -5 10 C-3.99088542 8.27473958 -2.98177083 6.54947917 -1.97265625 4.82421875 C-0.86098753 2.86180445 -0.86098753 2.86180445 0 0 Z " fill="#D8D7D8" transform="translate(380,243)"/>
<path d="M0 0 C3.79588866 0.54226981 5.47211993 2.20127563 8 5 C7.67 5.99 7.34 6.98 7 8 C5.8274869 7.04882866 4.66212985 6.08882991 3.5 5.125 C2.8503125 4.59132812 2.200625 4.05765625 1.53125 3.5078125 C1.0259375 3.01023438 0.520625 2.51265625 0 2 C0 1.34 0 0.68 0 0 Z " fill="#D4D5D5" transform="translate(368,210)"/>
<path d="M0 0 C0.33 0 0.66 0 1 0 C1.33 4.95 1.66 9.9 2 15 C1.01 15.33 0.02 15.66 -1 16 C-0.67 10.72 -0.34 5.44 0 0 Z " fill="#F7F7F7" transform="translate(285,373)"/>
<path d="M0 0 C0.66 0.33 1.32 0.66 2 1 C2 1.66 2 2.32 2 3 C3.65 3.33 5.3 3.66 7 4 C6.34 4.66 5.68 5.32 5 6 C4.34 5.67 3.68 5.34 3 5 C0.90178785 5.39938767 0.90178785 5.39938767 -1 6 C-1.042721 4.33388095 -1.04063832 2.66617115 -1 1 C-0.67 0.67 -0.34 0.34 0 0 Z " fill="#FCFCFC" transform="translate(333,259)"/>
<path d="M0 0 C3.3 0 6.6 0 10 0 C10 0.99 10 1.98 10 3 C8.5199159 2.88637738 7.04089926 2.75877092 5.5625 2.625 C4.73878906 2.55539063 3.91507813 2.48578125 3.06640625 2.4140625 C2.38449219 2.27742187 1.70257813 2.14078125 1 2 C0.67 1.34 0.34 0.68 0 0 Z " fill="#DAD9DA" transform="translate(216,159)"/>
<path d="M0 0 C7 0 7 0 9 1 C9 1.66 9 2.32 9 3 C6.1875 3.625 6.1875 3.625 3 4 C2.01 3.34 1.02 2.68 0 2 C0 1.34 0 0.68 0 0 Z " fill="#EEEEEE" transform="translate(295,386)"/>
<path d="M0 0 C0.99 0.66 1.98 1.32 3 2 C3 2.66 3 3.32 3 4 C1.68 4 0.36 4 -1 4 C-3.20067421 4.93283296 -3.20067421 4.93283296 -5 6 C-4.1875 3.5625 -4.1875 3.5625 -3 1 C-2.01 0.67 -1.02 0.34 0 0 Z " fill="#F0F0F0" transform="translate(377,253)"/>
<path d="M0 0 C-2.17424117 2.50037734 -3.73045798 3.43628586 -7 4 C-7 2.68 -7 1.36 -7 0 C-3.86650268 -1.04449911 -3.01031744 -0.93423645 0 0 Z " fill="#FAFAFA" transform="translate(236,213)"/>
<path d="M0 0 C2.64 0.33 5.28 0.66 8 1 C8 1.99 8 2.98 8 4 C5.36 3.34 2.72 2.68 0 2 C0 1.34 0 0.68 0 0 Z " fill="#DCDCDC" transform="translate(243,166)"/>
<path d="M0 0 C0.33 0.99 0.66 1.98 1 3 C-2 5 -2 5 -5.1875 4.625 C-6.115625 4.41875 -7.04375 4.2125 -8 4 C-8 3.67 -8 3.34 -8 3 C-6.865625 2.690625 -5.73125 2.38125 -4.5625 2.0625 C-1.21224901 1.37075469 -1.21224901 1.37075469 0 0 Z " fill="#D6D6D6" transform="translate(276,408)"/>
<path d="M0 0 C2.14418558 3.21627837 2.67582137 5.19090105 3 9 C2.34 9.66 1.68 10.32 1 11 C-0.20272819 8.59454362 -0.10071472 7.05003047 -0.0625 4.375 C-0.05347656 3.55773437 -0.04445313 2.74046875 -0.03515625 1.8984375 C-0.02355469 1.27195312 -0.01195312 0.64546875 0 0 Z " fill="#FDFDFD" transform="translate(362,389)"/>
<path d="M0 0 C0.99 0.33 1.98 0.66 3 1 C2.1875 3.4375 2.1875 3.4375 1 6 C0.01 6.33 -0.98 6.66 -2 7 C-1.125 1.125 -1.125 1.125 0 0 Z " fill="#D6D6D7" transform="translate(332,363)"/>
<path d="M0 0 C0.625 1.875 0.625 1.875 1 4 C0.34 4.66 -0.32 5.32 -1 6 C-3.125 5.625 -3.125 5.625 -5 5 C-3.35 3.35 -1.7 1.7 0 0 Z " fill="#DEDEDE" transform="translate(299,237)"/>
<path d="M0 0 C0.99 0.33 1.98 0.66 3 1 C3.33 3.31 3.66 5.62 4 8 C3.34 8 2.68 8 2 8 C0.74335022 5.09399739 0 3.20395416 0 0 Z " fill="#D8D8D8" transform="translate(231,232)"/>
<path d="M0 0 C0.99 0.33 1.98 0.66 3 1 C3 2.32 3 3.64 3 5 C2.34 5 1.68 5 1 5 C0.67 4.34 0.34 3.68 0 3 C-0.66 3.66 -1.32 4.32 -2 5 C-2.33 4.01 -2.66 3.02 -3 2 C-2.01 1.34 -1.02 0.68 0 0 Z " fill="#F0F1F0" transform="translate(239,212)"/>
<path d="M0 0 C2.31 0.33 4.62 0.66 7 1 C7.33 1.99 7.66 2.98 8 4 C5.36 3.34 2.72 2.68 0 2 C0 1.34 0 0.68 0 0 Z " fill="#D8D9D9" transform="translate(284,180)"/>
<path d="M0 0 C0 0.66 0 1.32 0 2 C-2.64 2.66 -5.28 3.32 -8 4 C-7.67 3.01 -7.34 2.02 -7 1 C-4.53721199 -0.231394 -2.7204945 -0.07159196 0 0 Z " fill="#D6D6D6" transform="translate(244,359)"/>
<path d="M0 0 C0.66 0 1.32 0 2 0 C2 0.66 2 1.32 2 2 C3.65 2.33 5.3 2.66 7 3 C7 3.99 7 4.98 7 6 C2.32307692 4.52307692 2.32307692 4.52307692 0.6875 1.875 C0.460625 1.25625 0.23375 0.6375 0 0 Z " fill="#D9D9D9" transform="translate(165,282)"/>
<path d="M0 0 C0.99 0 1.98 0 3 0 C2.67 0.99 2.34 1.98 2 3 C1.34 2.67 0.68 2.34 0 2 C0 1.34 0 0.68 0 0 Z " fill="#FEFEFE" transform="translate(253,250)"/>
<path d="M0 0 C0.99 0.33 1.98 0.66 3 1 C2.34 1.66 1.68 2.32 1 3 C0.67 2.01 0.34 1.02 0 0 Z " fill="#FFFFFF" transform="translate(324,217)"/>
<path d="M0 0 C0.66 0 1.32 0 2 0 C2 0.66 2 1.32 2 2 C1.01 2.33 0.02 2.66 -1 3 C-0.67 2.01 -0.34 1.02 0 0 Z " fill="#FEFEFE" transform="translate(250,163)"/>
<path d="M0 0 C0.33 0 0.66 0 1 0 C1 1.65 1 3.3 1 5 C0.67 5 0.34 5 0 5 C0 3.35 0 1.7 0 0 Z " fill="#FEFEFE" transform="translate(260,233)"/>
<path d="M0 0 C0.66 0 1.32 0 2 0 C2 0.66 2 1.32 2 2 C1.34 2 0.68 2 0 2 C0 1.34 0 0.68 0 0 Z " fill="#FEFEFE" transform="translate(262,401)"/>
<path d="M0 0 C0.66 0 1.32 0 2 0 C2 0.66 2 1.32 2 2 C1.34 2 0.68 2 0 2 C0 1.34 0 0.68 0 0 Z " fill="#FFFFFF" transform="translate(298,375)"/>
<path d="M0 0 C0.66 0 1.32 0 2 0 C2 0.66 2 1.32 2 2 C1.34 2 0.68 2 0 2 C0 1.34 0 0.68 0 0 Z " fill="#FEFEFE" transform="translate(201,361)"/>
<path d="M0 0 C0.66 0 1.32 0 2 0 C2 0.66 2 1.32 2 2 C1.34 2 0.68 2 0 2 C0 1.34 0 0.68 0 0 Z " fill="#FFFFFF" transform="translate(157,277)"/>
<path d="M0 0 C0.66 0 1.32 0 2 0 C2 0.66 2 1.32 2 2 C1.34 2 0.68 2 0 2 C0 1.34 0 0.68 0 0 Z " fill="#FDFDFD" transform="translate(286,177)"/>
<path d="M0 0 C0.99 0.495 0.99 0.495 2 1 C1.01 1.495 1.01 1.495 0 2 C0 1.34 0 0.68 0 0 Z " fill="#FFFFFF" transform="translate(288,362)"/>
<path d="M0 0 C0.99 0.495 0.99 0.495 2 1 C1.01 1.495 1.01 1.495 0 2 C0 1.34 0 0.68 0 0 Z " fill="#FEFEFE" transform="translate(371,263)"/>
<path d="M0 0 C0.66 0 1.32 0 2 0 C1.67 0.66 1.34 1.32 1 2 C0.67 1.34 0.34 0.68 0 0 Z " fill="#FFFFFF" transform="translate(189,233)"/>
<path d="M0 0 C0.33 0.66 0.66 1.32 1 2 C0.34 1.67 -0.32 1.34 -1 1 C-0.67 0.67 -0.34 0.34 0 0 Z " fill="#FFFFFF" transform="translate(191,162)"/>
<path d="" fill="#FFFFFF" transform="translate(0,0)"/>
<path d="" fill="#FFFFFF" transform="translate(0,0)"/>
<path d="" fill="#FFFFFF" transform="translate(0,0)"/>
<path d="" fill="#FFFFFF" transform="translate(0,0)"/>
<path d="" fill="#FFFFFF" transform="translate(0,0)"/>
<path d="" fill="#FEFEFE" transform="translate(0,0)"/>
<path d="" fill="#FFFFFF" transform="translate(0,0)"/>
<path d="" fill="#FEFEFE" transform="translate(0,0)"/>
<path d="" fill="#FEFEFE" transform="translate(0,0)"/>
<path d="" fill="#FFFFFF" transform="translate(0,0)"/>
<path d="" fill="#FFFFFF" transform="translate(0,0)"/>
<path d="" fill="#FFFFFF" transform="translate(0,0)"/>
<path d="" fill="#FFFFFF" transform="translate(0,0)"/>
<path d="" fill="#FEFEFE" transform="translate(0,0)"/>
<path d="" fill="#FFFFFF" transform="translate(0,0)"/>
<path d="" fill="#FFFFFF" transform="translate(0,0)"/>
<path d="" fill="#FEFEFE" transform="translate(0,0)"/>
<path d="" fill="#FFFFFF" transform="translate(0,0)"/>
<path d="" fill="#FFFFFF" transform="translate(0,0)"/>
<path d="" fill="#FEFEFE" transform="translate(0,0)"/>
<path d="" fill="#FFFFFF" transform="translate(0,0)"/>
<path d="" fill="#FFFFFF" transform="translate(0,0)"/>
<path d="" fill="#FFFFFF" transform="translate(0,0)"/>
<path d="" fill="#FFFFFF" transform="translate(0,0)"/>
<path d="" fill="#FFFFFF" transform="translate(0,0)"/>
<path d="" fill="#FFFFFF" transform="translate(0,0)"/>
<path d="" fill="#FFFFFF" transform="translate(0,0)"/>
<path d="" fill="#FFFFFF" transform="translate(0,0)"/>
<path d="" fill="#FFFFFF" transform="translate(0,0)"/>
<path d="" fill="#FFFFFF" transform="translate(0,0)"/>
<path d="" fill="#FEFEFE" transform="translate(0,0)"/>
<path d="" fill="#FFFFFF" transform="translate(0,0)"/>
<path d="" fill="#FFFFFF" transform="translate(0,0)"/>
<path d="" fill="#FFFFFF" transform="translate(0,0)"/>
<path d="" fill="#FFFFFF" transform="translate(0,0)"/>
<path d="" fill="#FFFFFF" transform="translate(0,0)"/>
<path d="" fill="#FFFFFF" transform="translate(0,0)"/>
<path d="" fill="#FEFEFE" transform="translate(0,0)"/>
<path d="" fill="#FFFFFF" transform="translate(0,0)"/>
<path d="" fill="#FFFFFF" transform="translate(0,0)"/>
<path d="" fill="#FFFFFF" transform="translate(0,0)"/>
<path d="" fill="#FFFFFF" transform="translate(0,0)"/>
<path d="" fill="#FFFFFF" transform="translate(0,0)"/>
<path d="" fill="#FFFFFF" transform="translate(0,0)"/>
<path d="" fill="#FFFFFF" transform="translate(0,0)"/>
<path d="" fill="#FFFFFF" transform="translate(0,0)"/>
<path d="" fill="#FFFFFF" transform="translate(0,0)"/>
<path d="" fill="#FFFFFF" transform="translate(0,0)"/>
<path d="" fill="#FFFFFF" transform="translate(0,0)"/>
<path d="" fill="#FFFFFF" transform="translate(0,0)"/>
<path d="" fill="#FFFFFF" transform="translate(0,0)"/>
<path d="" fill="#FFFFFF" transform="translate(0,0)"/>
<path d="" fill="#FFFFFF" transform="translate(0,0)"/>
</svg>
